<?xml version="1.0" encoding="UTF-8"?><svg id="Layer_2" xmlns="http://www.w3.org/2000/svg" viewBox="0 0 280 115"><defs><style>.cls-1{fill:#fff;}</style></defs><path class="cls-1" d="M13.557,35.514h9.419l1.308-1.308H57.25l.883,1.308h18.053v-1.308l3.238-6.214h.883v-2.453h4.611v-1.374h.687v-2.649h1.57l1.275,1.962,.883-.981,1.668,.687,7.849,.196,.589-1.177h4.023l1.668,2.159,.589,1.472h52.883l.425-.589v-.752h2.289v.752h4.644l.67,.67h29.679v3.581h12.035l1.439-.262h1.701v-1.341h8.634v1.374s1.079,2.502,0,3.581l2.723,2.968h3.213l.245,.54h17.104l2.486-14.84h3.794v14.84h4.84v-1.365h10.989s2.093,3.925,0,6.018h-10.204l-1.112-1.112h-3.467v3.597h-3.14v-1.439h-4.055v-1.701h-17.268v3.14h-2.747v-3.826h-4.799v1.717h-3.164v-1.202h-16.409l-.809,.809h-1.496v4.611h-50.896l-.654,.769h-9.288s5.233,21.209,17.53,37.823l-17.399,9.288s-15.698-27.079-19.623-41.093c0,0,1.619,3.908-3.974,3.908l-.294,3.925s-1.079,.785-1.226-3.041c0,0-12.068,.54-12.362-.245,0,0-1.766,1.668-2.453,1.374l-1.177,.493c-.962,.636-1.372,1.305-1.57,1.764-.67,1.554,.253,2.628-.589,4.023-.423,.701-.773,.622-1.177,1.472-.414,.869-.436,1.765-.442,2.109-.016,.983,.228,1.393-.049,2.159-.119,.328-.26,.519-.442,.785-.155,.228-1.247,1.83-1.619,2.943-.502,1.504,.255,2.281-.049,2.894-.5,1.009-3.629,1.08-13.736-2.011,0,0,.589-11.823,6.279-19.279,0,0,1.03-6.623-3.728-6.623v-1.913h-5.298l-1.03-.196h-20.653s-2.894,.54-2.894,2.453h-4.317v.834h-10.891v-1.619s-7.8,11.087-7.8,14.521l-10.694,1.374-.769-28.976Z"/></svg>