<svg id="Layer_1" data-name="Layer 1" xmlns="http://www.w3.org/2000/svg" viewBox="0 0 111.66 62.81"><defs><style>.cls-1{fill:#fff;}</style></defs><path class="cls-1" d="M73.44,24.35l-.34-.7H71.55l-2.67-4.84a1.71,1.71,0,0,0-1.63-.88L54.21,19a1.7,1.7,0,0,0-1.57,1.7v3.7l-1-.89-16.17.16-.52.84-3-3.63a.59.59,0,0,0-1,.38V25H18.56v-.49H14.24v3.26h4.31v-.63H30.73l4,1.54,1,1H51.35l1-1L53.76,30v2.84S53,39.72,51.7,43.06l5.88,1.82S60.1,38,60,35.08l6.44.21L69,40.84a1,1,0,0,0,1.15.55l3.16-.79a1,1,0,0,0,.59-1.52l-4.13-6.31s-.91-2.31,2.59-2.31l.42-2,8.48.92,16.17,6.92v-12Zm-42,.55V22.23a.37.37,0,0,1,.65-.23l1.86,2.58Zm35.31,7.73a1.32,1.32,0,0,1-1.32,1.31H63.71a1.32,1.32,0,0,1-1.32-1.31v-.2a1.32,1.32,0,0,1,1.32-1.32h1.71a1.32,1.32,0,0,1,1.32,1.32ZM55.11,23.35v-2a1.28,1.28,0,0,1,1.18-1.27l9.78-.78a1.25,1.25,0,0,1,1.21.65l2,3.63Z"/><path class="cls-1" d="M66.06,31.07l0,.72a1.56,1.56,0,0,1-1.82,1.46.21.21,0,0,1,0-.41,1,1,0,0,0,1.13-1.05l0-.72a.38.38,0,1,1,.75,0Z"/></svg>