<?xml version="1.0" encoding="UTF-8"?><svg id="Layer_1" xmlns="http://www.w3.org/2000/svg" viewBox="0 0 156.386 156.386"><defs><style>.cls-1{fill:#fff;}</style></defs><g><path class="cls-1" d="M18.502,96.142l14.485-15.124c1.419-1.481,.369-3.941-1.682-3.941H2.334c-2.051,0-3.101,2.46-1.682,3.941l14.485,15.124c.917,.958,2.448,.958,3.365,0Z"/><path class="cls-1" d="M60.244,137.883l15.124-14.485c1.481-1.419,3.941-.369,3.941,1.682v28.971c0,2.051-2.46,3.101-3.941,1.682l-15.124-14.485c-.958-.917-.958-2.448,0-3.365Z"/></g><path class="cls-1" d="M29.585,138.823l-12.023-12.023c-.992-.992-1.297-2.481-.775-3.783l1.942-4.841c.936-2.334,3.953-2.952,5.731-1.174l14.922,14.922c1.778,1.778,1.16,4.795-1.174,5.731l-4.841,1.942c-1.302,.522-2.791,.218-3.783-.775Z"/><polygon class="cls-1" points="89.537 78.257 59.787 108.007 48.379 96.599 78.129 66.849 71.083 59.803 24.94 105.946 50.44 131.445 96.583 85.303 89.537 78.257"/><g><path class="cls-1" d="M112.806,16.78c-48.606,7.764-36.303,36.908-36.303,36.908l13.097,13.097,13.097,13.097s15.502,6.536,26.909-8.769l-16.8-54.333Z"/><path class="cls-1" d="M127.178,11.352l11.508,37.218c.379-1.82,.737-3.701,1.047-5.723l3.659-9.413-7.835-25.338-8.379,3.256Z"/><path class="cls-1" d="M131.874,67.671c2.017-3.454,3.842-7.745,5.347-13.061l-13.018-42.102-8.379,3.256,16.05,51.906Z"/><polygon class="cls-1" points="149.884 2.527 152.33 10.435 156.386 0 149.884 2.527"/><polygon class="cls-1" points="146.91 3.683 138.531 6.939 145.247 28.659 150.474 15.21 146.91 3.683"/></g></svg>