<?xml version="1.0" encoding="UTF-8"?><svg id="Layer_1" xmlns="http://www.w3.org/2000/svg" viewBox="0 0 147.1 137.726"><defs><style>.cls-1{fill:#fff;}</style></defs><polygon class="cls-1" points="44.627 0 29.12 0 26.226 26.465 47.522 26.465 44.627 0"/><polygon class="cls-1" points="117.98 0 102.473 0 99.578 26.465 120.874 26.465 117.98 0"/><path class="cls-1" d="M0,33.662v25.24H147.1v-25.24H0Zm44.095,15.221h-4.62v4.62h-5.203v-4.62h-4.62v-5.203h4.62v-4.62h5.203v4.62h4.62v5.203Zm73.353,0h-14.444v-5.203h14.444v5.203Z"/><path class="cls-1" d="M13.199,69.106v68.62h120.702V69.106H13.199Zm43.447,59.976l10.114-20.513-13.676-6.743,37.37-24.075-10.114,20.513,13.676,6.743-37.37,24.075Z"/></svg>