<?xml version="1.0" encoding="UTF-8"?><svg id="Layer_1" xmlns="http://www.w3.org/2000/svg" viewBox="0 0 107.268 156.778"><defs><style>.cls-1{fill:#fff;}</style></defs><g><polygon class="cls-1" points="96.226 78.339 107.268 78.339 107.268 50.558 96.226 60.179 96.226 78.339"/><polygon class="cls-1" points="0 85.222 11.042 84.755 11.042 52.717 0 43.946 0 85.222"/><path class="cls-1" d="M11.042,119.592v-24.805l-11.042-.091v13.567c0,6.589,1.685,13.068,4.894,18.823l.137,.246c.171,.306,.369,.592,.547,.893l7.701-7.421-2.237-1.212Z"/><path class="cls-1" d="M102.237,127.332l.137-.246c3.209-5.754,4.894-12.234,4.894-18.823v-10.841h-11.042v22.17l-3.457,1.872,7.951,8.341c.532-.805,1.044-1.626,1.517-2.474Z"/><polygon class="cls-1" points="60.65 12.954 60.684 15.961 96.226 24.352 96.226 36.765 107.268 28.922 107.268 7.887 62.567 1.314 60.65 12.954"/><polygon class="cls-1" points="11.042 34.191 11.042 24.352 53.634 14.296 53.634 0 0 7.887 0 27.192 11.042 34.191"/><path class="cls-1" d="M88.156,123.964l-26.146,14.162-.966,15.647,22.705-9.761c5.261-2.261,9.898-5.67,13.649-9.907l-9.243-10.142Z"/><path class="cls-1" d="M53.688,142.634l-.053,.029-23.206-12.57-12.059,11.208c1.642,1.022,3.356,1.94,5.15,2.711l29.693,12.766,.475-14.144Z"/></g><polygon class="cls-1" points="38.444 53.131 46.979 48.959 51.902 24.44 60.775 48.103 68.614 51.356 107.268 39.821 77.608 63.341 77.931 81.821 104.656 87.293 77.81 92.284 77.444 97.762 84.049 113.614 70.346 101.604 58.515 104.565 56.191 125.646 49.345 104.861 43.768 103.265 9.754 138.869 34.599 94.697 32.04 88.259 9.458 90.251 29.867 80.047 30.712 60.199 11.972 41.004 38.444 53.131"/></svg>