<?xml version="1.0" encoding="UTF-8"?><svg id="Layer_4" xmlns="http://www.w3.org/2000/svg" viewBox="0 0 52.38 85.77"><defs><style>.cls-1,.cls-2{fill:#fff;}.cls-3{fill:none;stroke-miterlimit:10;stroke-width:1.39px;}.cls-3,.cls-2{stroke:#1d2833;}.cls-2{stroke-linejoin:round;stroke-width:2.57px;}.cls-4{fill:#1d2833;}</style></defs><rect class="cls-1" x=".86" y=".89" width="50.66" height="84"/><g><rect class="cls-3" x="6.83" y="6.99" width="38.73" height="8.97"/><rect class="cls-3" x="6.83" y="15.96" width="38.73" height="8.97"/><rect class="cls-3" x="6.83" y="24.94" width="38.73" height="8.97"/><rect class="cls-3" x="6.83" y="33.91" width="38.73" height="8.97"/><rect class="cls-3" x="6.83" y="42.89" width="38.73" height="8.97"/><rect class="cls-3" x="6.83" y="51.86" width="38.73" height="8.97"/><rect class="cls-3" x="6.83" y="60.84" width="38.73" height="8.97"/><rect class="cls-3" x="6.83" y="69.81" width="38.73" height="8.97"/></g><rect class="cls-4" x="6.83" y="81.24" width="8.53" height="1.96"/><rect class="cls-4" x="37.03" y="81.24" width="8.53" height="1.96"/><rect class="cls-4" x="6.83" y="2.58" width="8.53" height="1.96"/><rect class="cls-4" x="37.03" y="2.58" width="8.53" height="1.96"/><rect class="cls-4" x="24.38" y="49.35" width="3.6" height="24.95"/><rect class="cls-4" x="24.38" y="12.46" width="3.6" height="16.56"/><polygon class="cls-2" points="26.18 46.11 18.18 32.26 34.18 32.26 26.18 46.11"/></svg>