<?xml version="1.0" encoding="UTF-8"?><svg id="Layer_1" xmlns="http://www.w3.org/2000/svg" viewBox="0 0 115.243 191.081"><defs><style>.cls-1{fill:#fff;}.cls-2{fill:#293747;}</style></defs><rect class="cls-1" x="61.69" y="137.949" width="38.408" height="17.26"/><polygon class="cls-1" points="61.69 166.994 53.511 166.994 53.511 158.365 15.146 158.365 15.146 175.624 100.098 175.624 100.098 158.365 61.69 158.365 61.69 166.994"/><rect class="cls-1" x="61.69" y="117.534" width="38.408" height="17.259"/><rect class="cls-1" x="15.146" y="35.872" width="38.365" height="17.26"/><rect class="cls-1" x="15.146" y="137.949" width="38.365" height="17.26"/><rect class="cls-1" x="15.146" y="117.534" width="38.365" height="17.259"/><path class="cls-1" d="M0,0V191.081H115.243V0H0ZM82.281,3.841h19.395v4.461h-19.395V3.841ZM13.567,3.841h19.395v4.461H13.567V3.841Zm19.395,183.398H13.567v-4.461h19.395v4.461Zm68.714,0h-19.395v-4.461h19.395v4.461Zm1.579-154.524V178.781H11.989V12.3H103.255v20.415Z"/><polygon class="cls-1" points="53.511 26.333 61.69 26.333 61.69 32.715 100.098 32.715 100.098 15.457 15.146 15.457 15.146 32.715 53.511 32.715 53.511 26.333"/><g><polygon class="cls-1" points="15.146 114.377 53.511 114.377 53.511 110.24 61.69 110.24 61.69 114.377 100.098 114.377 100.098 97.119 15.146 97.119 15.146 114.377"/><rect class="cls-1" x="15.146" y="76.704" width="84.952" height="17.259"/><polygon class="cls-1" points="61.69 64.004 53.511 64.004 53.511 56.288 15.146 56.288 15.146 73.547 100.098 73.547 100.098 56.288 61.69 56.288 61.69 64.004"/></g><rect class="cls-1" x="61.69" y="35.872" width="38.408" height="17.26"/><polygon class="cls-1" points="57.601 102.879 39.406 71.365 75.795 71.365 57.601 102.879"/><path class="cls-2" d="M57.6,106.291c-1.22,0-2.346-.651-2.955-1.706l-18.195-31.515c-.61-1.056-.61-2.357,0-3.412,.609-1.055,1.735-1.706,2.955-1.706h36.39c1.22,0,2.346,.651,2.955,1.706,.61,1.055,.61,2.356,0,3.412l-18.195,31.515c-.609,1.055-1.735,1.706-2.955,1.706Zm-12.285-31.515l12.285,21.278,12.285-21.278h-24.569Z"/></svg>