<?xml version="1.0" encoding="UTF-8"?><svg id="Layer_1" xmlns="http://www.w3.org/2000/svg" viewBox="0 0 186.687 174.696"><defs><style>.cls-1{fill:#fff;}</style></defs><g><polygon class="cls-1" points="157.407 59.475 67.884 148.998 67.884 157.565 114.814 157.565 114.814 106.405 165.974 106.405 165.974 59.475 157.407 59.475"/><polygon class="cls-1" points="114.814 17.696 114.814 8.314 67.884 8.314 67.884 59.475 16.723 59.475 16.723 106.405 26.105 106.405 114.814 17.696"/></g><g><rect class="cls-1" x="59.736" y="76.402" width="27.211" height="49.905" transform="translate(93.15 -22.174) rotate(45)"/><path class="cls-1" d="M136.567,50.12L186.687,0h-23.982s-38.129,38.129-38.129,38.129l-11.966-11.966L22.259,116.514l10.746,10.746-14.431,14.431,14.431,14.431,14.431-14.431,10.746,10.746L148.533,62.086l-11.966-11.966Zm-70.818,84.761l-25.934-25.934L105.043,43.719l25.934,25.934-65.228,65.228Z"/><rect class="cls-1" x="-6.111" y="150.871" width="50.802" height="9.07" rx="4.535" ry="4.535" transform="translate(115.539 31.878) rotate(45)"/></g></svg>