<?xml version="1.0" encoding="UTF-8"?><svg id="Layer_4" xmlns="http://www.w3.org/2000/svg" viewBox="0 0 81.02 75.87"><defs><style>.cls-1{fill:#fff;}.cls-2{fill:#1d2833;}</style></defs><polygon class="cls-1" points="71.69 25.97 49.73 25.97 49.73 4.01 29.58 4.01 29.58 25.97 7.62 25.97 7.62 46.12 29.58 46.12 29.58 68.08 49.73 68.08 49.73 46.12 71.69 46.12 71.69 25.97"/><rect class="cls-2" x="24.29" y="6.56" width="25.61" height="64.42" transform="translate(38.28 -14.88) rotate(45)"/><rect class="cls-2" x="29.23" y="18.97" width="15.75" height="39.6" transform="translate(38.28 -14.88) rotate(45)"/><g><rect class="cls-1" x="26.08" y="33.24" width="11.68" height="21.43" transform="translate(40.43 -9.7) rotate(45)"/><path class="cls-1" d="M59.07,21.95L80.58,.44h-10.3s-16.37,16.37-16.37,16.37l-5.14-5.14L9.99,50.46l4.61,4.61-6.2,6.2,6.2,6.2,6.2-6.2,4.61,4.61L64.2,27.09l-5.14-5.14ZM28.66,58.34l-11.13-11.13,28-28,11.13,11.13-28,28Z"/><rect class="cls-1" x="-2.19" y="65.21" width="21.81" height="3.89" rx="1.95" ry="1.95" transform="translate(50.04 13.5) rotate(45)"/></g></svg>