<svg id="Layer_1" data-name="Layer 1" xmlns="http://www.w3.org/2000/svg" viewBox="0 0 427.23 51.59"><defs><style>.cls-1{fill:#fff;}</style></defs><path class="cls-1" d="M514.51,389.27h-9.83a7,7,0,0,0-.55-2.21,5.2,5.2,0,0,0-3.1-2.84,7.39,7.39,0,0,0-2.49-.39,7,7,0,0,0-4.13,1.18,7.26,7.26,0,0,0-2.54,3.41,14.53,14.53,0,0,0-.87,5.32,15,15,0,0,0,.88,5.48,6.92,6.92,0,0,0,2.56,3.32,7.19,7.19,0,0,0,4,1.1,7.77,7.77,0,0,0,2.4-.34,5.37,5.37,0,0,0,1.85-1,5.28,5.28,0,0,0,1.29-1.56,6.38,6.38,0,0,0,.67-2.07l9.83.07a13.14,13.14,0,0,1-1.27,4.61,14.89,14.89,0,0,1-3.11,4.33,15.21,15.21,0,0,1-5,3.18,19.86,19.86,0,0,1-15.71-.91,15.17,15.17,0,0,1-6.16-6.21,20.56,20.56,0,0,1-2.26-10,20.2,20.2,0,0,1,2.31-10.06,15.35,15.35,0,0,1,6.21-6.19,18.1,18.1,0,0,1,8.72-2.1,19.89,19.89,0,0,1,6.22.92,15.11,15.11,0,0,1,5,2.7,13.58,13.58,0,0,1,3.46,4.35A15.81,15.81,0,0,1,514.51,389.27Z" transform="translate(-481.02 -370.61)"/><path class="cls-1" d="M518.41,384.63v-14h9.28v14m.35,18.65v15.07h-9.63v-21.7h9.28m.28-6.75a7.79,7.79,0,0,1,3-4,8.75,8.75,0,0,1,5.07-1.44,9.27,9.27,0,0,1,5,1.29,8.77,8.77,0,0,1,3.26,3.56,11.14,11.14,0,0,1,1.14,5.19v17.1h-9.63V396.53a4.51,4.51,0,0,0-1-3.13,3.63,3.63,0,0,0-2.85-1.13,4,4,0,0,0-2.05.51,3.52,3.52,0,0,0-1.36,1.47,5.12,5.12,0,0,0-.5,2.28" transform="translate(-481.02 -370.61)"/><path class="cls-1" d="M549.52,411.6V384.81h9.35v5.09h.27a7.7,7.7,0,0,1,2.33-4.14,5.74,5.74,0,0,1,3.74-1.3,8.66,8.66,0,0,1,1.25.09,11.62,11.62,0,0,1,1.2.27V393a8.8,8.8,0,0,0-1.77-.37,15.89,15.89,0,0,0-1.79-.12,5,5,0,0,0-2.54.64,4.52,4.52,0,0,0-1.77,1.78,5.33,5.33,0,0,0-.65,2.67v14Z" transform="translate(-481.02 -370.61)"/><path class="cls-1" d="M570.16,411.6V384.81h9.62V411.6ZM575,382a4.77,4.77,0,0,1-3.35-1.29,4.16,4.16,0,0,1,0-6.21,5,5,0,0,1,6.71,0,4.16,4.16,0,0,1,0,6.21A4.77,4.77,0,0,1,575,382Z" transform="translate(-481.02 -370.61)"/><path class="cls-1" d="M608.52,393.53h-8.86a2.47,2.47,0,0,0-.58-1.42,3.32,3.32,0,0,0-1.3-.91,4.51,4.51,0,0,0-1.75-.32,4.68,4.68,0,0,0-2.13.45,1.37,1.37,0,0,0-.87,1.29,1.47,1.47,0,0,0,.51,1.1,4.19,4.19,0,0,0,2.07.78l5.44,1a12.62,12.62,0,0,1,6.13,2.52,6.06,6.06,0,0,1,2,4.74,7.84,7.84,0,0,1-1.7,5,10.86,10.86,0,0,1-4.59,3.24,18,18,0,0,1-6.62,1.14q-6.13,0-9.6-2.51a9,9,0,0,1-3.87-6.62h9.56a2.72,2.72,0,0,0,1.27,2,4.91,4.91,0,0,0,2.71.69,4.61,4.61,0,0,0,2.19-.46,1.45,1.45,0,0,0,.88-1.29,1.42,1.42,0,0,0-.76-1.22,6.8,6.8,0,0,0-2.31-.73l-4.75-.84a11.39,11.39,0,0,1-6.14-2.72,6.88,6.88,0,0,1-2-5.16,7.47,7.47,0,0,1,1.48-4.74,9.19,9.19,0,0,1,4.27-3,19.15,19.15,0,0,1,6.6-1q5.8,0,9.17,2.4A8.24,8.24,0,0,1,608.52,393.53Z" transform="translate(-481.02 -370.61)"/><path class="cls-1" d="M628.25,384.81v7H610.6v-7ZM614,378.39h9.63V403a2,2,0,0,0,.19.93,1.19,1.19,0,0,0,.59.56,2.54,2.54,0,0,0,1,.18,5.82,5.82,0,0,0,1-.1l.86-.17,1.4,6.76c-.43.13-1,.29-1.84.47a16.26,16.26,0,0,1-2.83.37,13.48,13.48,0,0,1-5.57-.69,6.47,6.47,0,0,1-3.38-2.73,8.62,8.62,0,0,1-1.1-4.67Z" transform="translate(-481.02 -370.61)"/><path class="cls-1" d="M631.52,411.6V384.81h9.63V411.6ZM636.33,382a4.74,4.74,0,0,1-3.34-1.29,4.14,4.14,0,0,1,0-6.21,5,5,0,0,1,6.7,0,4.16,4.16,0,0,1,0,6.21A4.74,4.74,0,0,1,636.33,382Z" transform="translate(-481.02 -370.61)"/><path class="cls-1" d="M652.86,412a11.44,11.44,0,0,1-4.53-.85,6.76,6.76,0,0,1-3.08-2.57,8,8,0,0,1-1.11-4.4,8.63,8.63,0,0,1,.75-3.76,6.69,6.69,0,0,1,2.09-2.55,9.71,9.71,0,0,1,3.13-1.52,18.38,18.38,0,0,1,3.86-.68c1.5-.12,2.71-.26,3.62-.43a4.88,4.88,0,0,0,2-.71,1.46,1.46,0,0,0,.61-1.23v-.07a1.83,1.83,0,0,0-.8-1.61,3.53,3.53,0,0,0-2.06-.56,3.85,3.85,0,0,0-2.24.61,2.57,2.57,0,0,0-1,1.84h-8.86a9.22,9.22,0,0,1,1.56-4.51,9.68,9.68,0,0,1,4.06-3.32,15.74,15.74,0,0,1,6.66-1.24,18.3,18.3,0,0,1,5.17.67,12.44,12.44,0,0,1,3.89,1.86,8.54,8.54,0,0,1,2.45,2.8,7.28,7.28,0,0,1,.84,3.46V411.6h-9v-3.77h-.21a7.64,7.64,0,0,1-1.94,2.42,7.25,7.25,0,0,1-2.6,1.35A11.53,11.53,0,0,1,652.86,412ZM656,406a4.81,4.81,0,0,0,2.06-.46,3.89,3.89,0,0,0,1.58-1.31,3.45,3.45,0,0,0,.61-2.07v-2.23c-.25.1-.52.2-.81.29s-.59.18-.9.26-.66.16-1,.23l-1.1.19a5.64,5.64,0,0,0-1.83.57,2.63,2.63,0,0,0-1,1,2.38,2.38,0,0,0-.34,1.26,2,2,0,0,0,.78,1.71A3.2,3.2,0,0,0,656,406Z" transform="translate(-481.02 -370.61)"/><path class="cls-1" d="M683.41,396.53V411.6h-9.63V384.81h9.14v5.09h.28a7.58,7.58,0,0,1,3.07-4,10,10,0,0,1,10.1-.14,8.86,8.86,0,0,1,3.27,3.56,11.12,11.12,0,0,1,1.14,5.18v17.1h-9.63V396.53a4.46,4.46,0,0,0-1-3.13,3.65,3.65,0,0,0-2.84-1.13,4,4,0,0,0-2.06.51,3.52,3.52,0,0,0-1.36,1.47A5.26,5.26,0,0,0,683.41,396.53Z" transform="translate(-481.02 -370.61)"/><path class="cls-1" d="M727.62,411.6H713.87V375.87h13.61A20.1,20.1,0,0,1,737,378a14.94,14.94,0,0,1,6.21,6.14,22.12,22.12,0,0,1,0,19.17,14.87,14.87,0,0,1-6.18,6.14A19.77,19.77,0,0,1,727.62,411.6Zm-4-8.24h3.7a10.82,10.82,0,0,0,4.52-.85,5.76,5.76,0,0,0,2.86-2.95,17.55,17.55,0,0,0,0-11.65,5.85,5.85,0,0,0-2.93-3,11.65,11.65,0,0,0-4.72-.85h-3.42Z" transform="translate(-481.02 -370.61)"/><path class="cls-1" d="M762.21,412.08a15.53,15.53,0,0,1-7.39-1.64,11.36,11.36,0,0,1-4.76-4.75,15.46,15.46,0,0,1-1.66-7.42,15.14,15.14,0,0,1,1.67-7.26,12,12,0,0,1,4.73-4.83,14.37,14.37,0,0,1,7.2-1.72,15.22,15.22,0,0,1,5.5.94,11.58,11.58,0,0,1,4.2,2.73,12.17,12.17,0,0,1,2.69,4.33,16.65,16.65,0,0,1,.94,5.74v2.23H751.4v-5.3h15.07a3.75,3.75,0,0,0-.59-2,3.94,3.94,0,0,0-1.51-1.38,4.87,4.87,0,0,0-4.3,0,4,4,0,0,0-1.57,1.37,3.74,3.74,0,0,0-.61,2v5.72a4.79,4.79,0,0,0,.54,2.3,3.83,3.83,0,0,0,1.55,1.59,4.79,4.79,0,0,0,2.44.58,5.84,5.84,0,0,0,1.82-.28,4,4,0,0,0,1.42-.81,3.23,3.23,0,0,0,.88-1.28h8.79a9.94,9.94,0,0,1-2.15,4.84,11.11,11.11,0,0,1-4.47,3.17A17.28,17.28,0,0,1,762.21,412.08Z" transform="translate(-481.02 -370.61)"/><path class="cls-1" d="M803.08,393.53h-8.86a2.4,2.4,0,0,0-.57-1.42,3.32,3.32,0,0,0-1.3-.91,4.51,4.51,0,0,0-1.75-.32,4.65,4.65,0,0,0-2.13.45,1.34,1.34,0,0,0-.87,1.29,1.43,1.43,0,0,0,.51,1.1,4.1,4.1,0,0,0,2.07.78l5.44,1a12.66,12.66,0,0,1,6.13,2.52,6,6,0,0,1,2,4.74,7.79,7.79,0,0,1-1.7,5,10.74,10.74,0,0,1-4.59,3.24,18,18,0,0,1-6.62,1.14q-6.14,0-9.6-2.51a8.94,8.94,0,0,1-3.86-6.62H787a2.74,2.74,0,0,0,1.26,2,4.93,4.93,0,0,0,2.71.69,4.56,4.56,0,0,0,2.19-.46,1.43,1.43,0,0,0,.88-1.29,1.41,1.41,0,0,0-.75-1.22,7,7,0,0,0-2.32-.73l-4.74-.84a11.35,11.35,0,0,1-6.14-2.72,6.88,6.88,0,0,1-2-5.16,7.52,7.52,0,0,1,1.47-4.74,9.29,9.29,0,0,1,4.27-3,19.25,19.25,0,0,1,6.61-1q5.8,0,9.16,2.4A8.18,8.18,0,0,1,803.08,393.53Z" transform="translate(-481.02 -370.61)"/><path class="cls-1" d="M806.84,411.6V384.81h9.63V411.6ZM811.65,382a4.74,4.74,0,0,1-3.34-1.29,4.14,4.14,0,0,1,0-6.21,5,5,0,0,1,6.7,0,4.16,4.16,0,0,1,0,6.21A4.74,4.74,0,0,1,811.65,382Z" transform="translate(-481.02 -370.61)"/><path class="cls-1" d="M833.62,422.2a18.67,18.67,0,0,1-6.9-1.14,10.5,10.5,0,0,1-4.45-3.14,8.23,8.23,0,0,1-1.77-4.58h9.28a2.41,2.41,0,0,0,.7,1.38,3.31,3.31,0,0,0,1.44.76,8,8,0,0,0,2,.23,5.13,5.13,0,0,0,3.1-.9,3.84,3.84,0,0,0,1.23-3.28V407H838a5.79,5.79,0,0,1-1.61,2.31,7.24,7.24,0,0,1-2.6,1.45,11.17,11.17,0,0,1-8.59-.83,9.32,9.32,0,0,1-3.83-4.2,16.87,16.87,0,0,1-1.44-7.52,17.82,17.82,0,0,1,1.5-7.88,10.25,10.25,0,0,1,3.91-4.45,9.81,9.81,0,0,1,5.05-1.41,8.26,8.26,0,0,1,3.49.69,7.31,7.31,0,0,1,2.51,1.83,8.06,8.06,0,0,1,1.54,2.5h.21v-4.67h9.62v26.72a9.49,9.49,0,0,1-1.75,5.78A10.92,10.92,0,0,1,841,421,20.18,20.18,0,0,1,833.62,422.2Zm.35-17.79a3.65,3.65,0,0,0,2.28-.74,4.69,4.69,0,0,0,1.46-2.13,9.68,9.68,0,0,0,.52-3.34,10.15,10.15,0,0,0-.52-3.41,4.8,4.8,0,0,0-1.46-2.18,3.54,3.54,0,0,0-2.28-.76,3.45,3.45,0,0,0-2.26.76,4.76,4.76,0,0,0-1.43,2.18,10.44,10.44,0,0,0-.5,3.41,10.12,10.12,0,0,0,.5,3.38,4.58,4.58,0,0,0,1.43,2.11A3.59,3.59,0,0,0,834,404.41Z" transform="translate(-481.02 -370.61)"/><path class="cls-1" d="M861.59,396.53V411.6H852V384.81h9.14v5.09h.28a7.55,7.55,0,0,1,3.08-4,10,10,0,0,1,10.1-.14,8.83,8.83,0,0,1,3.26,3.56A11.12,11.12,0,0,1,879,394.5v17.1h-9.63V396.53a4.46,4.46,0,0,0-1-3.13,3.65,3.65,0,0,0-2.84-1.13,4,4,0,0,0-2.06.51,3.43,3.43,0,0,0-1.35,1.47A5.12,5.12,0,0,0,861.59,396.53Z" transform="translate(-481.02 -370.61)"/><path class="cls-1" d="M907.55,393.53h-8.86a2.46,2.46,0,0,0-.57-1.42,3.32,3.32,0,0,0-1.3-.91,4.54,4.54,0,0,0-1.75-.32,4.65,4.65,0,0,0-2.13.45,1.34,1.34,0,0,0-.87,1.29,1.4,1.4,0,0,0,.51,1.1,4.1,4.1,0,0,0,2.07.78l5.44,1a12.66,12.66,0,0,1,6.13,2.52,6,6,0,0,1,2,4.74,7.79,7.79,0,0,1-1.7,5,10.74,10.74,0,0,1-4.59,3.24,18,18,0,0,1-6.62,1.14q-6.14,0-9.6-2.51a8.94,8.94,0,0,1-3.86-6.62h9.56a2.74,2.74,0,0,0,1.26,2,4.93,4.93,0,0,0,2.71.69,4.56,4.56,0,0,0,2.19-.46,1.43,1.43,0,0,0,.88-1.29,1.41,1.41,0,0,0-.75-1.22,7,7,0,0,0-2.32-.73l-4.74-.84a11.35,11.35,0,0,1-6.14-2.72,6.88,6.88,0,0,1-2-5.16,7.52,7.52,0,0,1,1.47-4.74,9.24,9.24,0,0,1,4.27-3,19.25,19.25,0,0,1,6.61-1q5.8,0,9.16,2.4A8.18,8.18,0,0,1,907.55,393.53Z" transform="translate(-481.02 -370.61)"/></svg>