<svg id="Layer_1" data-name="Layer 1" xmlns="http://www.w3.org/2000/svg" viewBox="0 0 299.11 30.38"><defs><style>.cls-1{isolation:isolate;}.cls-2{fill:#fff;}</style></defs><g id="_2021_Georges_Perec" data-name=" 2021 Georges Perec" class="cls-1"><g class="cls-1"><path class="cls-2" d="M797,393.07a4.05,4.05,0,0,1-1.63-.32,4.24,4.24,0,0,1-1.34-.91,4.34,4.34,0,0,1-.9-1.33,4.06,4.06,0,0,1-.33-1.63,4.21,4.21,0,0,1,.34-1.63,4.06,4.06,0,0,1,.9-1.34,4.34,4.34,0,0,1,1.33-.9,4.19,4.19,0,0,1,3.26,0,4.19,4.19,0,0,1,2.24,2.24,4.19,4.19,0,0,1,.32,1.63,3.89,3.89,0,0,1-.32,1.63,4,4,0,0,1-.9,1.33,4.13,4.13,0,0,1-1.34.91A4.05,4.05,0,0,1,797,393.07Zm0-1.05a3,3,0,0,0,1.22-.25,3.13,3.13,0,0,0,1-.67,3.25,3.25,0,0,0,.67-1,3.12,3.12,0,0,0,.24-1.22,3.17,3.17,0,0,0-.92-2.22,3.12,3.12,0,0,0-4.44,0,3.25,3.25,0,0,0-.67,1,3,3,0,0,0-.25,1.22,3.13,3.13,0,0,0,1.92,2.89A2.93,2.93,0,0,0,797,392Zm-2.29-3.14a2.23,2.23,0,0,1,.32-1.17,2.41,2.41,0,0,1,.84-.84,2.28,2.28,0,0,1,3,.59,2,2,0,0,1,.37.93h-1a1,1,0,0,0-.4-.6,1.31,1.31,0,0,0-1.42-.06,1.38,1.38,0,0,0-.48.48,1.32,1.32,0,0,0,0,1.33,1.38,1.38,0,0,0,.48.48,1.18,1.18,0,0,0,.66.19,1.08,1.08,0,0,0,.72-.24,1,1,0,0,0,.38-.61h1a2,2,0,0,1-.36.94,2.11,2.11,0,0,1-1.77.9,2.31,2.31,0,0,1-1.16-.31,2.41,2.41,0,0,1-.84-.84A2.23,2.23,0,0,1,794.73,388.88Z" transform="translate(-533.08 -368.81)"/><path class="cls-2" d="M805.88,393v-.89l2.76-2.86c.29-.31.53-.58.73-.81a3.54,3.54,0,0,0,.43-.67,1.72,1.72,0,0,0,.14-.68,1.25,1.25,0,0,0-.19-.7,1.29,1.29,0,0,0-.52-.46,1.78,1.78,0,0,0-.74-.16,1.59,1.59,0,0,0-.77.18,1.29,1.29,0,0,0-.5.51,1.64,1.64,0,0,0-.17.76h-1.17a2.4,2.4,0,0,1,.34-1.3,2.3,2.3,0,0,1,.94-.86,2.8,2.8,0,0,1,1.35-.31,2.92,2.92,0,0,1,1.35.3,2.39,2.39,0,0,1,.92.83,2.16,2.16,0,0,1,.33,1.18,2.46,2.46,0,0,1-.17.88,3.93,3.93,0,0,1-.59,1,14.09,14.09,0,0,1-1.16,1.28l-1.61,1.69v.06h3.66V393Z" transform="translate(-533.08 -368.81)"/><path class="cls-2" d="M815.58,393.08a2.68,2.68,0,0,1-1.61-.49,3,3,0,0,1-1-1.44,7.31,7.31,0,0,1,0-4.53,3.1,3.1,0,0,1,1-1.43,2.86,2.86,0,0,1,3.2,0,3.09,3.09,0,0,1,1,1.43,6.34,6.34,0,0,1,.36,2.26,6.56,6.56,0,0,1-.35,2.27,3.08,3.08,0,0,1-1,1.44A2.6,2.6,0,0,1,815.58,393.08Zm0-1.06a1.43,1.43,0,0,0,1.29-.81,4.69,4.69,0,0,0,.47-2.33,6.05,6.05,0,0,0-.21-1.71,2.49,2.49,0,0,0-.61-1.07,1.37,1.37,0,0,0-.94-.36,1.43,1.43,0,0,0-1.29.81,4.74,4.74,0,0,0-.48,2.33,6,6,0,0,0,.22,1.72,2.3,2.3,0,0,0,.6,1.06A1.37,1.37,0,0,0,815.58,392Z" transform="translate(-533.08 -368.81)"/><path class="cls-2" d="M820,393v-.89l2.76-2.86c.29-.31.53-.58.73-.81a3.54,3.54,0,0,0,.43-.67A1.72,1.72,0,0,0,824,387a1.25,1.25,0,0,0-.19-.7,1.29,1.29,0,0,0-.52-.46,1.78,1.78,0,0,0-.74-.16,1.59,1.59,0,0,0-.77.18,1.29,1.29,0,0,0-.5.51,1.64,1.64,0,0,0-.17.76H820a2.4,2.4,0,0,1,.34-1.3,2.3,2.3,0,0,1,.94-.86,2.8,2.8,0,0,1,1.35-.31,2.92,2.92,0,0,1,1.35.3,2.39,2.39,0,0,1,.92.83,2.16,2.16,0,0,1,.33,1.18,2.46,2.46,0,0,1-.17.88,3.93,3.93,0,0,1-.59,1,14.09,14.09,0,0,1-1.16,1.28l-1.61,1.69v.06h3.66V393Z" transform="translate(-533.08 -368.81)"/><path class="cls-2" d="M826.84,393v-.89l2.75-2.86c.29-.31.54-.58.73-.81a3.1,3.1,0,0,0,.43-.67,1.56,1.56,0,0,0,.14-.68,1.25,1.25,0,0,0-.19-.7,1.23,1.23,0,0,0-.52-.46,1.78,1.78,0,0,0-.74-.16,1.53,1.53,0,0,0-.76.18,1.17,1.17,0,0,0-.5.51,1.53,1.53,0,0,0-.18.76h-1.17a2.4,2.4,0,0,1,.34-1.3,2.3,2.3,0,0,1,.94-.86,2.83,2.83,0,0,1,1.35-.31,3,3,0,0,1,1.36.3,2.36,2.36,0,0,1,.91.83,2.16,2.16,0,0,1,.33,1.18,2.46,2.46,0,0,1-.17.88,4.18,4.18,0,0,1-.58,1c-.28.35-.67.78-1.16,1.28l-1.62,1.69v.06h3.66V393Z" transform="translate(-533.08 -368.81)"/></g></g><path class="cls-2" d="M552.81,379.8H547a4.13,4.13,0,0,0-.32-1.31,3.32,3.32,0,0,0-.72-1,3.09,3.09,0,0,0-1.1-.65,4.28,4.28,0,0,0-1.47-.24,4.15,4.15,0,0,0-2.43.7,4.32,4.32,0,0,0-1.5,2,10.07,10.07,0,0,0,0,6.36,4,4,0,0,0,1.5,1.95,4.18,4.18,0,0,0,2.38.65,4.41,4.41,0,0,0,1.41-.2,3.12,3.12,0,0,0,1.85-1.5,3.82,3.82,0,0,0,.39-1.21l5.8,0a7.83,7.83,0,0,1-.75,2.71,8.88,8.88,0,0,1-4.77,4.43A11.75,11.75,0,0,1,538,392a9,9,0,0,1-3.63-3.66,12.11,12.11,0,0,1-1.33-5.9,11.94,11.94,0,0,1,1.36-5.92,9.06,9.06,0,0,1,3.66-3.65,10.58,10.58,0,0,1,5.13-1.24,11.63,11.63,0,0,1,3.67.55,8.85,8.85,0,0,1,2.94,1.58,7.9,7.9,0,0,1,2,2.57A9.4,9.4,0,0,1,552.81,379.8Z" transform="translate(-533.08 -368.81)"/><path class="cls-2" d="M555.1,377.07v-8.26h5.47v8.26m.2,11v8.87H555.1V384.14h5.47m.16-4a4.67,4.67,0,0,1,1.78-2.36,5.21,5.21,0,0,1,3-.85,5.53,5.53,0,0,1,2.91.76,5.27,5.27,0,0,1,1.92,2.1,6.56,6.56,0,0,1,.67,3.06V393h-5.67v-8.88a2.61,2.61,0,0,0-.58-1.84,2.13,2.13,0,0,0-1.68-.66,2.39,2.39,0,0,0-1.21.3,2.08,2.08,0,0,0-.8.86,3.19,3.19,0,0,0-.29,1.34" transform="translate(-533.08 -368.81)"/><path class="cls-2" d="M573.42,393V377.17h5.51v3h.16a4.53,4.53,0,0,1,1.37-2.44,3.39,3.39,0,0,1,2.2-.77,4.52,4.52,0,0,1,.74.06,5.1,5.1,0,0,1,.7.16V382a4.81,4.81,0,0,0-1-.22,8.75,8.75,0,0,0-1-.07,3,3,0,0,0-1.5.37,2.69,2.69,0,0,0-1,1,3.21,3.21,0,0,0-.38,1.58V393Z" transform="translate(-533.08 -368.81)"/><path class="cls-2" d="M585.57,393V377.17h5.68V393Zm2.84-17.42a2.83,2.83,0,0,1-2-.76,2.45,2.45,0,0,1,0-3.66,2.95,2.95,0,0,1,3.95,0,2.47,2.47,0,0,1,0,3.66A2.85,2.85,0,0,1,588.41,375.53Z" transform="translate(-533.08 -368.81)"/><path class="cls-2" d="M608.17,382.31H603a1.47,1.47,0,0,0-.34-.84,2,2,0,0,0-.77-.54,2.82,2.82,0,0,0-1-.19,2.71,2.71,0,0,0-1.25.27.8.8,0,0,0-.51.76.84.84,0,0,0,.3.65,2.46,2.46,0,0,0,1.22.46l3.2.58a7.34,7.34,0,0,1,3.61,1.48,3.57,3.57,0,0,1,1.2,2.79,4.59,4.59,0,0,1-1,2.92,6.34,6.34,0,0,1-2.71,1.91,10.54,10.54,0,0,1-3.89.67,9.54,9.54,0,0,1-5.66-1.47,5.25,5.25,0,0,1-2.27-3.91h5.63a1.59,1.59,0,0,0,.74,1.16,3.37,3.37,0,0,0,2.89.14.87.87,0,0,0,.52-.76.84.84,0,0,0-.45-.72,4.09,4.09,0,0,0-1.36-.43l-2.8-.5a6.63,6.63,0,0,1-3.61-1.6,4,4,0,0,1-1.19-3,4.4,4.4,0,0,1,.86-2.79,5.57,5.57,0,0,1,2.52-1.75,11.32,11.32,0,0,1,3.89-.6,9.15,9.15,0,0,1,5.4,1.42A4.85,4.85,0,0,1,608.17,382.31Z" transform="translate(-533.08 -368.81)"/><path class="cls-2" d="M619.79,377.17v4.11h-10.4v-4.11Zm-8.38-3.78h5.67v14.48a1.15,1.15,0,0,0,.11.55.67.67,0,0,0,.35.33,1.5,1.5,0,0,0,.6.11,3.58,3.58,0,0,0,.61-.06l.5-.11.83,4c-.26.08-.62.17-1.09.28a9.24,9.24,0,0,1-1.67.21,7.93,7.93,0,0,1-3.27-.4,3.9,3.9,0,0,1-2-1.61,5.07,5.07,0,0,1-.64-2.75Z" transform="translate(-533.08 -368.81)"/><path class="cls-2" d="M621.71,393V377.17h5.67V393Zm2.84-17.42a2.81,2.81,0,0,1-2-.76,2.43,2.43,0,0,1,0-3.66,2.93,2.93,0,0,1,3.94,0,2.45,2.45,0,0,1,0,3.66A2.81,2.81,0,0,1,624.55,375.53Z" transform="translate(-533.08 -368.81)"/><path class="cls-2" d="M634.28,393.19a6.73,6.73,0,0,1-2.67-.49,4,4,0,0,1-1.81-1.52,4.67,4.67,0,0,1-.66-2.59,5.12,5.12,0,0,1,.44-2.21,4.07,4.07,0,0,1,1.24-1.51,5.63,5.63,0,0,1,1.84-.89,10.62,10.62,0,0,1,2.28-.4c.88-.07,1.59-.15,2.13-.25a2.83,2.83,0,0,0,1.16-.42.89.89,0,0,0,.36-.73v0a1,1,0,0,0-.47-.94,2.06,2.06,0,0,0-1.21-.33,2.31,2.31,0,0,0-1.32.35,1.52,1.52,0,0,0-.61,1.09h-5.22a5.35,5.35,0,0,1,.92-2.66,5.66,5.66,0,0,1,2.39-1.95A9.2,9.2,0,0,1,637,377a10.92,10.92,0,0,1,3,.4,7.07,7.07,0,0,1,2.29,1.1,5,5,0,0,1,1.44,1.64,4.22,4.22,0,0,1,.5,2V393H639v-2.22h-.12a4.73,4.73,0,0,1-1.15,1.43,4.28,4.28,0,0,1-1.53.79A7,7,0,0,1,634.28,393.19Zm1.85-3.57a2.78,2.78,0,0,0,1.21-.27,2.33,2.33,0,0,0,.93-.77,2,2,0,0,0,.36-1.22V386c-.15.07-.31.12-.47.18l-.54.15-.59.14-.66.11a3.46,3.46,0,0,0-1.07.33,1.72,1.72,0,0,0-.62.57,1.44,1.44,0,0,0-.2.74,1.19,1.19,0,0,0,.47,1A1.9,1.9,0,0,0,636.13,389.62Z" transform="translate(-533.08 -368.81)"/><path class="cls-2" d="M652.27,384.07V393H646.6V377.17H652v3h.17a4.39,4.39,0,0,1,1.81-2.35,5.38,5.38,0,0,1,3-.86,5.46,5.46,0,0,1,2.92.77,5.27,5.27,0,0,1,1.92,2.1,6.55,6.55,0,0,1,.67,3.05V393h-5.67v-8.88a2.61,2.61,0,0,0-.59-1.84,2.15,2.15,0,0,0-1.67-.66,2.4,2.4,0,0,0-1.22.3,2,2,0,0,0-.79.86A3,3,0,0,0,652.27,384.07Z" transform="translate(-533.08 -368.81)"/><path class="cls-2" d="M678.31,393h-8.1v-21h8a11.8,11.8,0,0,1,5.62,1.26,8.76,8.76,0,0,1,3.65,3.61,13,13,0,0,1,0,11.29,8.82,8.82,0,0,1-3.64,3.62A11.6,11.6,0,0,1,678.31,393Zm-2.39-4.85h2.18a6.52,6.52,0,0,0,2.67-.5,3.48,3.48,0,0,0,1.68-1.74,10.35,10.35,0,0,0,0-6.86,3.45,3.45,0,0,0-1.73-1.74,6.89,6.89,0,0,0-2.77-.5h-2Z" transform="translate(-533.08 -368.81)"/><path class="cls-2" d="M698.68,393.23a9.07,9.07,0,0,1-4.35-1,6.63,6.63,0,0,1-2.81-2.79,9.16,9.16,0,0,1-1-4.37,8.8,8.8,0,0,1,1-4.27,7.06,7.06,0,0,1,2.78-2.85,8.49,8.49,0,0,1,4.25-1,8.93,8.93,0,0,1,3.23.56,6.74,6.74,0,0,1,2.48,1.61,7.19,7.19,0,0,1,1.58,2.55,9.66,9.66,0,0,1,.55,3.38v1.31H692.31v-3.12h8.87a2.21,2.21,0,0,0-.34-1.2,2.4,2.4,0,0,0-.89-.81,2.79,2.79,0,0,0-1.27-.29,2.85,2.85,0,0,0-1.27.29,2.38,2.38,0,0,0-.91.81,2.18,2.18,0,0,0-.37,1.2v3.37a2.87,2.87,0,0,0,.32,1.36,2.39,2.39,0,0,0,.91.93,2.84,2.84,0,0,0,1.44.34,3.4,3.4,0,0,0,1.08-.17,2.19,2.19,0,0,0,.83-.47,1.91,1.91,0,0,0,.52-.76h5.17a5.88,5.88,0,0,1-1.26,2.85,6.37,6.37,0,0,1-2.64,1.87A10.15,10.15,0,0,1,698.68,393.23Z" transform="translate(-533.08 -368.81)"/><path class="cls-2" d="M722.75,382.31h-5.22a1.47,1.47,0,0,0-.34-.84,2,2,0,0,0-.76-.54,2.91,2.91,0,0,0-1-.19,2.71,2.71,0,0,0-1.25.27.8.8,0,0,0-.51.76.84.84,0,0,0,.3.65,2.51,2.51,0,0,0,1.22.46l3.2.58a7.34,7.34,0,0,1,3.61,1.48,3.57,3.57,0,0,1,1.2,2.79,4.59,4.59,0,0,1-1,2.92,6.31,6.31,0,0,1-2.7,1.91,10.56,10.56,0,0,1-3.9.67,9.54,9.54,0,0,1-5.66-1.47,5.29,5.29,0,0,1-2.27-3.91h5.63A1.59,1.59,0,0,0,714,389a2.92,2.92,0,0,0,1.6.4,2.87,2.87,0,0,0,1.29-.26.87.87,0,0,0,.52-.76.84.84,0,0,0-.45-.72,4,4,0,0,0-1.36-.43l-2.79-.5a6.66,6.66,0,0,1-3.62-1.6,4,4,0,0,1-1.19-3,4.34,4.34,0,0,1,.87-2.79,5.49,5.49,0,0,1,2.51-1.75,11.36,11.36,0,0,1,3.89-.6,9.15,9.15,0,0,1,5.4,1.42A4.83,4.83,0,0,1,722.75,382.31Z" transform="translate(-533.08 -368.81)"/><path class="cls-2" d="M725,393V377.17h5.67V393Zm2.84-17.42a2.85,2.85,0,0,1-2-.76,2.45,2.45,0,0,1,0-3.66,2.81,2.81,0,0,1,2-.76,2.76,2.76,0,0,1,2,.76,2.45,2.45,0,0,1,0,3.66A2.81,2.81,0,0,1,727.8,375.53Z" transform="translate(-533.08 -368.81)"/><path class="cls-2" d="M740.73,399.19a11,11,0,0,1-4.06-.67,6.17,6.17,0,0,1-2.62-1.85,4.77,4.77,0,0,1-1-2.7h5.46a1.43,1.43,0,0,0,.41.82,2,2,0,0,0,.85.44,4.69,4.69,0,0,0,1.17.14,3,3,0,0,0,1.82-.53,2.27,2.27,0,0,0,.72-1.93v-2.67h-.16a3.5,3.5,0,0,1-.95,1.36,4.37,4.37,0,0,1-1.53.85,6.4,6.4,0,0,1-2,.29,6.28,6.28,0,0,1-3.09-.78,5.46,5.46,0,0,1-2.26-2.47,9.88,9.88,0,0,1-.85-4.43,10.31,10.31,0,0,1,.89-4.64,6,6,0,0,1,2.3-2.62,5.71,5.71,0,0,1,3-.84,4.92,4.92,0,0,1,2.06.41,4.35,4.35,0,0,1,1.47,1.08,4.93,4.93,0,0,1,.91,1.47h.12v-2.75H749v15.74a5.56,5.56,0,0,1-1,3.4,6.41,6.41,0,0,1-2.9,2.14A11.7,11.7,0,0,1,740.73,399.19Zm.21-10.48a2.13,2.13,0,0,0,1.34-.43,2.77,2.77,0,0,0,.86-1.25,5.75,5.75,0,0,0,.3-2,6,6,0,0,0-.3-2,2.76,2.76,0,0,0-.86-1.28,2.09,2.09,0,0,0-1.34-.45,2,2,0,0,0-1.33.45,2.66,2.66,0,0,0-.84,1.28,6,6,0,0,0-.3,2,5.83,5.83,0,0,0,.3,2,2.63,2.63,0,0,0,.84,1.24A2.11,2.11,0,0,0,740.94,388.71Z" transform="translate(-533.08 -368.81)"/><path class="cls-2" d="M757.2,384.07V393h-5.67V377.17h5.38v3h.17a4.44,4.44,0,0,1,1.81-2.35,5.84,5.84,0,0,1,6-.09,5.27,5.27,0,0,1,1.92,2.1,6.43,6.43,0,0,1,.67,3.05V393h-5.67v-8.88a2.61,2.61,0,0,0-.59-1.84,2.13,2.13,0,0,0-1.67-.66,2.36,2.36,0,0,0-1.21.3,2,2,0,0,0-.8.86A3,3,0,0,0,757.2,384.07Z" transform="translate(-533.08 -368.81)"/><path class="cls-2" d="M784.27,382.31h-5.22a1.46,1.46,0,0,0-.33-.84,2.06,2.06,0,0,0-.77-.54,2.86,2.86,0,0,0-1-.19,2.73,2.73,0,0,0-1.26.27.81.81,0,0,0-.51.76.88.88,0,0,0,.3.65,2.51,2.51,0,0,0,1.22.46l3.21.58a7.38,7.38,0,0,1,3.61,1.48,3.53,3.53,0,0,1,1.19,2.79,4.53,4.53,0,0,1-1,2.92,6.31,6.31,0,0,1-2.7,1.91,10.56,10.56,0,0,1-3.9.67,9.51,9.51,0,0,1-5.65-1.47,5.3,5.3,0,0,1-2.28-3.91h5.63a1.63,1.63,0,0,0,.75,1.16,3.35,3.35,0,0,0,2.88.14.87.87,0,0,0,.52-.76.82.82,0,0,0-.45-.72,4,4,0,0,0-1.36-.43l-2.79-.5a6.7,6.7,0,0,1-3.62-1.6,4.08,4.08,0,0,1-1.19-3,4.4,4.4,0,0,1,.87-2.79,5.52,5.52,0,0,1,2.52-1.75,11.26,11.26,0,0,1,3.88-.6,9.13,9.13,0,0,1,5.4,1.42A4.83,4.83,0,0,1,784.27,382.31Z" transform="translate(-533.08 -368.81)"/></svg>