<svg id="Layer_1" data-name="Layer 1" xmlns="http://www.w3.org/2000/svg" viewBox="0 0 507.9 51.59"><defs><style>.cls-1{isolation:isolate;}.cls-2{fill:#fff;}</style></defs><g id="_2021_Georges_Perec" data-name=" 2021 Georges Perec" class="cls-1"><g class="cls-1"><path class="cls-2" d="M876.61,399.41a7,7,0,0,1-5-2.09,7.41,7.41,0,0,1-1.54-2.27,6.92,6.92,0,0,1-.55-2.77,7.1,7.1,0,0,1,.57-2.76,7.21,7.21,0,0,1,1.53-2.27,7.08,7.08,0,0,1,2.27-1.54,7.23,7.23,0,0,1,5.53,0,7.08,7.08,0,0,1,2.27,1.54,7.18,7.18,0,0,1,1.52,2.27,6.91,6.91,0,0,1,.56,2.76,6.75,6.75,0,0,1-.54,2.77,7.21,7.21,0,0,1-1.53,2.27,7.05,7.05,0,0,1-5,2.09Zm0-1.8a5.18,5.18,0,0,0,2.08-.41,5.64,5.64,0,0,0,1.7-1.14,5.49,5.49,0,0,0,1.15-1.7,5.34,5.34,0,0,0,.4-2.07,5.19,5.19,0,0,0-.42-2.08,5.29,5.29,0,0,0-2.84-2.84,5.11,5.11,0,0,0-2.07-.42,5.18,5.18,0,0,0-2.07.42,5.25,5.25,0,0,0-1.69,1.14,5.42,5.42,0,0,0-1.15,1.71,5.29,5.29,0,0,0-.43,2.07,5.09,5.09,0,0,0,.42,2.06,5.35,5.35,0,0,0,1.14,1.7,5.42,5.42,0,0,0,1.71,1.15A5.1,5.1,0,0,0,876.61,397.61Zm-3.88-5.33a3.86,3.86,0,0,1,.53-2,4.08,4.08,0,0,1,1.43-1.43,4,4,0,0,1,3.73-.12,3.8,3.8,0,0,1,1.33,1.12,3.37,3.37,0,0,1,.64,1.59h-1.76a1.62,1.62,0,0,0-.68-1,2.26,2.26,0,0,0-2.41-.1,2.38,2.38,0,0,0-.82.82,2.2,2.2,0,0,0-.3,1.13,2.15,2.15,0,0,0,.3,1.13,2.38,2.38,0,0,0,.82.82,2.11,2.11,0,0,0,1.13.31,1.94,1.94,0,0,0,1.22-.4,1.74,1.74,0,0,0,.64-1h1.75a3.55,3.55,0,0,1-.61,1.59,3.74,3.74,0,0,1-1.28,1.12,3.66,3.66,0,0,1-1.72.4,3.85,3.85,0,0,1-2-.52,4.08,4.08,0,0,1-1.43-1.43A3.85,3.85,0,0,1,872.73,392.28Z" transform="translate(-428.44 -358.2)"/><path class="cls-2" d="M891.66,399.19v-1.51l4.68-4.84c.5-.53.91-1,1.24-1.39a5.39,5.39,0,0,0,.73-1.14,2.78,2.78,0,0,0,.24-1.14,2.18,2.18,0,0,0-.32-1.19,2.11,2.11,0,0,0-.89-.78,2.84,2.84,0,0,0-1.26-.27,2.64,2.64,0,0,0-1.29.3,2,2,0,0,0-.85.86,2.67,2.67,0,0,0-.3,1.29h-2a4.08,4.08,0,0,1,.58-2.2,4,4,0,0,1,1.59-1.47,5.39,5.39,0,0,1,4.6,0,3.92,3.92,0,0,1,1.55,1.41,3.59,3.59,0,0,1,.56,2,4.11,4.11,0,0,1-.28,1.5,6.74,6.74,0,0,1-1,1.64,26.61,26.61,0,0,1-2,2.18l-2.74,2.87v.11h6.22v1.78Z" transform="translate(-428.44 -358.2)"/><path class="cls-2" d="M908.12,399.42a4.47,4.47,0,0,1-2.73-.84,5.23,5.23,0,0,1-1.73-2.44,12.62,12.62,0,0,1,0-7.69A5.2,5.2,0,0,1,905.4,386a4.85,4.85,0,0,1,5.44,0,5.2,5.2,0,0,1,1.74,2.43,10.79,10.79,0,0,1,.61,3.83,11,11,0,0,1-.61,3.86,5.18,5.18,0,0,1-1.73,2.43A4.45,4.45,0,0,1,908.12,399.42Zm0-1.8a2.43,2.43,0,0,0,2.2-1.37,8,8,0,0,0,.79-4,10.13,10.13,0,0,0-.36-2.91,4,4,0,0,0-1-1.81,2.3,2.3,0,0,0-1.6-.62,2.43,2.43,0,0,0-2.19,1.38,8,8,0,0,0-.8,4,10.2,10.2,0,0,0,.36,2.92,3.91,3.91,0,0,0,1,1.8A2.27,2.27,0,0,0,908.12,397.62Z" transform="translate(-428.44 -358.2)"/><path class="cls-2" d="M915.59,399.19v-1.51l4.67-4.84c.5-.53.92-1,1.24-1.39a5,5,0,0,0,.73-1.14,2.63,2.63,0,0,0,.25-1.14,2.13,2.13,0,0,0-1.21-2,2.91,2.91,0,0,0-1.26-.27,2.68,2.68,0,0,0-1.3.3,2.07,2.07,0,0,0-.85.86,2.67,2.67,0,0,0-.3,1.29h-2a4.17,4.17,0,0,1,.58-2.2,4,4,0,0,1,1.6-1.47,5.37,5.37,0,0,1,4.59,0,3.88,3.88,0,0,1,1.56,1.41,3.67,3.67,0,0,1,.56,2,4.12,4.12,0,0,1-.29,1.5,6.67,6.67,0,0,1-1,1.64,26.61,26.61,0,0,1-2,2.18l-2.75,2.87v.11h6.22v1.78Z" transform="translate(-428.44 -358.2)"/><path class="cls-2" d="M927.24,399.19v-1.51l4.68-4.84c.5-.53.91-1,1.23-1.39a5.47,5.47,0,0,0,.74-1.14,2.78,2.78,0,0,0,.24-1.14,2.13,2.13,0,0,0-1.21-2,2.84,2.84,0,0,0-1.26-.27,2.68,2.68,0,0,0-1.3.3,2.13,2.13,0,0,0-.85.86,2.79,2.79,0,0,0-.29,1.29h-2a4.08,4.08,0,0,1,.58-2.2,3.9,3.9,0,0,1,1.59-1.47,4.9,4.9,0,0,1,2.3-.52,5,5,0,0,1,2.3.51,3.92,3.92,0,0,1,1.55,1.41,3.59,3.59,0,0,1,.56,2,4.11,4.11,0,0,1-.28,1.5,7.07,7.07,0,0,1-1,1.64,26.61,26.61,0,0,1-2,2.18l-2.75,2.87v.11h6.22v1.78Z" transform="translate(-428.44 -358.2)"/></g></g><path class="cls-2" d="M461.93,376.87h-9.84a6.7,6.7,0,0,0-.55-2.22,5.39,5.39,0,0,0-1.22-1.72,5.33,5.33,0,0,0-1.88-1.11,7.15,7.15,0,0,0-2.49-.4,7,7,0,0,0-4.13,1.19,7.18,7.18,0,0,0-2.54,3.4,14.57,14.57,0,0,0-.87,5.32,15,15,0,0,0,.88,5.49,6.89,6.89,0,0,0,2.56,3.31,7.14,7.14,0,0,0,4,1.11,7.84,7.84,0,0,0,2.41-.34,5.61,5.61,0,0,0,1.84-1,5.13,5.13,0,0,0,1.29-1.56,6.38,6.38,0,0,0,.67-2.07l9.84.07a13.43,13.43,0,0,1-1.28,4.62,15,15,0,0,1-3.11,4.32,15.18,15.18,0,0,1-5,3.19,19.86,19.86,0,0,1-15.71-.91,15.2,15.2,0,0,1-6.15-6.21,20.46,20.46,0,0,1-2.26-10,20.13,20.13,0,0,1,2.3-10.05,15.44,15.44,0,0,1,6.21-6.2,18.1,18.1,0,0,1,8.72-2.1,20,20,0,0,1,6.23.93,15.11,15.11,0,0,1,5,2.69,13.41,13.41,0,0,1,3.45,4.35A16.05,16.05,0,0,1,461.93,376.87Z" transform="translate(-428.44 -358.2)"/><path class="cls-2" d="M465.82,372.23v-14h9.28v14m.35,18.64v15.07h-9.63v-21.7h9.28m.28-6.75a7.83,7.83,0,0,1,3-4,8.77,8.77,0,0,1,5.07-1.44,9.27,9.27,0,0,1,4.95,1.29,8.76,8.76,0,0,1,3.26,3.56,11.18,11.18,0,0,1,1.14,5.2v17.09h-9.63V384.12a4.45,4.45,0,0,0-1-3.12,3.59,3.59,0,0,0-2.85-1.13,4,4,0,0,0-2.05.51,3.4,3.4,0,0,0-1.36,1.47,5.1,5.1,0,0,0-.5,2.27" transform="translate(-428.44 -358.2)"/><path class="cls-2" d="M496.93,399.19V372.4h9.35v5.09h.28a7.6,7.6,0,0,1,2.32-4.13,5.77,5.77,0,0,1,3.75-1.31,7.41,7.41,0,0,1,1.24.1,7.76,7.76,0,0,1,1.2.27v8.21a8.9,8.9,0,0,0-1.76-.36,16.2,16.2,0,0,0-1.8-.12,5.12,5.12,0,0,0-2.54.63,4.66,4.66,0,0,0-1.77,1.78,5.37,5.37,0,0,0-.64,2.68v13.95Z" transform="translate(-428.44 -358.2)"/><path class="cls-2" d="M517.57,399.19V372.4h9.63v26.79Zm4.81-29.58a4.77,4.77,0,0,1-3.35-1.29,4.16,4.16,0,0,1,0-6.21,5,5,0,0,1,6.71,0,4.16,4.16,0,0,1,0,6.21A4.74,4.74,0,0,1,522.38,369.61Z" transform="translate(-428.44 -358.2)"/><path class="cls-2" d="M555.93,381.12h-8.86a2.44,2.44,0,0,0-.58-1.41,3.27,3.27,0,0,0-1.3-.92,4.66,4.66,0,0,0-1.75-.32,4.71,4.71,0,0,0-2.13.45,1.39,1.39,0,0,0-.87,1.29,1.42,1.42,0,0,0,.52,1.1,4.19,4.19,0,0,0,2.06.79l5.45,1a12.7,12.7,0,0,1,6.13,2.52,6,6,0,0,1,2,4.73,7.77,7.77,0,0,1-1.7,5,10.73,10.73,0,0,1-4.59,3.25,18,18,0,0,1-6.62,1.14q-6.13,0-9.6-2.51a8.93,8.93,0,0,1-3.86-6.63h9.55a2.7,2.7,0,0,0,1.27,2,4.91,4.91,0,0,0,2.71.69,4.74,4.74,0,0,0,2.19-.45,1.43,1.43,0,0,0,.88-1.29,1.4,1.4,0,0,0-.76-1.22,6.77,6.77,0,0,0-2.31-.74l-4.74-.83a11.39,11.39,0,0,1-6.14-2.72,6.89,6.89,0,0,1-2-5.17,7.42,7.42,0,0,1,1.48-4.73,9.18,9.18,0,0,1,4.27-3,19.19,19.19,0,0,1,6.6-1q5.81,0,9.17,2.41A8.18,8.18,0,0,1,555.93,381.12Z" transform="translate(-428.44 -358.2)"/><path class="cls-2" d="M575.66,372.4v7H558v-7ZM561.43,366h9.63v24.6a2,2,0,0,0,.19.93,1.28,1.28,0,0,0,.59.56,2.54,2.54,0,0,0,1,.18,5.82,5.82,0,0,0,1-.1q.58-.11.87-.18l1.39,6.77c-.43.13-1,.28-1.84.47a16.13,16.13,0,0,1-2.83.37,13.83,13.83,0,0,1-5.57-.69,6.61,6.61,0,0,1-3.38-2.73,8.68,8.68,0,0,1-1.1-4.68Z" transform="translate(-428.44 -358.2)"/><path class="cls-2" d="M578.93,399.19V372.4h9.63v26.79Zm4.82-29.58a4.75,4.75,0,0,1-3.35-1.29,4.14,4.14,0,0,1,0-6.21,5,5,0,0,1,6.7,0,4.16,4.16,0,0,1,0,6.21A4.73,4.73,0,0,1,583.75,369.61Z" transform="translate(-428.44 -358.2)"/><path class="cls-2" d="M600.27,399.61a11.26,11.26,0,0,1-4.53-.85,6.81,6.81,0,0,1-3.08-2.57,8,8,0,0,1-1.11-4.39,8.6,8.6,0,0,1,.75-3.76,6.89,6.89,0,0,1,2.09-2.56,9.79,9.79,0,0,1,3.13-1.51,19,19,0,0,1,3.87-.69,34.55,34.55,0,0,0,3.62-.42,4.73,4.73,0,0,0,2-.72,1.47,1.47,0,0,0,.62-1.23v-.07a1.83,1.83,0,0,0-.81-1.6,3.53,3.53,0,0,0-2.06-.56,3.87,3.87,0,0,0-2.24.6,2.55,2.55,0,0,0-1,1.84h-8.87a9.13,9.13,0,0,1,1.57-4.51,9.64,9.64,0,0,1,4.05-3.31,15.74,15.74,0,0,1,6.66-1.25,18.67,18.67,0,0,1,5.17.67,12.24,12.24,0,0,1,3.89,1.87,8.49,8.49,0,0,1,2.45,2.79,7.31,7.31,0,0,1,.84,3.46v18.35h-9v-3.77H608a7.8,7.8,0,0,1-1.94,2.43,7.23,7.23,0,0,1-2.6,1.34A11.53,11.53,0,0,1,600.27,399.61Zm3.14-6.07a4.88,4.88,0,0,0,2.07-.45,3.93,3.93,0,0,0,1.57-1.31,3.46,3.46,0,0,0,.62-2.08v-2.23c-.26.11-.53.2-.82.3s-.58.18-.9.26l-1,.23-1.11.19A5.49,5.49,0,0,0,602,389a2.86,2.86,0,0,0-1,1,2.39,2.39,0,0,0-.34,1.27,2,2,0,0,0,.78,1.71A3.28,3.28,0,0,0,603.41,393.54Z" transform="translate(-428.44 -358.2)"/><path class="cls-2" d="M630.82,384.12v15.07h-9.63V372.4h9.14v5.09h.28a7.61,7.61,0,0,1,3.08-4,9.14,9.14,0,0,1,5.15-1.45,9.3,9.3,0,0,1,4.95,1.3,8.93,8.93,0,0,1,3.26,3.57,11.12,11.12,0,0,1,1.14,5.18v17.09h-9.63V384.12a4.45,4.45,0,0,0-1-3.12,3.61,3.61,0,0,0-2.84-1.13,4,4,0,0,0-2.06.51,3.32,3.32,0,0,0-1.35,1.47A5.1,5.1,0,0,0,630.82,384.12Z" transform="translate(-428.44 -358.2)"/><path class="cls-2" d="M675,399.19H661.28V363.47h13.61a20,20,0,0,1,9.53,2.14,14.88,14.88,0,0,1,6.21,6.14,22.12,22.12,0,0,1,0,19.17,14.93,14.93,0,0,1-6.18,6.14A19.74,19.74,0,0,1,675,399.19ZM671,391h3.7a10.86,10.86,0,0,0,4.53-.86,5.78,5.78,0,0,0,2.86-2.94,14.12,14.12,0,0,0,1-5.83,13.69,13.69,0,0,0-1-5.82,5.85,5.85,0,0,0-2.93-2.95,11.64,11.64,0,0,0-4.72-.86H671Z" transform="translate(-428.44 -358.2)"/><path class="cls-2" d="M709.62,399.68a15.47,15.47,0,0,1-7.38-1.65,11.36,11.36,0,0,1-4.77-4.74,15.49,15.49,0,0,1-1.66-7.42,15.14,15.14,0,0,1,1.67-7.26,12,12,0,0,1,4.73-4.83,14.4,14.4,0,0,1,7.2-1.73,15.44,15.44,0,0,1,5.5.94,11.58,11.58,0,0,1,4.2,2.73,12.3,12.3,0,0,1,2.69,4.34,16.42,16.42,0,0,1,.94,5.74V388H698.81v-5.3h15.07a3.78,3.78,0,0,0-.59-2,3.92,3.92,0,0,0-1.51-1.37,4.87,4.87,0,0,0-4.3,0,4,4,0,0,0-1.56,1.37,3.75,3.75,0,0,0-.62,2v5.72a4.79,4.79,0,0,0,.54,2.3,4,4,0,0,0,1.55,1.59,4.89,4.89,0,0,0,2.44.57,5.56,5.56,0,0,0,1.82-.28,3.87,3.87,0,0,0,1.43-.81,3.24,3.24,0,0,0,.87-1.28h8.79a9.94,9.94,0,0,1-2.15,4.84,11,11,0,0,1-4.47,3.18A17.25,17.25,0,0,1,709.62,399.68Z" transform="translate(-428.44 -358.2)"/><path class="cls-2" d="M750.5,381.12h-8.86a2.44,2.44,0,0,0-.58-1.41,3.34,3.34,0,0,0-1.3-.92,5.12,5.12,0,0,0-3.88.13,1.39,1.39,0,0,0-.87,1.29,1.44,1.44,0,0,0,.51,1.1,4.28,4.28,0,0,0,2.07.79l5.44,1a12.66,12.66,0,0,1,6.13,2.52,6,6,0,0,1,2,4.73,7.71,7.71,0,0,1-1.7,5,10.7,10.7,0,0,1-4.58,3.25,18.05,18.05,0,0,1-6.62,1.14q-6.15,0-9.61-2.51a9,9,0,0,1-3.86-6.63h9.56a2.72,2.72,0,0,0,1.26,2,5,5,0,0,0,2.72.69,4.74,4.74,0,0,0,2.19-.45,1.46,1.46,0,0,0,.88-1.29,1.44,1.44,0,0,0-.76-1.22,6.93,6.93,0,0,0-2.31-.74l-4.75-.83a11.42,11.42,0,0,1-6.14-2.72,6.89,6.89,0,0,1-2-5.17,7.48,7.48,0,0,1,1.47-4.73,9.21,9.21,0,0,1,4.28-3,19.15,19.15,0,0,1,6.6-1c3.87,0,6.93.8,9.16,2.41A8.19,8.19,0,0,1,750.5,381.12Z" transform="translate(-428.44 -358.2)"/><path class="cls-2" d="M754.25,399.19V372.4h9.63v26.79Zm4.82-29.58a4.75,4.75,0,0,1-3.35-1.29,4.14,4.14,0,0,1,0-6.21,5,5,0,0,1,6.7,0,4.16,4.16,0,0,1,0,6.21A4.73,4.73,0,0,1,759.07,369.61Z" transform="translate(-428.44 -358.2)"/><path class="cls-2" d="M781,409.8a18.53,18.53,0,0,1-6.9-1.15,10.32,10.32,0,0,1-4.44-3.14,8.06,8.06,0,0,1-1.77-4.57h9.27a2.35,2.35,0,0,0,.7,1.37,3.21,3.21,0,0,0,1.44.76,7.57,7.57,0,0,0,2,.24,5,5,0,0,0,3.1-.91,3.83,3.83,0,0,0,1.23-3.28v-4.53h-.28a5.93,5.93,0,0,1-1.61,2.31,7.46,7.46,0,0,1-2.6,1.45,11.3,11.3,0,0,1-8.59-.83,9.51,9.51,0,0,1-3.83-4.21,16.8,16.8,0,0,1-1.44-7.51,17.72,17.72,0,0,1,1.51-7.89,10.28,10.28,0,0,1,3.9-4.45,9.84,9.84,0,0,1,5-1.41,8.26,8.26,0,0,1,3.49.69,7.44,7.44,0,0,1,2.51,1.83,8.1,8.1,0,0,1,1.54,2.51h.21V372.4h9.63v26.72a9.45,9.45,0,0,1-1.76,5.78,11,11,0,0,1-4.92,3.64A20.05,20.05,0,0,1,781,409.8Zm.35-17.79a3.59,3.59,0,0,0,2.28-.75,4.65,4.65,0,0,0,1.46-2.12,9.49,9.49,0,0,0,.52-3.34,9.82,9.82,0,0,0-.52-3.41,4.75,4.75,0,0,0-1.46-2.18,3.54,3.54,0,0,0-2.28-.76,3.45,3.45,0,0,0-2.26.76,4.7,4.7,0,0,0-1.43,2.18,10.35,10.35,0,0,0-.5,3.41,10.06,10.06,0,0,0,.5,3.37,4.47,4.47,0,0,0,1.43,2.11A3.6,3.6,0,0,0,781.38,392Z" transform="translate(-428.44 -358.2)"/><path class="cls-2" d="M809,384.12v15.07h-9.63V372.4h9.14v5.09h.28a7.61,7.61,0,0,1,3.08-4,9.14,9.14,0,0,1,5.15-1.45,9.27,9.27,0,0,1,5,1.3,8.86,8.86,0,0,1,3.26,3.57,11.12,11.12,0,0,1,1.14,5.18v17.09h-9.63V384.12a4.45,4.45,0,0,0-1-3.12,3.59,3.59,0,0,0-2.83-1.13,4,4,0,0,0-2.07.51,3.32,3.32,0,0,0-1.35,1.47A5.1,5.1,0,0,0,809,384.12Z" transform="translate(-428.44 -358.2)"/><path class="cls-2" d="M855,381.12h-8.86a2.44,2.44,0,0,0-.58-1.41,3.34,3.34,0,0,0-1.3-.92,5.12,5.12,0,0,0-3.88.13,1.39,1.39,0,0,0-.87,1.29,1.44,1.44,0,0,0,.51,1.1,4.28,4.28,0,0,0,2.07.79l5.44,1a12.66,12.66,0,0,1,6.13,2.52,6,6,0,0,1,2,4.73,7.77,7.77,0,0,1-1.7,5,10.7,10.7,0,0,1-4.58,3.25,18.05,18.05,0,0,1-6.62,1.14q-6.15,0-9.61-2.51a9,9,0,0,1-3.86-6.63h9.56a2.72,2.72,0,0,0,1.26,2,5,5,0,0,0,2.72.69,4.67,4.67,0,0,0,2.18-.45,1.37,1.37,0,0,0,.13-2.51,6.93,6.93,0,0,0-2.31-.74l-4.75-.83a11.42,11.42,0,0,1-6.14-2.72,6.89,6.89,0,0,1-2-5.17,7.48,7.48,0,0,1,1.47-4.73,9.21,9.21,0,0,1,4.28-3,19.15,19.15,0,0,1,6.6-1c3.87,0,6.93.8,9.16,2.41A8.19,8.19,0,0,1,855,381.12Z" transform="translate(-428.44 -358.2)"/></svg>