<svg id="Layer_1" data-name="Layer 1" xmlns="http://www.w3.org/2000/svg" viewBox="0 0 349.57 48.3"><defs><style>.cls-1{isolation:isolate;}.cls-2{fill:#fff;}</style></defs><g id="_2021_Georges_Perec" data-name=" 2021 Georges Perec" class="cls-1"><g class="cls-1"><path class="cls-2" d="M288.81,33.22a4.1,4.1,0,0,1-3-1.23,4.37,4.37,0,0,1-.91-1.33,4.23,4.23,0,0,1-.32-1.63,4,4,0,0,1,.33-1.63,4.24,4.24,0,0,1,.91-1.34,4.18,4.18,0,0,1,4.59-.9,4.17,4.17,0,0,1,1.33.9A4.21,4.21,0,0,1,293,29a3.89,3.89,0,0,1-.32,1.63,4.34,4.34,0,0,1-.9,1.33,4.1,4.1,0,0,1-3,1.23Zm0-1a3.13,3.13,0,0,0,2.89-4.36,3.3,3.3,0,0,0-.67-1,3.25,3.25,0,0,0-1-.67,3.12,3.12,0,0,0-3.44.68,3.28,3.28,0,0,0-.68,1,3.32,3.32,0,0,0-.25,1.22,3.17,3.17,0,0,0,.25,1.22,3.25,3.25,0,0,0,.67,1,3.18,3.18,0,0,0,1,.67A3.06,3.06,0,0,0,288.81,32.17ZM286.52,29a2.23,2.23,0,0,1,.32-1.17,2.41,2.41,0,0,1,.84-.84,2.33,2.33,0,0,1,2.19-.07,2.16,2.16,0,0,1,.78.65,1.94,1.94,0,0,1,.38.94h-1a.92.92,0,0,0-.41-.6,1.24,1.24,0,0,0-.75-.24,1.32,1.32,0,0,0-.67.18,1.38,1.38,0,0,0-.48.48,1.29,1.29,0,0,0,0,1.33,1.38,1.38,0,0,0,.48.48,1.26,1.26,0,0,0,.66.18,1.11,1.11,0,0,0,.72-.23,1,1,0,0,0,.37-.61h1a2.2,2.2,0,0,1-.36.94,2.16,2.16,0,0,1-.75.66,2.19,2.19,0,0,1-1,.24,2.31,2.31,0,0,1-1.16-.31,2.41,2.41,0,0,1-.84-.84A2.23,2.23,0,0,1,286.52,29Z"/><path class="cls-2" d="M297.67,33.1v-.89l2.75-2.86c.3-.31.54-.58.73-.81a3.19,3.19,0,0,0,.44-.67,1.76,1.76,0,0,0,.14-.68,1.25,1.25,0,0,0-.19-.7A1.29,1.29,0,0,0,301,26a1.8,1.8,0,0,0-.75-.16,1.55,1.55,0,0,0-.76.18,1.23,1.23,0,0,0-.5.51,1.52,1.52,0,0,0-.17.76h-1.18A2.41,2.41,0,0,1,298,26a2.36,2.36,0,0,1,.93-.87,3,3,0,0,1,1.36-.3,2.92,2.92,0,0,1,1.35.3,2.31,2.31,0,0,1,.92.83,2.16,2.16,0,0,1,.33,1.18,2.46,2.46,0,0,1-.17.88,3.93,3.93,0,0,1-.59,1A15.78,15.78,0,0,1,301,30.29L299.36,32V32H303V33.1Z"/><path class="cls-2" d="M307.37,33.23a2.62,2.62,0,0,1-1.61-.5,2.92,2.92,0,0,1-1-1.43,6.36,6.36,0,0,1-.36-2.27,6.34,6.34,0,0,1,.36-2.26,3.09,3.09,0,0,1,1-1.43,2.87,2.87,0,0,1,3.21,0,3.16,3.16,0,0,1,1,1.43,6.34,6.34,0,0,1,.36,2.26A6.32,6.32,0,0,1,310,31.3a3,3,0,0,1-1,1.44A2.6,2.6,0,0,1,307.37,33.23Zm0-1.06a1.43,1.43,0,0,0,1.29-.81,4.69,4.69,0,0,0,.47-2.33,5.64,5.64,0,0,0-.22-1.71,2.33,2.33,0,0,0-.6-1.07,1.37,1.37,0,0,0-.94-.36,1.45,1.45,0,0,0-1.3.81A4.75,4.75,0,0,0,305.6,29a6.08,6.08,0,0,0,.21,1.72,2.39,2.39,0,0,0,.61,1.06A1.36,1.36,0,0,0,307.37,32.17Z"/><path class="cls-2" d="M311.76,33.1v-.89l2.75-2.86c.3-.31.54-.58.73-.81a2.76,2.76,0,0,0,.43-.67,1.6,1.6,0,0,0,.15-.68,1.25,1.25,0,0,0-.19-.7,1.29,1.29,0,0,0-.52-.46,1.8,1.8,0,0,0-.75-.16,1.55,1.55,0,0,0-.76.18,1.23,1.23,0,0,0-.5.51,1.52,1.52,0,0,0-.17.76h-1.18a2.49,2.49,0,0,1,.34-1.3,2.46,2.46,0,0,1,.94-.87,3,3,0,0,1,1.36-.3,2.92,2.92,0,0,1,1.35.3,2.31,2.31,0,0,1,.92.83,2.16,2.16,0,0,1,.33,1.18,2.46,2.46,0,0,1-.17.88,3.93,3.93,0,0,1-.59,1,15.78,15.78,0,0,1-1.16,1.28L313.45,32V32h3.67V33.1Z"/><path class="cls-2" d="M318.62,33.1v-.89l2.76-2.86c.29-.31.53-.58.73-.81a3.54,3.54,0,0,0,.43-.67,1.76,1.76,0,0,0,.14-.68,1.25,1.25,0,0,0-.19-.7A1.29,1.29,0,0,0,322,26a1.78,1.78,0,0,0-.74-.16,1.57,1.57,0,0,0-.77.18,1.29,1.29,0,0,0-.5.51,1.64,1.64,0,0,0-.17.76h-1.17a2.34,2.34,0,0,1,1.28-2.17,3.19,3.19,0,0,1,2.7,0,2.31,2.31,0,0,1,.92.83,2.16,2.16,0,0,1,.33,1.18,2.46,2.46,0,0,1-.17.88,3.93,3.93,0,0,1-.59,1,14.09,14.09,0,0,1-1.16,1.28L320.32,32V32H324V33.1Z"/></g></g><path class="cls-2" d="M44.59,20H38.8a4.13,4.13,0,0,0-.32-1.31,3.32,3.32,0,0,0-.72-1A3.41,3.41,0,0,0,36.65,17a4.45,4.45,0,0,0-1.47-.23,3.93,3.93,0,0,0-3.92,2.7,8.65,8.65,0,0,0-.51,3.14,8.71,8.71,0,0,0,.52,3.23,4,4,0,0,0,1.5,2,4.25,4.25,0,0,0,2.37.65,4.47,4.47,0,0,0,1.42-.2,3.25,3.25,0,0,0,1.09-.58,2.92,2.92,0,0,0,.75-.92,3.58,3.58,0,0,0,.4-1.22l5.79.05a7.83,7.83,0,0,1-.75,2.71,8.75,8.75,0,0,1-4.76,4.42,10.63,10.63,0,0,1-4.06.71,10.7,10.7,0,0,1-5.19-1.24,9,9,0,0,1-3.63-3.66,12,12,0,0,1-1.33-5.9,11.84,11.84,0,0,1,1.36-5.92A9,9,0,0,1,29.88,13,10.65,10.65,0,0,1,35,11.77a11.63,11.63,0,0,1,3.67.55,8.9,8.9,0,0,1,2.93,1.58,7.8,7.8,0,0,1,2,2.57A9.4,9.4,0,0,1,44.59,20Z"/><path class="cls-2" d="M46.89,17.22V9h5.46v8.26m.21,11v8.87H46.89V24.29h5.46m.17-4A4.65,4.65,0,0,1,54.29,18a5.23,5.23,0,0,1,3-.85,5.55,5.55,0,0,1,2.92.76A5.27,5.27,0,0,1,62.12,20,6.56,6.56,0,0,1,62.79,23V33.1H57.12V24.22a2.66,2.66,0,0,0-.58-1.84,2.16,2.16,0,0,0-1.68-.67,2.39,2.39,0,0,0-1.21.31,2.08,2.08,0,0,0-.8.86,2.91,2.91,0,0,0-.29,1.34"/><path class="cls-2" d="M65.21,33.1V17.32h5.5v3h.17a4.47,4.47,0,0,1,1.37-2.44,3.37,3.37,0,0,1,2.2-.77,4.62,4.62,0,0,1,.74.06,5.47,5.47,0,0,1,.7.16v4.84a5,5,0,0,0-1-.22,8.77,8.77,0,0,0-1.06-.07,3,3,0,0,0-1.49.37,2.69,2.69,0,0,0-1,1.05,3.11,3.11,0,0,0-.38,1.58V33.1Z"/><path class="cls-2" d="M77.36,33.1V17.32H83V33.1ZM80.2,15.67a2.76,2.76,0,0,1-2-.76,2.42,2.42,0,0,1,0-3.65,2.93,2.93,0,0,1,3.94,0,2.44,2.44,0,0,1,0,3.65A2.76,2.76,0,0,1,80.2,15.67Z"/><path class="cls-2" d="M100,22.45H94.74a1.44,1.44,0,0,0-.34-.83,2.06,2.06,0,0,0-.77-.54,2.82,2.82,0,0,0-1-.19,2.68,2.68,0,0,0-1.25.27.82.82,0,0,0-.52.76.89.89,0,0,0,.31.65,2.42,2.42,0,0,0,1.21.46l3.21.57a7.48,7.48,0,0,1,3.61,1.49,3.52,3.52,0,0,1,1.19,2.79,4.55,4.55,0,0,1-1,2.92,6.31,6.31,0,0,1-2.7,1.91,10.56,10.56,0,0,1-3.9.67,9.44,9.44,0,0,1-5.65-1.48A5.26,5.26,0,0,1,84.83,28h5.63a1.63,1.63,0,0,0,.75,1.16,2.89,2.89,0,0,0,1.59.4,2.84,2.84,0,0,0,1.29-.26.85.85,0,0,0,.52-.76.8.8,0,0,0-.44-.72,4.14,4.14,0,0,0-1.37-.44L90,26.89a6.7,6.7,0,0,1-3.62-1.6,4.08,4.08,0,0,1-1.19-3,4.46,4.46,0,0,1,.87-2.79,5.5,5.5,0,0,1,2.52-1.75,11.32,11.32,0,0,1,3.89-.6,9.1,9.1,0,0,1,5.39,1.42A4.8,4.8,0,0,1,100,22.45Z"/><path class="cls-2" d="M111.58,17.32v4.11h-10.4V17.32Zm-8.39-3.78h5.67V28a1.15,1.15,0,0,0,.12.55.67.67,0,0,0,.35.33,1.46,1.46,0,0,0,.6.11,3.57,3.57,0,0,0,.6-.06l.51-.11.82,4c-.25.07-.61.17-1.08.28a9.36,9.36,0,0,1-1.67.21,8.18,8.18,0,0,1-3.28-.4,3.91,3.91,0,0,1-2-1.61,5.16,5.16,0,0,1-.65-2.75Z"/><path class="cls-2" d="M113.5,33.1V17.32h5.67V33.1Zm2.83-17.43a2.8,2.8,0,0,1-2-.76,2.44,2.44,0,0,1,0-3.65,2.95,2.95,0,0,1,4,0,2.44,2.44,0,0,1,0,3.65A2.77,2.77,0,0,1,116.33,15.67Z"/><path class="cls-2" d="M126.07,33.34a6.56,6.56,0,0,1-2.67-.5,4,4,0,0,1-1.81-1.51,4.67,4.67,0,0,1-.66-2.59,5.12,5.12,0,0,1,.44-2.21A4.06,4.06,0,0,1,122.6,25a5.78,5.78,0,0,1,1.85-.89,10.64,10.64,0,0,1,2.27-.4,21.05,21.05,0,0,0,2.13-.25,2.88,2.88,0,0,0,1.17-.42.89.89,0,0,0,.36-.73v0a1.1,1.1,0,0,0-.47-.95A2.16,2.16,0,0,0,128.7,21a2.2,2.2,0,0,0-1.32.35,1.53,1.53,0,0,0-.62,1.08h-5.21a5.25,5.25,0,0,1,.92-2.65,5.69,5.69,0,0,1,2.38-1.95,9.28,9.28,0,0,1,3.93-.74,10.56,10.56,0,0,1,3,.4,7.07,7.07,0,0,1,2.29,1.1,4.86,4.86,0,0,1,1.44,1.64,4.34,4.34,0,0,1,.5,2V33.1h-5.3V30.88h-.12a4.57,4.57,0,0,1-1.15,1.42,4.31,4.31,0,0,1-1.53.8A7,7,0,0,1,126.07,33.34Zm1.84-3.57a2.79,2.79,0,0,0,1.22-.27,2.33,2.33,0,0,0,.93-.77,2,2,0,0,0,.36-1.22V26.19l-.48.18-.53.15-.6.14-.65.11a3.38,3.38,0,0,0-1.07.33,1.64,1.64,0,0,0-.62.57,1.44,1.44,0,0,0-.2.74,1.21,1.21,0,0,0,.46,1A1.94,1.94,0,0,0,127.91,29.77Z"/><path class="cls-2" d="M144.06,24.22V33.1h-5.67V17.32h5.38v3h.16A4.45,4.45,0,0,1,145.75,18a5.82,5.82,0,0,1,5.94-.09,5.13,5.13,0,0,1,1.92,2.1,6.55,6.55,0,0,1,.68,3.05V33.1h-5.67V24.22a2.66,2.66,0,0,0-.59-1.84,2.15,2.15,0,0,0-1.67-.67,2.4,2.4,0,0,0-1.22.31,2,2,0,0,0-.8.86A3,3,0,0,0,144.06,24.22Z"/><path class="cls-2" d="M170.09,33.1H162v-21h8a11.76,11.76,0,0,1,5.61,1.26,8.78,8.78,0,0,1,3.66,3.61,11.62,11.62,0,0,1,1.29,5.65,11.69,11.69,0,0,1-1.28,5.64,8.82,8.82,0,0,1-3.64,3.62A11.61,11.61,0,0,1,170.09,33.1Zm-2.38-4.85h2.18a6.28,6.28,0,0,0,2.66-.51A3.4,3.4,0,0,0,174.24,26a8.35,8.35,0,0,0,.58-3.43,8.13,8.13,0,0,0-.59-3.43,3.45,3.45,0,0,0-1.73-1.74,6.94,6.94,0,0,0-2.78-.5h-2Z"/><path class="cls-2" d="M190.47,33.38a9.07,9.07,0,0,1-4.35-1,6.69,6.69,0,0,1-2.81-2.79,9.16,9.16,0,0,1-1-4.37,8.87,8.87,0,0,1,1-4.28,7,7,0,0,1,2.78-2.84,8.45,8.45,0,0,1,4.24-1,9,9,0,0,1,3.24.56,6.81,6.81,0,0,1,2.47,1.6,7.2,7.2,0,0,1,1.59,2.56,9.66,9.66,0,0,1,.55,3.38v1.31H184.1V23.4H193a2.21,2.21,0,0,0-.34-1.2,2.35,2.35,0,0,0-.9-.81,2.72,2.72,0,0,0-1.26-.29,2.85,2.85,0,0,0-1.27.29,2.41,2.41,0,0,0-.92.81,2.18,2.18,0,0,0-.36,1.2v3.37a2.7,2.7,0,0,0,.32,1.35,2.29,2.29,0,0,0,.91.94,3,3,0,0,0,1.44.34,3.29,3.29,0,0,0,1.07-.17,2.45,2.45,0,0,0,.84-.47A1.89,1.89,0,0,0,193,28h5.18a5.88,5.88,0,0,1-1.26,2.85,6.5,6.5,0,0,1-2.64,1.87A10.19,10.19,0,0,1,190.47,33.38Z"/><path class="cls-2" d="M214.54,22.45h-5.22a1.44,1.44,0,0,0-.34-.83,2,2,0,0,0-.77-.54,2.82,2.82,0,0,0-1-.19,2.71,2.71,0,0,0-1.25.27.82.82,0,0,0-.52.76.89.89,0,0,0,.31.65,2.46,2.46,0,0,0,1.22.46l3.2.57a7.44,7.44,0,0,1,3.61,1.49,3.56,3.56,0,0,1,1.2,2.79,4.61,4.61,0,0,1-1,2.92,6.4,6.4,0,0,1-2.71,1.91,10.54,10.54,0,0,1-3.89.67,9.47,9.47,0,0,1-5.66-1.48,5.22,5.22,0,0,1-2.27-3.9h5.63a1.59,1.59,0,0,0,.74,1.16,3.37,3.37,0,0,0,2.89.14.84.84,0,0,0,.51-.76.8.8,0,0,0-.44-.72,4.07,4.07,0,0,0-1.36-.44l-2.8-.49a6.63,6.63,0,0,1-3.61-1.6,4,4,0,0,1-1.19-3,4.4,4.4,0,0,1,.86-2.79,5.5,5.5,0,0,1,2.52-1.75,11.32,11.32,0,0,1,3.89-.6,9.15,9.15,0,0,1,5.4,1.42A4.85,4.85,0,0,1,214.54,22.45Z"/><path class="cls-2" d="M216.75,33.1V17.32h5.67V33.1Zm2.83-17.43a2.8,2.8,0,0,1-2-.76,2.44,2.44,0,0,1,0-3.65,2.95,2.95,0,0,1,3.95,0,2.44,2.44,0,0,1,0,3.65A2.77,2.77,0,0,1,219.58,15.67Z"/><path class="cls-2" d="M232.52,39.34a10.92,10.92,0,0,1-4.06-.67,6.17,6.17,0,0,1-2.62-1.85,4.77,4.77,0,0,1-1-2.7h5.46a1.32,1.32,0,0,0,.41.81,1.88,1.88,0,0,0,.85.45,4.55,4.55,0,0,0,1.16.14,3,3,0,0,0,1.83-.53,2.28,2.28,0,0,0,.72-1.94V30.38h-.16a3.46,3.46,0,0,1-.95,1.37,4.37,4.37,0,0,1-1.53.85,6.4,6.4,0,0,1-2,.29,6.32,6.32,0,0,1-3.1-.78,5.6,5.6,0,0,1-2.26-2.48,10,10,0,0,1-.84-4.42,10.53,10.53,0,0,1,.88-4.65,6.15,6.15,0,0,1,2.3-2.62,5.86,5.86,0,0,1,3-.83,4.87,4.87,0,0,1,2,.41,4.39,4.39,0,0,1,1.48,1.08,4.93,4.93,0,0,1,.91,1.47h.12V17.32h5.67V33.05a5.57,5.57,0,0,1-1,3.41,6.48,6.48,0,0,1-2.9,2.14A11.94,11.94,0,0,1,232.52,39.34Zm.21-10.48a2.13,2.13,0,0,0,1.34-.43,2.75,2.75,0,0,0,.86-1.26,5.69,5.69,0,0,0,.3-2,6,6,0,0,0-.3-2,2.85,2.85,0,0,0-.86-1.29,2.14,2.14,0,0,0-1.34-.44,2.1,2.1,0,0,0-1.34.44,2.9,2.9,0,0,0-.84,1.29,6.27,6.27,0,0,0-.29,2,6,6,0,0,0,.29,2,2.76,2.76,0,0,0,.84,1.25A2.14,2.14,0,0,0,232.73,28.86Z"/><path class="cls-2" d="M249,24.22V33.1h-5.67V17.32h5.38v3h.17A4.39,4.39,0,0,1,250.68,18a5.84,5.84,0,0,1,5.95-.09,5.27,5.27,0,0,1,1.92,2.1,6.55,6.55,0,0,1,.67,3.05V33.1h-5.67V24.22a2.61,2.61,0,0,0-.59-1.84,2.15,2.15,0,0,0-1.67-.67,2.4,2.4,0,0,0-1.22.31,2,2,0,0,0-.79.86A3,3,0,0,0,249,24.22Z"/><path class="cls-2" d="M276.06,22.45h-5.22a1.44,1.44,0,0,0-.34-.83,2,2,0,0,0-.76-.54,2.86,2.86,0,0,0-1-.19,2.73,2.73,0,0,0-1.26.27.8.8,0,0,0-.51.76.84.84,0,0,0,.3.65,2.51,2.51,0,0,0,1.22.46l3.2.57a7.44,7.44,0,0,1,3.61,1.49,3.53,3.53,0,0,1,1.2,2.79,4.61,4.61,0,0,1-1,2.92,6.31,6.31,0,0,1-2.7,1.91,10.56,10.56,0,0,1-3.9.67,9.47,9.47,0,0,1-5.66-1.48,5.28,5.28,0,0,1-2.27-3.9h5.63a1.59,1.59,0,0,0,.74,1.16,2.92,2.92,0,0,0,1.6.4,2.87,2.87,0,0,0,1.29-.26.87.87,0,0,0,.52-.76.83.83,0,0,0-.45-.72,4,4,0,0,0-1.36-.44l-2.79-.49a6.66,6.66,0,0,1-3.62-1.6,4,4,0,0,1-1.19-3,4.34,4.34,0,0,1,.87-2.79,5.41,5.41,0,0,1,2.51-1.75,11.36,11.36,0,0,1,3.89-.6,9.15,9.15,0,0,1,5.4,1.42A4.82,4.82,0,0,1,276.06,22.45Z"/></svg>