<?xml version="1.0" encoding="UTF-8"?><svg id="Layer_1" xmlns="http://www.w3.org/2000/svg" viewBox="0 0 172.689 172.689"><defs><style>.cls-1{fill:#fff;}</style></defs><g><path class="cls-1" d="M146.589,31.798c4.195,0,7.609-3.414,7.609-7.609s-3.414-7.61-7.609-7.61-7.61,3.414-7.61,7.61,3.414,7.609,7.61,7.609Z"/><path class="cls-1" d="M26.417,31.798c4.195,0,7.609-3.414,7.609-7.609s-3.414-7.61-7.609-7.61-7.61,3.414-7.61,7.61,3.414,7.609,7.61,7.609Z"/><path class="cls-1" d="M135.368,148.133c-13.477,10.716-30.508,17.143-49.023,17.143-19.198,0-36.81-6.896-50.508-18.332l9.142-8.234c11.47,8.781,25.805,14.009,41.366,14.009,15.176,0,29.189-4.967,40.514-13.357l8.439,7.6c.13-6.128,5.133-11.078,11.292-11.078,3.105,0,5.919,1.26,7.965,3.292,11.348-14.615,18.135-32.939,18.135-52.832,0-20.252-7.028-38.883-18.748-53.626-1.983,1.712-4.533,2.785-7.352,2.785-6.239,0-11.315-5.075-11.315-11.314,0-2.688,.982-5.128,2.553-7.071C123.438,6.388,105.632,0,86.344,0S49.411,6.33,35.057,16.971c1.644,1.965,2.674,4.461,2.674,7.218,0,.016-.005,.031-.005,.046,13.413-10.523,30.287-16.823,48.618-16.823,18.464,0,35.453,6.389,48.912,17.05l-7.077,6.375c-11.548-9-26.058-14.377-41.834-14.377s-30.145,5.323-41.665,14.244l-6.972-6.28c-.129,6.128-5.132,11.079-11.29,11.079-2.907,0-5.534-1.132-7.54-2.94C7.08,47.33,0,66.019,0,86.344c0,19.533,6.551,37.547,17.531,52.03,1.931-1.534,4.341-2.49,6.993-2.49,6.239,0,11.315,5.076,11.315,11.315,0,2.72-1.004,5.186-2.61,7.14,14.661,11.479,33.095,18.349,53.115,18.349,19.585,0,37.642-6.585,52.144-17.617-1.775-1.826-2.896-4.254-3.12-6.939Zm-49.023-8.502c-11.689,0-22.519-3.655-31.432-9.869l9.397-8.464c6.445,3.877,13.966,6.149,22.035,6.149,7.675,0,14.862-2.043,21.093-5.577l9.447,8.509c-8.739,5.84-19.24,9.251-30.541,9.251Zm-26.025-55.04c0-14.351,11.675-26.026,26.025-26.026s26.026,11.675,26.026,26.026-11.675,26.025-26.026,26.025-26.025-11.675-26.025-26.025Zm87.354-47.86c10.996,13.566,17.602,30.829,17.602,49.613,0,18.47-6.393,35.464-17.06,48.925l-7.983-9.016c8.92-11.52,14.242-25.965,14.242-41.662,0-15.162-4.958-29.162-13.334-40.481l6.534-7.379Zm-23.907,27l8.453-9.546c5.786,8.713,9.165,19.164,9.165,30.407,0,11.783-3.715,22.692-10.021,31.646l-8.392-9.478c3.928-6.474,6.23-14.043,6.23-22.169,0-7.577-1.984-14.683-5.435-20.859ZM86.345,29.552c11.904,0,22.915,3.792,31.92,10.215l-9.363,8.433c-6.558-4.074-14.269-6.466-22.557-6.466-8.209,0-15.851,2.349-22.368,6.351l-9.375-8.444c8.972-6.347,19.917-10.09,31.743-10.09ZM23.732,134.326c-10.223-13.308-16.319-29.942-16.319-47.982,0-18.87,6.663-36.208,17.751-49.803l6.527,7.371c-8.463,11.352-13.474,25.429-13.474,40.678s5.022,29.357,13.502,40.716l-7.986,9.019Zm7.573-49.735c0-11.331,3.427-21.86,9.297-30.613l8.449,9.542c-3.526,6.226-5.563,13.405-5.563,21.07s2.048,14.877,5.588,21.113l-8.448,9.541c-5.886-8.761-9.323-19.305-9.323-30.653Z"/><path class="cls-1" d="M146.589,139.59c-4.196,0-7.61,3.414-7.61,7.61s3.414,7.609,7.61,7.609,7.609-3.414,7.609-7.609-3.414-7.61-7.609-7.61Z"/><path class="cls-1" d="M24.524,139.59c-4.195,0-7.609,3.414-7.609,7.61s3.414,7.609,7.609,7.609,7.61-3.414,7.61-7.609-3.414-7.61-7.61-7.61Z"/></g><circle class="cls-1" cx="86.345" cy="84.59" r="20.446"/></svg>