<?xml version="1.0" encoding="UTF-8"?><svg id="Layer_1" xmlns="http://www.w3.org/2000/svg" viewBox="0 0 186.736 79.325"><defs><style>.cls-1{fill:#fff;}.cls-2{fill:none;stroke:#fff;stroke-miterlimit:10;stroke-width:8.572px;}</style></defs><path class="cls-1" d="M93.368,23.691c-8.821,0-15.972,7.151-15.972,15.972s7.151,15.972,15.972,15.972,15.972-7.151,15.972-15.972-7.151-15.972-15.972-15.972Zm0,25.434c-5.226,0-9.462-4.236-9.462-9.462s4.236-9.462,9.462-9.462,9.462,4.236,9.462,9.462-4.236,9.462-9.462,9.462Z"/><g><line class="cls-2" x1="93.365" y1="51.639" x2="93.357" y2="79.324"/><line class="cls-2" x1="81.391" y1="39.659" x2="53.706" y2="39.652"/><line class="cls-2" x1="93.371" y1="27.686" x2="93.378" y2="0"/><line class="cls-2" x1="105.345" y1="39.666" x2="133.029" y2="39.673"/></g><path class="cls-1" d="M93.368,11.603c15.472,0,28.06,12.587,28.06,28.06s-12.587,28.06-28.06,28.06-28.06-12.587-28.06-28.06,12.587-28.06,28.06-28.06m0-2.317c-16.776,0-30.376,13.6-30.376,30.376s13.6,30.376,30.376,30.376,30.376-13.6,30.376-30.376-13.6-30.376-30.376-30.376h0Z"/><g><path class="cls-1" d="M125.006,74.532c22.612-5.564,44.045-17.184,61.73-34.869-17.685-17.685-39.118-29.305-61.73-34.869,9.498,8.623,15.499,21.03,15.499,34.869s-6.001,26.246-15.499,34.869Z"/><path class="cls-1" d="M46.232,39.663c0-13.839,6.001-26.246,15.499-34.869C39.119,10.358,17.685,21.978,0,39.663c17.685,17.685,39.119,29.305,61.73,34.869-9.498-8.623-15.499-21.03-15.499-34.869Z"/></g></svg>