<?xml version="1.0" encoding="UTF-8"?><svg id="Layer_1" xmlns="http://www.w3.org/2000/svg" viewBox="0 0 997.442 298.801"><defs><style>.cls-1{fill:#fff;}</style></defs><g><g><path class="cls-1" d="M434.673,105.708V63.344h8.956v34.979h18.162v7.385h-27.119Z"/><path class="cls-1" d="M482.044,106.327c-3.268,0-6.079-.663-8.429-1.994s-4.161-3.219-5.429-5.669c-1.27-2.446-1.904-5.347-1.904-8.697,0-3.269,.634-6.137,1.904-8.607,1.268-2.47,3.057-4.394,5.368-5.772s5.023-2.068,8.14-2.068c2.096,0,4.051,.335,5.864,1.004s3.4,1.673,4.758,3.008c1.359,1.339,2.416,3.018,3.176,5.04,.758,2.018,1.138,4.38,1.138,7.084v2.419h-26.831v-5.461h18.535c0-1.268-.276-2.393-.828-3.37-.55-.98-1.313-1.75-2.286-2.309s-2.1-.837-3.381-.837c-1.339,0-2.521,.308-3.549,.92s-1.83,1.436-2.409,2.463-.877,2.168-.89,3.423v5.19c0,1.573,.293,2.931,.88,4.076,.586,1.144,1.417,2.028,2.493,2.647,1.076,.622,2.351,.934,3.827,.934,.979,0,1.876-.141,2.689-.415s1.511-.689,2.09-1.241,1.021-1.228,1.323-2.028l8.15,.539c-.413,1.958-1.258,3.664-2.533,5.12-1.277,1.456-2.916,2.587-4.924,3.393-2.006,.806-4.32,1.208-6.94,1.208Z"/><path class="cls-1" d="M531.113,73.935l-11.11,31.773h-9.929l-11.11-31.773h9.309l6.599,22.735h.331l6.579-22.735h9.33Z"/><path class="cls-1" d="M549.047,106.327c-3.268,0-6.079-.663-8.429-1.994s-4.161-3.219-5.429-5.669c-1.27-2.446-1.904-5.347-1.904-8.697,0-3.269,.634-6.137,1.904-8.607,1.268-2.47,3.057-4.394,5.368-5.772s5.023-2.068,8.14-2.068c2.096,0,4.051,.335,5.864,1.004s3.4,1.673,4.758,3.008c1.359,1.339,2.416,3.018,3.176,5.04,.758,2.018,1.138,4.38,1.138,7.084v2.419h-26.831v-5.461h18.535c0-1.268-.276-2.393-.828-3.37-.55-.98-1.313-1.75-2.286-2.309s-2.1-.837-3.381-.837c-1.339,0-2.521,.308-3.549,.92s-1.83,1.436-2.409,2.463-.877,2.168-.89,3.423v5.19c0,1.573,.293,2.931,.88,4.076,.586,1.144,1.417,2.028,2.493,2.647,1.076,.622,2.351,.934,3.827,.934,.979,0,1.876-.141,2.689-.415s1.511-.689,2.09-1.241,1.021-1.228,1.323-2.028l8.15,.539c-.413,1.958-1.258,3.664-2.533,5.12-1.277,1.456-2.916,2.587-4.924,3.393-2.006,.806-4.32,1.208-6.94,1.208Z"/><path class="cls-1" d="M578.196,63.344v42.364h-8.813V63.344h8.813Z"/><path class="cls-1" d="M617.085,63.344v42.364h-8.956v-33.865h-.248l-9.703,6.084v-7.944l10.487-6.639h8.419Z"/><path class="cls-1" d="M648.217,105.708h-9.599l14.625-42.364h11.543l14.605,42.364h-9.599l-10.611-32.684h-.331l-10.633,32.684Zm-.599-16.651h22.671v6.99h-22.671v-6.99Z"/><path class="cls-1" d="M684.314,105.708v-31.773h8.543v5.542h.331c.579-1.971,1.551-3.463,2.916-4.477s2.938-1.519,4.717-1.519c.442,0,.917,.027,1.427,.08,.51,.057,.959,.134,1.345,.228v7.82c-.415-.124-.987-.234-1.717-.331-.731-.097-1.4-.144-2.008-.144-1.297,0-2.451,.278-3.465,.837-1.012,.559-1.814,1.335-2.399,2.329s-.878,2.138-.878,3.433v17.976h-8.813Z"/><path class="cls-1" d="M708.125,105.708v-31.773h8.398v5.605h.373c.663-1.861,1.765-3.33,3.31-4.407,1.544-1.074,3.393-1.613,5.545-1.613,2.178,0,4.034,.542,5.563,1.623,1.531,1.084,2.552,2.55,3.062,4.397h.331c.648-1.82,1.824-3.279,3.527-4.374,1.703-1.098,3.719-1.646,6.05-1.646,2.967,0,5.376,.94,7.231,2.824,1.854,1.881,2.781,4.548,2.781,7.994v21.37h-8.791v-19.633c0-1.764-.468-3.089-1.407-3.969-.937-.883-2.11-1.325-3.517-1.325-1.6,0-2.848,.505-3.743,1.519-.897,1.014-1.345,2.349-1.345,4.002v19.405h-8.543v-19.817c0-1.559-.445-2.801-1.335-3.724-.888-.924-2.058-1.385-3.505-1.385-.98,0-1.859,.244-2.639,.733-.778,.492-1.395,1.175-1.851,2.048-.455,.877-.683,1.901-.683,3.072v19.074h-8.813Z"/><path class="cls-1" d="M775.602,106.327c-3.212,0-5.988-.686-8.326-2.058s-4.141-3.289-5.409-5.749c-1.27-2.463-1.904-5.321-1.904-8.577,0-3.279,.634-6.154,1.904-8.613,1.268-2.463,3.072-4.38,5.409-5.752s5.113-2.058,8.326-2.058,5.988,.686,8.327,2.058c2.337,1.372,4.139,3.289,5.409,5.752,1.268,2.46,1.902,5.334,1.902,8.613,0,3.256-.634,6.114-1.902,8.577-1.27,2.46-3.072,4.377-5.409,5.749-2.339,1.372-5.113,2.058-8.327,2.058Zm.042-6.827c1.461,0,2.682-.415,3.661-1.252,.979-.833,1.72-1.974,2.224-3.423,.504-1.446,.756-3.095,.756-4.943s-.253-3.497-.756-4.946c-.504-1.446-1.245-2.59-2.224-3.433-.979-.84-2.2-1.262-3.661-1.262-1.476,0-2.714,.422-3.713,1.262-1.001,.843-1.752,1.988-2.255,3.433-.504,1.449-.755,3.099-.755,4.946s.251,3.497,.755,4.943c.504,1.449,1.255,2.59,2.255,3.423,.999,.837,2.237,1.252,3.713,1.252Z"/><path class="cls-1" d="M796.992,105.708v-31.773h8.543v5.542h.331c.579-1.971,1.551-3.463,2.916-4.477s2.938-1.519,4.717-1.519c.442,0,.917,.027,1.427,.08,.51,.057,.959,.134,1.345,.228v7.82c-.415-.124-.987-.234-1.717-.331-.731-.097-1.4-.144-2.008-.144-1.297,0-2.451,.278-3.465,.837-1.012,.559-1.814,1.335-2.399,2.329s-.878,2.138-.878,3.433v17.976h-8.813Z"/><path class="cls-1" d="M854.107,81.029v6.994h-19.322v-6.994h19.322Z"/><path class="cls-1" d="M890.307,105.708h-15.018V63.344h15.142c4.262,0,7.929,.843,11.004,2.533,3.075,1.69,5.444,4.113,7.106,7.272s2.493,6.937,2.493,11.334-.832,8.209-2.493,11.378c-1.661,3.172-4.041,5.608-7.136,7.305-3.097,1.697-6.796,2.543-11.098,2.543Zm-6.062-7.673h5.689c2.649,0,4.879-.475,6.693-1.419s3.179-2.413,4.096-4.407c.917-1.991,1.375-4.568,1.375-7.727,0-3.129-.458-5.689-1.375-7.673s-2.279-3.447-4.086-4.387c-1.807-.937-4.034-1.405-6.681-1.405h-5.711v27.018Z"/><path class="cls-1" d="M917.655,105.708V63.344h16.715c3.212,0,5.95,.609,8.212,1.83,2.262,1.218,3.989,2.908,5.182,5.066s1.789,4.645,1.789,7.459-.606,5.294-1.82,7.446c-1.213,2.152-2.968,3.828-5.264,5.026-2.296,1.201-5.071,1.8-8.326,1.8h-10.655v-7.178h9.206c1.723,0,3.147-.298,4.272-.9,1.124-.599,1.966-1.432,2.525-2.503,.557-1.067,.837-2.299,.837-3.691,0-1.409-.279-2.637-.837-3.694-.559-1.054-1.404-1.874-2.535-2.46s-2.565-.88-4.303-.88h-6.04v35.043h-8.956Z"/><path class="cls-1" d="M978.369,75.528c-.166-1.67-.877-2.965-2.132-3.888-1.255-.927-2.958-1.389-5.11-1.389-1.461,0-2.695,.204-3.703,.612-1.006,.405-1.775,.967-2.306,1.687-.532,.716-.796,1.529-.796,2.439-.028,.76,.134,1.422,.485,1.984,.353,.566,.838,1.054,1.459,1.459,.621,.408,1.337,.76,2.152,1.057,.813,.294,1.682,.545,2.607,.753l3.806,.91c1.847,.415,3.544,.967,5.088,1.656s2.883,1.536,4.014,2.543c1.129,1.007,2.009,2.192,2.637,3.557s.949,2.931,.962,4.698c-.013,2.59-.673,4.835-1.976,6.733s-3.179,3.363-5.627,4.407c-2.448,1.041-5.396,1.559-8.843,1.559-3.422,0-6.396-.522-8.926-1.573-2.531-1.047-4.502-2.6-5.916-4.665-1.414-2.061-2.155-4.615-2.224-7.663h8.667c.097,1.422,.507,2.603,1.231,3.547,.723,.947,1.697,1.656,2.916,2.132s2.603,.713,4.148,.713c1.518,0,2.838-.221,3.962-.663,1.123-.438,1.996-1.054,2.617-1.84,.619-.786,.93-1.69,.93-2.711,0-.95-.279-1.75-.838-2.399-.559-.646-1.372-1.198-2.441-1.653s-2.376-.87-3.92-1.241l-4.613-1.158c-3.572-.87-6.391-2.229-8.46-4.076-2.07-1.847-3.097-4.337-3.084-7.469-.013-2.563,.673-4.805,2.06-6.723,1.385-1.917,3.291-3.413,5.719-4.487,2.428-1.078,5.185-1.613,8.275-1.613,3.144,0,5.891,.535,8.242,1.613,2.352,1.074,4.183,2.57,5.493,4.487s1.986,4.139,2.028,6.663h-8.585Z"/></g><g><path class="cls-1" d="M434.673,201.945v-42.364h8.956v34.979h18.162v7.385h-27.119Z"/><path class="cls-1" d="M482.044,202.564c-3.268,0-6.079-.663-8.429-1.994s-4.161-3.219-5.429-5.669c-1.27-2.446-1.904-5.347-1.904-8.697,0-3.269,.634-6.137,1.904-8.607,1.268-2.47,3.057-4.394,5.368-5.772s5.023-2.068,8.14-2.068c2.096,0,4.051,.335,5.864,1.004s3.4,1.673,4.758,3.008c1.359,1.339,2.416,3.018,3.176,5.04,.758,2.018,1.138,4.38,1.138,7.084v2.419h-26.831v-5.461h18.535c0-1.268-.276-2.393-.828-3.37-.55-.98-1.313-1.75-2.286-2.309s-2.1-.837-3.381-.837c-1.339,0-2.521,.308-3.549,.92s-1.83,1.436-2.409,2.463-.877,2.168-.89,3.423v5.19c0,1.573,.293,2.931,.88,4.076,.586,1.144,1.417,2.028,2.493,2.647,1.076,.622,2.351,.934,3.827,.934,.979,0,1.876-.141,2.689-.415s1.511-.689,2.09-1.241,1.021-1.228,1.323-2.028l8.15,.539c-.413,1.958-1.258,3.664-2.533,5.12-1.277,1.456-2.916,2.587-4.924,3.393-2.006,.806-4.32,1.208-6.94,1.208Z"/><path class="cls-1" d="M531.113,170.172l-11.11,31.773h-9.929l-11.11-31.773h9.309l6.599,22.735h.331l6.579-22.735h9.33Z"/><path class="cls-1" d="M549.047,202.564c-3.268,0-6.079-.663-8.429-1.994s-4.161-3.219-5.429-5.669c-1.27-2.446-1.904-5.347-1.904-8.697,0-3.269,.634-6.137,1.904-8.607,1.268-2.47,3.057-4.394,5.368-5.772s5.023-2.068,8.14-2.068c2.096,0,4.051,.335,5.864,1.004s3.4,1.673,4.758,3.008c1.359,1.339,2.416,3.018,3.176,5.04,.758,2.018,1.138,4.38,1.138,7.084v2.419h-26.831v-5.461h18.535c0-1.268-.276-2.393-.828-3.37-.55-.98-1.313-1.75-2.286-2.309s-2.1-.837-3.381-.837c-1.339,0-2.521,.308-3.549,.92s-1.83,1.436-2.409,2.463-.877,2.168-.89,3.423v5.19c0,1.573,.293,2.931,.88,4.076,.586,1.144,1.417,2.028,2.493,2.647,1.076,.622,2.351,.934,3.827,.934,.979,0,1.876-.141,2.689-.415s1.511-.689,2.09-1.241,1.021-1.228,1.323-2.028l8.15,.539c-.413,1.958-1.258,3.664-2.533,5.12-1.277,1.456-2.916,2.587-4.924,3.393-2.006,.806-4.32,1.208-6.94,1.208Z"/><path class="cls-1" d="M578.196,159.581v42.364h-8.813v-42.364h8.813Z"/><path class="cls-1" d="M598.653,201.945v-6.455l15.08-13.961c1.283-1.241,2.363-2.359,3.238-3.353,.877-.994,1.541-1.968,1.996-2.928,.455-.957,.683-1.994,.683-3.112,0-1.241-.283-2.312-.847-3.216-.567-.904-1.339-1.6-2.317-2.091-.98-.489-2.09-.733-3.331-.733-1.297,0-2.428,.261-3.391,.786-.965,.522-1.71,1.275-2.235,2.255-.524,.977-.785,2.145-.785,3.494h-8.503c0-2.771,.627-5.177,1.882-7.218s3.013-3.621,5.275-4.738,4.867-1.673,7.819-1.673c3.035,0,5.679,.532,7.934,1.603,2.254,1.067,4.009,2.547,5.264,4.437,1.255,1.887,1.882,4.052,1.882,6.495,0,1.6-.313,3.179-.94,4.735-.627,1.559-1.742,3.286-3.341,5.183s-3.855,4.17-6.765,6.816l-6.184,6.06v.291h17.789v7.322h-30.202Z"/><path class="cls-1" d="M656.409,201.945h-9.599l14.625-42.364h11.543l14.605,42.364h-9.599l-10.611-32.684h-.331l-10.633,32.684Zm-.599-16.651h22.671v6.99h-22.671v-6.99Z"/><path class="cls-1" d="M692.506,201.945v-31.773h8.543v5.542h.331c.579-1.971,1.551-3.463,2.916-4.477s2.938-1.519,4.717-1.519c.442,0,.917,.027,1.427,.08,.51,.057,.959,.134,1.345,.228v7.82c-.415-.124-.987-.234-1.717-.331-.731-.097-1.4-.144-2.008-.144-1.297,0-2.451,.278-3.465,.837-1.012,.559-1.814,1.335-2.399,2.329s-.878,2.138-.878,3.433v17.976h-8.813Z"/><path class="cls-1" d="M716.317,201.945v-31.773h8.398v5.605h.373c.663-1.861,1.765-3.33,3.31-4.407,1.544-1.074,3.393-1.613,5.545-1.613,2.178,0,4.034,.542,5.563,1.623,1.531,1.084,2.552,2.55,3.062,4.397h.331c.648-1.82,1.824-3.279,3.527-4.374,1.703-1.098,3.719-1.646,6.05-1.646,2.967,0,5.376,.94,7.231,2.824,1.854,1.881,2.781,4.548,2.781,7.994v21.37h-8.791v-19.633c0-1.764-.468-3.089-1.407-3.969-.937-.883-2.11-1.325-3.517-1.325-1.6,0-2.848,.505-3.743,1.519-.897,1.014-1.345,2.349-1.345,4.002v19.405h-8.543v-19.817c0-1.559-.445-2.801-1.335-3.724-.888-.924-2.058-1.385-3.505-1.385-.98,0-1.859,.244-2.639,.733-.778,.492-1.395,1.175-1.851,2.048-.455,.877-.683,1.901-.683,3.072v19.074h-8.813Z"/><path class="cls-1" d="M783.794,202.564c-3.212,0-5.988-.686-8.326-2.058s-4.141-3.289-5.409-5.749c-1.27-2.463-1.904-5.321-1.904-8.577,0-3.279,.634-6.154,1.904-8.613,1.268-2.463,3.072-4.38,5.409-5.752,2.337-1.372,5.113-2.058,8.326-2.058s5.988,.686,8.327,2.058c2.337,1.372,4.139,3.289,5.409,5.752,1.268,2.46,1.902,5.334,1.902,8.613,0,3.256-.634,6.114-1.902,8.577-1.27,2.46-3.072,4.377-5.409,5.749-2.339,1.372-5.113,2.058-8.327,2.058Zm.042-6.827c1.461,0,2.682-.415,3.661-1.252,.979-.833,1.72-1.974,2.224-3.423,.504-1.446,.756-3.095,.756-4.943s-.253-3.497-.756-4.946c-.504-1.446-1.245-2.59-2.224-3.433-.979-.84-2.2-1.262-3.661-1.262-1.476,0-2.714,.422-3.713,1.262-1.001,.843-1.752,1.988-2.255,3.433-.504,1.449-.755,3.099-.755,4.946s.251,3.497,.755,4.943c.504,1.449,1.255,2.59,2.255,3.423,.999,.837,2.237,1.252,3.713,1.252Z"/><path class="cls-1" d="M805.183,201.945v-31.773h8.543v5.542h.331c.579-1.971,1.551-3.463,2.916-4.477s2.938-1.519,4.717-1.519c.442,0,.917,.027,1.427,.08,.51,.057,.959,.134,1.345,.228v7.82c-.415-.124-.987-.234-1.717-.331-.731-.097-1.4-.144-2.008-.144-1.297,0-2.451,.278-3.465,.837-1.012,.559-1.814,1.335-2.399,2.329s-.878,2.138-.878,3.433v17.976h-8.813Z"/><path class="cls-1" d="M862.299,177.266v6.994h-19.322v-6.994h19.322Z"/><path class="cls-1" d="M898.499,201.945h-15.018v-42.364h15.142c4.262,0,7.929,.843,11.004,2.533s5.444,4.113,7.106,7.272,2.493,6.937,2.493,11.334-.832,8.209-2.493,11.378c-1.661,3.172-4.041,5.608-7.136,7.305-3.097,1.697-6.796,2.543-11.098,2.543Zm-6.062-7.673h5.689c2.649,0,4.879-.475,6.693-1.419s3.179-2.413,4.096-4.407c.917-1.991,1.375-4.568,1.375-7.727,0-3.129-.458-5.689-1.375-7.673s-2.279-3.447-4.086-4.387c-1.807-.937-4.034-1.405-6.681-1.405h-5.711v27.018Z"/><path class="cls-1" d="M925.847,201.945v-42.364h16.715c3.212,0,5.95,.609,8.212,1.83,2.262,1.218,3.989,2.908,5.182,5.066s1.789,4.645,1.789,7.459-.606,5.294-1.82,7.446c-1.213,2.152-2.968,3.828-5.264,5.026-2.296,1.201-5.071,1.8-8.326,1.8h-10.655v-7.178h9.206c1.723,0,3.147-.298,4.272-.9,1.124-.599,1.966-1.432,2.525-2.503,.557-1.067,.837-2.299,.837-3.691,0-1.409-.279-2.637-.837-3.694-.559-1.054-1.404-1.874-2.535-2.46s-2.565-.88-4.303-.88h-6.04v35.043h-8.956Z"/><path class="cls-1" d="M986.561,171.765c-.166-1.67-.877-2.965-2.132-3.888-1.255-.927-2.958-1.389-5.11-1.389-1.461,0-2.695,.204-3.703,.612-1.006,.405-1.775,.967-2.306,1.687-.532,.716-.796,1.529-.796,2.439-.028,.76,.134,1.422,.485,1.984,.353,.566,.838,1.054,1.459,1.459,.621,.408,1.337,.76,2.152,1.057,.813,.294,1.682,.545,2.607,.753l3.806,.91c1.847,.415,3.544,.967,5.088,1.656s2.883,1.536,4.014,2.543c1.129,1.007,2.009,2.192,2.637,3.557s.949,2.931,.962,4.698c-.013,2.59-.673,4.835-1.976,6.733s-3.179,3.363-5.627,4.407c-2.448,1.041-5.396,1.559-8.843,1.559-3.422,0-6.396-.522-8.926-1.573-2.531-1.047-4.502-2.6-5.916-4.665-1.414-2.061-2.155-4.615-2.224-7.663h8.667c.097,1.422,.507,2.603,1.231,3.547,.723,.947,1.697,1.656,2.916,2.132s2.603,.713,4.148,.713c1.518,0,2.838-.221,3.962-.663,1.123-.438,1.996-1.054,2.617-1.84,.619-.786,.93-1.69,.93-2.711,0-.95-.279-1.75-.838-2.399-.559-.646-1.372-1.198-2.441-1.653s-2.376-.87-3.92-1.241l-4.613-1.158c-3.572-.87-6.391-2.229-8.46-4.076-2.07-1.847-3.097-4.337-3.084-7.469-.013-2.563,.673-4.805,2.06-6.723,1.385-1.917,3.291-3.413,5.719-4.487,2.428-1.078,5.185-1.613,8.275-1.613,3.144,0,5.891,.535,8.242,1.613,2.352,1.074,4.183,2.57,5.493,4.487s1.986,4.139,2.028,6.663h-8.585Z"/></g><g><path class="cls-1" d="M434.673,298.182v-42.364h8.956v34.979h18.162v7.385h-27.119Z"/><path class="cls-1" d="M482.044,298.801c-3.268,0-6.079-.663-8.429-1.994s-4.161-3.219-5.429-5.669c-1.27-2.446-1.904-5.347-1.904-8.697,0-3.269,.634-6.137,1.904-8.607,1.268-2.47,3.057-4.394,5.368-5.772s5.023-2.068,8.14-2.068c2.096,0,4.051,.335,5.864,1.004s3.4,1.673,4.758,3.008c1.359,1.339,2.416,3.018,3.176,5.04,.758,2.018,1.138,4.38,1.138,7.084v2.419h-26.831v-5.461h18.535c0-1.268-.276-2.393-.828-3.37-.55-.98-1.313-1.75-2.286-2.309s-2.1-.837-3.381-.837c-1.339,0-2.521,.308-3.549,.92s-1.83,1.436-2.409,2.463-.877,2.168-.89,3.423v5.19c0,1.573,.293,2.931,.88,4.076,.586,1.144,1.417,2.028,2.493,2.647,1.076,.622,2.351,.934,3.827,.934,.979,0,1.876-.141,2.689-.415s1.511-.689,2.09-1.241,1.021-1.228,1.323-2.028l8.15,.539c-.413,1.958-1.258,3.664-2.533,5.12-1.277,1.456-2.916,2.587-4.924,3.393-2.006,.806-4.32,1.208-6.94,1.208Z"/><path class="cls-1" d="M531.113,266.409l-11.11,31.773h-9.929l-11.11-31.773h9.309l6.599,22.735h.331l6.579-22.735h9.33Z"/><path class="cls-1" d="M549.047,298.801c-3.268,0-6.079-.663-8.429-1.994s-4.161-3.219-5.429-5.669c-1.27-2.446-1.904-5.347-1.904-8.697,0-3.269,.634-6.137,1.904-8.607,1.268-2.47,3.057-4.394,5.368-5.772s5.023-2.068,8.14-2.068c2.096,0,4.051,.335,5.864,1.004s3.4,1.673,4.758,3.008c1.359,1.339,2.416,3.018,3.176,5.04,.758,2.018,1.138,4.38,1.138,7.084v2.419h-26.831v-5.461h18.535c0-1.268-.276-2.393-.828-3.37-.55-.98-1.313-1.75-2.286-2.309s-2.1-.837-3.381-.837c-1.339,0-2.521,.308-3.549,.92s-1.83,1.436-2.409,2.463-.877,2.168-.89,3.423v5.19c0,1.573,.293,2.931,.88,4.076,.586,1.144,1.417,2.028,2.493,2.647,1.076,.622,2.351,.934,3.827,.934,.979,0,1.876-.141,2.689-.415s1.511-.689,2.09-1.241,1.021-1.228,1.323-2.028l8.15,.539c-.413,1.958-1.258,3.664-2.533,5.12-1.277,1.456-2.916,2.587-4.924,3.393-2.006,.806-4.32,1.208-6.94,1.208Z"/><path class="cls-1" d="M578.196,255.818v42.364h-8.813v-42.364h8.813Z"/><path class="cls-1" d="M614.314,298.761c-3.09,0-5.838-.535-8.244-1.603-2.408-1.067-4.303-2.543-5.689-4.427-1.387-1.881-2.1-4.059-2.142-6.525h9.02c.054,1.034,.395,1.941,1.024,2.721,.627,.78,1.464,1.382,2.513,1.81,1.047,.425,2.227,.639,3.537,.639,1.365,0,2.572-.241,3.621-.723,1.047-.482,1.867-1.151,2.461-2.008,.592-.853,.89-1.84,.89-2.958,0-1.131-.315-2.135-.942-3.008-.627-.877-1.524-1.563-2.689-2.058-1.166-.499-2.548-.746-4.148-.746h-3.952v-6.579h3.952c1.352,0,2.547-.234,3.589-.703,1.041-.468,1.851-1.121,2.431-1.954,.579-.833,.868-1.81,.868-2.928,0-1.061-.253-1.994-.755-2.801-.504-.81-1.208-1.439-2.11-1.894-.904-.455-1.956-.683-3.156-.683-1.213,0-2.324,.218-3.33,.653-1.007,.432-1.814,1.051-2.421,1.851s-.93,1.737-.972,2.814h-8.585c.042-2.443,.738-4.595,2.09-6.455,1.35-1.861,3.176-3.32,5.471-4.377,2.296-1.054,4.892-1.579,7.789-1.579,2.923,0,5.481,.529,7.675,1.593,2.192,1.061,3.898,2.49,5.12,4.29,1.22,1.8,1.824,3.818,1.81,6.05,.013,2.373-.721,4.354-2.204,5.94s-3.41,2.59-5.782,3.018v.331c3.117,.402,5.493,1.479,7.126,3.239,1.635,1.757,2.444,3.952,2.431,6.586,.013,2.416-.679,4.561-2.078,6.435-1.4,1.877-3.328,3.35-5.782,4.427-2.455,1.074-5.269,1.613-8.439,1.613Z"/><path class="cls-1" d="M658.126,298.182h-9.599l14.625-42.364h11.543l14.605,42.364h-9.599l-10.611-32.684h-.331l-10.633,32.684Zm-.599-16.651h22.671v6.99h-22.671v-6.99Z"/><path class="cls-1" d="M694.224,298.182v-31.773h8.543v5.542h.331c.579-1.971,1.551-3.463,2.916-4.477s2.938-1.519,4.717-1.519c.442,0,.917,.027,1.427,.08,.51,.057,.959,.134,1.345,.228v7.82c-.415-.124-.987-.234-1.717-.331-.731-.097-1.4-.144-2.008-.144-1.297,0-2.451,.278-3.465,.837-1.012,.559-1.814,1.335-2.399,2.329s-.878,2.138-.878,3.433v17.976h-8.813Z"/><path class="cls-1" d="M718.033,298.182v-31.773h8.398v5.605h.373c.663-1.861,1.765-3.33,3.31-4.407,1.544-1.074,3.393-1.613,5.545-1.613,2.178,0,4.034,.542,5.563,1.623,1.531,1.084,2.552,2.55,3.062,4.397h.331c.648-1.82,1.824-3.279,3.527-4.374,1.703-1.098,3.719-1.646,6.05-1.646,2.967,0,5.376,.94,7.231,2.824,1.854,1.881,2.781,4.548,2.781,7.994v21.37h-8.791v-19.633c0-1.764-.468-3.089-1.407-3.969-.937-.883-2.11-1.325-3.517-1.325-1.6,0-2.848,.505-3.743,1.519-.897,1.014-1.345,2.349-1.345,4.002v19.405h-8.543v-19.817c0-1.559-.445-2.801-1.335-3.724-.888-.924-2.058-1.385-3.505-1.385-.98,0-1.859,.244-2.639,.733-.778,.492-1.395,1.175-1.851,2.048-.455,.877-.683,1.901-.683,3.072v19.074h-8.813Z"/><path class="cls-1" d="M785.512,298.801c-3.212,0-5.988-.686-8.326-2.058s-4.141-3.289-5.409-5.749c-1.27-2.463-1.904-5.321-1.904-8.577,0-3.279,.634-6.154,1.904-8.613,1.268-2.463,3.072-4.38,5.409-5.752s5.113-2.058,8.326-2.058,5.988,.686,8.327,2.058c2.337,1.372,4.139,3.289,5.409,5.752,1.268,2.46,1.902,5.334,1.902,8.613,0,3.256-.634,6.114-1.902,8.577-1.27,2.46-3.072,4.377-5.409,5.749-2.339,1.372-5.113,2.058-8.327,2.058Zm.042-6.827c1.461,0,2.682-.415,3.661-1.252,.979-.833,1.72-1.974,2.224-3.423,.504-1.446,.756-3.095,.756-4.943s-.253-3.497-.756-4.946c-.504-1.446-1.245-2.59-2.224-3.433-.979-.84-2.2-1.262-3.661-1.262-1.476,0-2.714,.422-3.713,1.262-1.001,.843-1.752,1.988-2.255,3.433-.504,1.449-.755,3.099-.755,4.946s.251,3.497,.755,4.943c.504,1.449,1.255,2.59,2.255,3.423,.999,.837,2.237,1.252,3.713,1.252Z"/><path class="cls-1" d="M806.902,298.182v-31.773h8.543v5.542h.331c.579-1.971,1.551-3.463,2.916-4.477s2.938-1.519,4.717-1.519c.442,0,.917,.027,1.427,.08,.51,.057,.959,.134,1.345,.228v7.82c-.415-.124-.987-.234-1.717-.331-.731-.097-1.4-.144-2.008-.144-1.297,0-2.451,.278-3.465,.837-1.012,.559-1.814,1.335-2.399,2.329s-.878,2.138-.878,3.433v17.976h-8.813Z"/><path class="cls-1" d="M864.015,273.503v6.994h-19.322v-6.994h19.322Z"/><path class="cls-1" d="M900.217,298.182h-15.018v-42.364h15.142c4.262,0,7.929,.843,11.004,2.533,3.075,1.69,5.444,4.113,7.106,7.272s2.493,6.937,2.493,11.334-.832,8.209-2.493,11.378c-1.661,3.172-4.041,5.608-7.136,7.305-3.097,1.697-6.796,2.543-11.098,2.543Zm-6.062-7.673h5.689c2.649,0,4.879-.475,6.693-1.419s3.179-2.413,4.096-4.407c.917-1.991,1.375-4.568,1.375-7.727,0-3.129-.458-5.689-1.375-7.673s-2.279-3.447-4.086-4.387c-1.807-.937-4.034-1.405-6.681-1.405h-5.711v27.018Z"/><path class="cls-1" d="M927.564,298.182v-42.364h16.715c3.212,0,5.95,.609,8.212,1.83,2.262,1.218,3.989,2.908,5.182,5.066s1.789,4.645,1.789,7.459-.606,5.294-1.82,7.446c-1.213,2.152-2.968,3.828-5.264,5.026-2.296,1.201-5.071,1.8-8.326,1.8h-10.655v-7.178h9.206c1.723,0,3.147-.298,4.272-.9,1.124-.599,1.966-1.432,2.525-2.503,.557-1.067,.837-2.299,.837-3.691,0-1.409-.279-2.637-.837-3.694-.559-1.054-1.404-1.874-2.535-2.46s-2.565-.88-4.303-.88h-6.04v35.043h-8.956Z"/><path class="cls-1" d="M988.278,268.001c-.166-1.67-.877-2.965-2.132-3.888-1.255-.927-2.958-1.389-5.11-1.389-1.461,0-2.695,.204-3.703,.612-1.006,.405-1.775,.967-2.306,1.687-.532,.716-.796,1.529-.796,2.439-.028,.76,.134,1.422,.485,1.984,.353,.566,.838,1.054,1.459,1.459,.621,.408,1.337,.76,2.152,1.057,.813,.294,1.682,.545,2.607,.753l3.806,.91c1.847,.415,3.544,.967,5.088,1.656s2.883,1.536,4.014,2.543c1.129,1.007,2.009,2.192,2.637,3.557s.949,2.931,.962,4.698c-.013,2.59-.673,4.835-1.976,6.733s-3.179,3.363-5.627,4.407c-2.448,1.041-5.396,1.559-8.843,1.559-3.422,0-6.396-.522-8.926-1.573-2.531-1.047-4.502-2.6-5.916-4.665-1.414-2.061-2.155-4.615-2.224-7.663h8.667c.097,1.422,.507,2.603,1.231,3.547,.723,.947,1.697,1.656,2.916,2.132s2.603,.713,4.148,.713c1.518,0,2.838-.221,3.962-.663,1.123-.438,1.996-1.054,2.617-1.84,.619-.786,.93-1.69,.93-2.711,0-.95-.279-1.75-.838-2.399-.559-.646-1.372-1.198-2.441-1.653s-2.376-.87-3.92-1.241l-4.613-1.158c-3.572-.87-6.391-2.229-8.46-4.076-2.07-1.847-3.097-4.337-3.084-7.469-.013-2.563,.673-4.805,2.06-6.723,1.385-1.917,3.291-3.413,5.719-4.487,2.428-1.078,5.185-1.613,8.275-1.613,3.144,0,5.891,.535,8.242,1.613,2.352,1.074,4.183,2.57,5.493,4.487s1.986,4.139,2.028,6.663h-8.585Z"/></g></g><g><path class="cls-1" d="M116.665,0V42.364h-7.737l-18.432-26.664h-.311v26.664h-8.956V0h7.861l18.286,26.643h.373V0h8.916Z"/><path class="cls-1" d="M132.943,42.967c-2.028,0-3.833-.355-5.419-1.064s-2.838-1.767-3.755-3.166-1.375-3.152-1.375-5.247c0-1.76,.323-3.246,.972-4.444,.648-1.205,1.531-2.168,2.647-2.898,1.118-.729,2.389-1.285,3.816-1.653,1.427-.375,2.928-.636,4.499-.79,1.849-.194,3.338-.375,4.469-.549,1.131-.167,1.951-.428,2.461-.776,.51-.341,.766-.85,.766-1.526v-.127c0-1.312-.412-2.322-1.231-3.038s-1.983-1.078-3.485-1.078c-1.586,0-2.848,.348-3.786,1.044-.937,.696-1.558,1.573-1.861,2.617l-8.152-.663c.415-1.927,1.228-3.601,2.441-5.013s2.782-2.503,4.707-3.273c1.924-.763,4.154-1.144,6.693-1.144,1.765,0,3.457,.207,5.078,.622,1.62,.408,3.062,1.051,4.323,1.921s2.257,1.981,2.988,3.34,1.098,2.985,1.098,4.872v21.43h-8.357v-4.404h-.249c-.51,.991-1.193,1.867-2.048,2.617s-1.882,1.339-3.082,1.76c-1.2,.415-2.585,.629-4.158,.629Zm2.523-6.084c1.297,0,2.441-.254,3.435-.776,.992-.515,1.772-1.218,2.337-2.095,.566-.883,.848-1.887,.848-3.005v-3.366c-.276,.174-.653,.341-1.128,.482-.475,.147-1.011,.274-1.603,.395-.594,.114-1.186,.221-1.779,.308-.594,.094-1.131,.174-1.615,.241-1.034,.147-1.938,.395-2.709,.723-.773,.328-1.374,.776-1.8,1.332-.428,.562-.641,1.252-.641,2.081,0,1.198,.437,2.115,1.313,2.744,.875,.622,1.989,.937,3.34,.937Z"/><path class="cls-1" d="M157.684,42.364V10.594h8.398v5.602h.373c.663-1.861,1.765-3.326,3.31-4.404s3.393-1.613,5.545-1.613c2.178,0,4.034,.542,5.563,1.62,1.531,1.084,2.552,2.55,3.062,4.397h.331c.648-1.82,1.824-3.279,3.527-4.37,1.703-1.098,3.719-1.646,6.05-1.646,2.967,0,5.376,.937,7.231,2.824,1.854,1.881,2.781,4.544,2.781,7.991v21.37h-8.791V22.735c0-1.767-.468-3.092-1.407-3.969-.937-.883-2.11-1.325-3.517-1.325-1.6,0-2.848,.502-3.743,1.519-.897,1.011-1.345,2.349-1.345,4.002v19.402h-8.543V22.548c0-1.559-.445-2.798-1.335-3.721-.888-.924-2.058-1.385-3.505-1.385-.98,0-1.859,.241-2.639,.729-.778,.495-1.395,1.178-1.851,2.048-.455,.877-.683,1.901-.683,3.072v19.074h-8.813Z"/><path class="cls-1" d="M225.286,42.987c-3.268,0-6.079-.663-8.429-1.994s-4.161-3.219-5.429-5.669c-1.27-2.45-1.904-5.347-1.904-8.7,0-3.266,.634-6.137,1.904-8.607,1.268-2.47,3.057-4.39,5.368-5.769s5.023-2.068,8.14-2.068c2.096,0,4.051,.335,5.864,1.004s3.4,1.673,4.758,3.005c1.359,1.339,2.416,3.018,3.176,5.04,.758,2.021,1.138,4.384,1.138,7.088v2.416h-26.831v-5.461h18.535c0-1.265-.276-2.389-.828-3.366-.55-.984-1.313-1.753-2.286-2.309-.972-.562-2.1-.837-3.381-.837-1.339,0-2.521,.308-3.549,.917-1.027,.616-1.83,1.439-2.409,2.463-.579,1.031-.877,2.168-.89,3.427v5.187c0,1.573,.293,2.931,.88,4.076,.586,1.144,1.417,2.028,2.493,2.65s2.351,.93,3.827,.93c.979,0,1.876-.141,2.689-.415s1.511-.689,2.09-1.238c.579-.555,1.021-1.231,1.323-2.028l8.15,.535c-.413,1.961-1.258,3.668-2.533,5.12-1.277,1.459-2.916,2.59-4.924,3.393-2.006,.81-4.32,1.211-6.94,1.211Z"/></g><g><path class="cls-1" d="M20.374,132.599v96.366H0v-96.366H20.374Z"/><path class="cls-1" d="M122.197,166.337h-20.609c-.376-2.667-1.147-5.043-2.305-7.13-1.161-2.084-2.651-3.866-4.471-5.34s-3.912-2.602-6.283-3.387c-2.368-.785-4.931-1.177-7.691-1.177-4.989,0-9.334,1.232-13.034,3.695-3.703,2.463-6.572,6.038-8.61,10.727-2.041,4.692-3.06,10.375-3.06,17.059,0,6.869,1.027,12.642,3.082,17.315,2.054,4.675,4.934,8.204,8.634,10.588,3.703,2.384,7.983,3.575,12.846,3.575,2.73,0,5.261-.36,7.599-1.082s4.417-1.779,6.234-3.177c1.82-1.395,3.335-3.098,4.542-5.106,1.207-2.005,2.046-4.297,2.518-6.869l20.609,.095c-.534,4.422-1.858,8.681-3.975,12.773-2.117,4.095-4.959,7.749-8.517,10.964-3.561,3.218-7.795,5.757-12.705,7.623-4.91,1.866-10.454,2.801-16.634,2.801-8.596,0-16.274-1.945-23.034-5.836-6.76-3.888-12.092-9.52-15.996-16.892-3.907-7.37-5.858-16.296-5.858-26.772s1.975-19.451,5.929-26.821c3.951-7.373,9.315-12.994,16.091-16.871,6.776-3.872,14.399-5.809,22.867-5.809,5.583,0,10.768,.785,15.552,2.351,4.782,1.569,9.027,3.853,12.727,6.847,3.703,2.994,6.722,6.659,9.059,10.986,2.335,4.329,3.833,9.288,4.493,14.871Z"/><path class="cls-1" d="M225.383,180.783c0,10.509-1.983,19.448-5.95,26.818-3.97,7.373-9.364,12.996-16.187,16.871s-14.487,5.812-22.987,5.812c-8.563,0-16.249-1.945-23.055-5.836-6.806-3.888-12.187-9.52-16.138-16.892-3.953-7.37-5.929-16.296-5.929-26.772s1.975-19.451,5.929-26.821c3.951-7.373,9.332-12.994,16.138-16.871,6.806-3.872,14.492-5.809,23.055-5.809,8.501,0,16.165,1.937,22.987,5.809,6.822,3.877,12.217,9.498,16.187,16.871,3.967,7.37,5.95,16.312,5.95,26.821Zm-20.655,0c0-6.809-1.011-12.549-3.035-17.222-2.024-4.675-4.872-8.22-8.542-10.634-3.67-2.417-7.967-3.624-12.893-3.624s-9.22,1.207-12.893,3.624c-3.67,2.414-6.514,5.959-8.539,10.634-2.024,4.673-3.035,10.413-3.035,17.222s1.011,12.547,3.035,17.219c2.024,4.675,4.869,8.22,8.539,10.634,3.673,2.417,7.969,3.624,12.893,3.624s9.223-1.207,12.893-3.624c3.67-2.414,6.517-5.959,8.542-10.634,2.024-4.673,3.035-10.413,3.035-17.219Z"/><path class="cls-1" d="M321.043,132.599v96.366h-17.598l-41.926-60.652h-.706v60.652h-20.374v-96.366h17.881l41.596,60.606h.845v-60.606h20.282Z"/></g></svg>