<svg id="Layer_1" data-name="Layer 1" xmlns="http://www.w3.org/2000/svg" viewBox="0 0 113.68 58.13"><defs><style>.cls-1{fill:#fff;}</style></defs><path class="cls-1" d="M76.83,20.87s-.35-1.34-4.17.31v.59l-1,.34-1.19-2.38a2.42,2.42,0,0,0-2.16-1.34h-3L63.71,19v-.74a1.54,1.54,0,0,0-1.54-1.53h-.5a1.55,1.55,0,0,0-1.31.73l-.89,1.44-1.11-.33H35.63l-6.74.12a.9.9,0,0,0-.91-.9h-.41a.9.9,0,0,0-.9.9v.06l-8.55.36V15.29l-1-.46-1,4v3.64H11.66V24h4.39v.55h1.73v.64l21.44,2.22,2.69,2.28s-3.83,13.46-7.55,16.66l3.07,2.79s8.16-12.46,8.33-18l1,.27,1.37.21s-.34,6.85,9.51,3.62L62,43.53l5.68-3.44L62.29,32s-.72-3,1.28-3.49l6.3,0,.45.31,1.36.07a1,1,0,0,0,1-.62h0a1,1,0,0,0-.06-.87l-.72-1.27,1.2,0s1.17-.69,3.27,9.64l1.9-.52S76.62,26.45,76.83,20.87Zm-23.23,14H51.7a1.5,1.5,0,1,1,0-3h1.9a1.5,1.5,0,1,1,0,3Z"/><path class="cls-1" d="M54.28,31.83l0,.72A1.53,1.53,0,0,1,52.45,34a.21.21,0,0,1,0-.41,1,1,0,0,0,1.11-1l0-.72a.37.37,0,1,1,.74,0Z"/></svg>