<svg id="Layer_1" data-name="Layer 1" xmlns="http://www.w3.org/2000/svg" viewBox="0 0 179.67 116.17"><defs><style>.cls-1{fill:#fff;}</style></defs><path class="cls-1" d="M107.44,51l-.34-.7h-1.55l-2.67-4.84a1.7,1.7,0,0,0-1.62-.88l-13.05,1a1.7,1.7,0,0,0-1.56,1.7v3.7l-1.05-.89-16.18.16-.52.84-3-3.62a.59.59,0,0,0-1,.37v3.77H52.57V51.2H48.24v3.26h4.31v-.63H64.73l4,1.54,1,1H85.35l1-1,1.38,1.38v2.84S87,66.4,85.7,69.74l5.88,1.82S94.1,64.7,94,61.76l6.45.21L103,67.52a1,1,0,0,0,1.15.55l3.15-.79a1,1,0,0,0,.6-1.52l-4.13-6.31s-.91-2.31,2.59-2.31l.42-2,8.47.93L131.42,63v-12Zm-42,.55V48.91a.36.36,0,0,1,.64-.23L68,51.26Zm35.3,7.73a1.32,1.32,0,0,1-1.31,1.32H97.71a1.32,1.32,0,0,1-1.31-1.32v-.2a1.32,1.32,0,0,1,1.31-1.32h1.72a1.32,1.32,0,0,1,1.31,1.32ZM89.12,50V48a1.27,1.27,0,0,1,1.17-1.27l9.78-.78a1.27,1.27,0,0,1,1.22.65l2,3.63Z"/><path class="cls-1" d="M100.07,57.75l0,.73a1.54,1.54,0,0,1-1.81,1.45.21.21,0,0,1,0-.41,1,1,0,0,0,1.14-1l0-.73a.38.38,0,1,1,.76,0Z"/></svg>