<svg id="Layer_1" data-name="Layer 1" xmlns="http://www.w3.org/2000/svg" viewBox="0 0 113.68 58.13"><defs><style>.cls-1{fill:#fff;}</style></defs><path class="cls-1" d="M62.56,22l-.34-.7H60.67L58,16.47a1.71,1.71,0,0,0-1.63-.88l-13,1.05a1.7,1.7,0,0,0-1.57,1.69V22l-1-.89-16.17.16-.52.84-3-3.63a.59.59,0,0,0-1,.38v3.77H7.68v-.49H3.36v3.26H7.67v-.63H19.85l4,1.54,1,1H40.47l1-1,1.37,1.38V30.5s-.79,6.88-2.06,10.22l5.88,1.82s2.52-6.86,2.38-9.8l6.44.21,2.59,5.55a1,1,0,0,0,1.15.55l3.16-.79A1,1,0,0,0,63,36.74l-4.13-6.31s-.91-2.31,2.59-2.31l.42-2,8.48.92L86.54,34V22Zm-42,.55V19.89a.37.37,0,0,1,.65-.23l1.86,2.58Zm35.31,7.73a1.32,1.32,0,0,1-1.32,1.31H52.83a1.32,1.32,0,0,1-1.32-1.31v-.2a1.32,1.32,0,0,1,1.32-1.32h1.71a1.32,1.32,0,0,1,1.32,1.32ZM44.23,21V19a1.28,1.28,0,0,1,1.18-1.27l9.78-.79a1.26,1.26,0,0,1,1.21.66l2,3.63Z"/><path class="cls-1" d="M55.18,28.72l0,.73a1.56,1.56,0,0,1-1.82,1.46.21.21,0,0,1,0-.41,1,1,0,0,0,1.13-1.05l0-.73a.38.38,0,1,1,.75,0Z"/></svg>