<svg id="Layer_1" data-name="Layer 1" xmlns="http://www.w3.org/2000/svg" viewBox="0 0 179.67 116.17"><defs><style>.cls-1{fill:#fff;}</style></defs><path class="cls-1" d="M75.64,51l-.34-.7H73.75l-2.68-4.84a1.69,1.69,0,0,0-1.62-.88l-13,1a1.7,1.7,0,0,0-1.57,1.7v3.7l-1.05-.89-16.17.16-.53.84-3-3.62a.59.59,0,0,0-1,.37v3.77H20.76V51.2H16.44v3.26h4.31v-.63H32.93l4,1.54,1,1H53.55l1-1L56,56.68v2.84s-.79,6.88-2.06,10.22l5.88,1.82s2.52-6.86,2.38-9.8L68.6,62l2.59,5.55a1,1,0,0,0,1.15.55l3.16-.79a1,1,0,0,0,.59-1.52L72,59.45s-.91-2.31,2.59-2.31l.42-2,8.47.93L99.62,63v-12Zm-42,.55V48.91a.37.37,0,0,1,.65-.23l1.86,2.58Zm35.31,7.73a1.33,1.33,0,0,1-1.32,1.32H65.91a1.33,1.33,0,0,1-1.32-1.32v-.2a1.32,1.32,0,0,1,1.32-1.32h1.71a1.32,1.32,0,0,1,1.32,1.32ZM57.31,50V48a1.28,1.28,0,0,1,1.18-1.27L68.27,46a1.25,1.25,0,0,1,1.21.65l2,3.63Z"/><path class="cls-1" d="M68.26,57.75l0,.73a1.55,1.55,0,0,1-1.82,1.45.21.21,0,0,1,0-.41,1,1,0,0,0,1.13-1l0-.73a.38.38,0,1,1,.75,0Z"/></svg>