<svg id="Layer_1" data-name="Layer 1" xmlns="http://www.w3.org/2000/svg" viewBox="0 0 119.38 77.19"><defs><style>.cls-1{fill:#fff;}</style></defs><path class="cls-1" d="M77.3,31.54l-.34-.7H75.41L72.74,26a1.69,1.69,0,0,0-1.63-.87l-13,1a1.7,1.7,0,0,0-1.56,1.7v3.7l-1-.89-16.18.16-.52.84-3-3.62a.59.59,0,0,0-1,.37v3.78H22.43v-.5H18.1V35h4.31v-.63H34.59l4,1.54,1,1H55.21l1-1,1.38,1.37V40s-.8,6.88-2.07,10.22l5.88,1.82s2.52-6.86,2.38-9.8l6.44.21L72.86,48a1,1,0,0,0,1.15.55l3.15-.79a1,1,0,0,0,.59-1.52L73.62,40s-.91-2.31,2.6-2.31l.42-2,8.47.93,16.17,6.91v-12Zm-42,.55V29.42a.37.37,0,0,1,.65-.23l1.86,2.58ZM70.6,39.82a1.32,1.32,0,0,1-1.32,1.32H67.57a1.32,1.32,0,0,1-1.32-1.32v-.2a1.32,1.32,0,0,1,1.32-1.32h1.71a1.32,1.32,0,0,1,1.32,1.32ZM59,30.55v-2a1.27,1.27,0,0,1,1.17-1.27l9.78-.78a1.28,1.28,0,0,1,1.22.65l2,3.63Z"/><path class="cls-1" d="M69.93,38.26l-.05.73a1.55,1.55,0,0,1-1.81,1.45.21.21,0,0,1,0-.41,1,1,0,0,0,1.13-1l0-.73a.38.38,0,1,1,.76,0Z"/></svg>