<?xml version="1.0" encoding="UTF-8"?><svg id="Layer_4" xmlns="http://www.w3.org/2000/svg" viewBox="0 0 86 75"><defs><style>.cls-1{fill:#fff;}</style></defs><g><polygon class="cls-1" points="69.77 25.853 32.361 63.262 32.361 66.842 51.972 66.842 51.972 45.463 73.35 45.463 73.35 25.853 69.77 25.853"/><polygon class="cls-1" points="51.972 8.395 51.972 4.474 32.361 4.474 32.361 25.853 10.983 25.853 10.983 45.463 14.903 45.463 51.972 8.395"/></g><g><rect class="cls-1" x="28.956" y="32.926" width="11.371" height="20.854" transform="translate(40.801 -11.798) rotate(45)"/><path class="cls-1" d="M61.062,21.944L82.005,1h-10.021s-15.933,15.933-15.933,15.933l-5-5L13.296,49.688l4.49,4.49-6.03,6.03,6.03,6.03,6.03-6.03,4.49,4.49L66.062,26.944l-5-5ZM31.469,57.363l-10.837-10.837,27.257-27.257,10.837,10.837-27.257,27.257Z"/><rect class="cls-1" x="1.441" y="64.044" width="21.229" height="3.79" rx="1.895" ry="1.895" transform="translate(50.157 10.789) rotate(45)"/></g></svg>