<?xml version="1.0" encoding="UTF-8"?><svg id="Layer_4" xmlns="http://www.w3.org/2000/svg" viewBox="0 0 86 75"><defs><style>.cls-1{fill:#fff;}</style></defs><path class="cls-1" d="M12.587,4.426V70.574c0,1.892,1.534,3.426,3.426,3.426h53.373c1.892,0,3.426-1.534,3.426-3.426V4.426c0-1.892-1.534-3.426-3.426-3.426H16.014c-1.892,0-3.426,1.534-3.426,3.426Zm49.765,61.049H23.047c-1.892,0-3.426-1.534-3.426-3.426V12.951c0-1.892,1.534-3.426,3.426-3.426H62.353c1.892,0,3.426,1.534,3.426,3.426V62.049c0,1.892-1.534,3.426-3.426,3.426Z"/><polygon class="cls-1" points="12.587 47.124 3.45 47.124 3.45 27.876 12.587 27.876 12.587 30.862 6.436 30.862 6.436 44.138 12.587 44.138 12.587 47.124"/><polygon class="cls-1" points="81.949 47.124 72.812 47.124 72.812 44.138 78.964 44.138 78.964 30.862 72.812 30.862 72.812 27.876 81.949 27.876 81.949 47.124"/><g><path class="cls-1" d="M26.017,40.173V19.021l6.333-5.359h-2.788l-6.607,5.59v20.921c0,.936,.758,1.694,1.694,1.694h2.186c-.495-.402-.818-1.008-.818-1.694Z"/><path class="cls-1" d="M30.844,42.365h-2.636c-.146,0-.287-.016-.425-.043v20.636h2.033s.3-1.161,1.028-2.688v-17.905Z"/><path class="cls-1" d="M55.838,13.662h-21.947l-6.879,5.821v20.69c0,.66,.537,1.197,1.196,1.197h3.631v21.588h1.891s2.142-8.334,8.969-9.713c6.827,1.379,8.969,9.713,8.969,9.713h2.033v-4.272c1.356,2.23,1.882,4.272,1.882,4.272h2.033v-21.091h3.134c.936,0,1.694-.758,1.694-1.694V19.252l-6.607-5.59Zm-1.652,19.566h-19.058v-1.779h19.058v1.779Zm0-4.701h-19.058v-1.779h19.058v1.779Zm0-4.701h-19.058v-1.779h19.058v1.779Z"/></g></svg>