<?xml version="1.0" encoding="UTF-8"?><svg id="Layer_4" xmlns="http://www.w3.org/2000/svg" viewBox="0 0 86 75"><defs><style>.cls-1{fill:#fff;}</style></defs><path class="cls-1" d="M43.986,21.05h0c-2.013-2.013-5.276-2.013-7.289,0l-1.548,1.548-1.548-1.548c-2.013-2.013-5.276-2.013-7.288,0h0c-2.013,2.013-2.013,5.276,0,7.289l1.548,1.548,7.289,7.288,7.289-7.288,1.548-1.548c2.013-2.013,2.013-5.276,0-7.288Z"/><rect class="cls-1" x="5.208" y="68.411" width="75.584" height="5.589"/><path class="cls-1" d="M73.34,1h3.731c2.053,0,3.72,1.667,3.72,3.72V39.668h-7.452V1h0Z"/><path class="cls-1" d="M74.804,43.926c-3.454,0-6.254-2.8-6.254-6.254V1H14.03c-4.872,0-8.821,3.95-8.821,8.822v54.254H80.792v-20.149h-5.988Zm-17.432-.399c0,2.572-2.085,4.658-4.657,4.658H17.584c-2.572,0-4.657-2.085-4.657-4.658V13.187c0-2.572,2.085-4.657,4.657-4.657H52.714c2.572,0,4.657,2.085,4.657,4.657v30.34Z"/></svg>