<?xml version="1.0" encoding="UTF-8"?><svg id="Layer_4" xmlns="http://www.w3.org/2000/svg" viewBox="0 0 86 75"><defs><style>.cls-1{fill:#fff;}.cls-2{fill:#1d2833;}</style></defs><g><rect class="cls-1" x="44.554" y="53.702" width="14.673" height="6.594"/><polygon class="cls-1" points="44.554 64.798 41.43 64.798 41.43 61.501 26.773 61.501 26.773 68.095 59.228 68.095 59.228 61.501 44.554 61.501 44.554 64.798"/><rect class="cls-1" x="44.554" y="45.902" width="14.673" height="6.593"/><rect class="cls-1" x="26.773" y="14.704" width="14.657" height="6.594"/><rect class="cls-1" x="26.773" y="53.702" width="14.657" height="6.594"/><rect class="cls-1" x="26.773" y="45.902" width="14.657" height="6.593"/><polygon class="cls-1" points="26.773 44.696 41.43 44.696 41.43 43.116 44.554 43.116 44.554 44.696 59.228 44.696 59.228 38.103 26.773 38.103 26.773 44.696"/><path class="cls-1" d="M20.986,1V74h44.027V1H20.986Zm31.434,1.468h7.41v1.704h-7.41v-1.704Zm-26.251,0h7.41v1.704h-7.41v-1.704Zm7.41,70.065h-7.41v-1.704h7.41v1.704Zm26.251,0h-7.41v-1.704h7.41v1.704Zm.603-59.034v55.802H25.567V5.699H60.434v7.799Z"/><polygon class="cls-1" points="41.43 11.06 44.554 11.06 44.554 13.499 59.228 13.499 59.228 6.905 26.773 6.905 26.773 13.499 41.43 13.499 41.43 11.06"/><rect class="cls-1" x="26.773" y="30.304" width="32.455" height="6.593"/><polygon class="cls-1" points="44.554 25.452 41.43 25.452 41.43 22.504 26.773 22.504 26.773 29.098 59.228 29.098 59.228 22.504 44.554 22.504 44.554 25.452"/><rect class="cls-1" x="44.554" y="14.704" width="14.673" height="6.594"/></g><polygon class="cls-1" points="42.992 40.304 36.041 28.264 49.943 28.264 42.992 40.304"/><path class="cls-2" d="M42.992,41.607c-.466,0-.896-.249-1.129-.652l-6.951-12.04c-.233-.404-.233-.9,0-1.304,.233-.403,.663-.652,1.129-.652h13.902c.466,0,.896,.249,1.129,.652,.233,.403,.233,.9,0,1.304l-6.951,12.04c-.233,.403-.663,.652-1.129,.652Zm-4.693-12.04l4.693,8.129,4.693-8.129h-9.386Z"/></svg>