<?xml version="1.0" encoding="UTF-8"?>
<svg id="Layer_4" data-name="Layer 4" xmlns="http://www.w3.org/2000/svg" viewBox="0 0 86 75">
  <defs>
    <style>
      .cls-1 {
        fill: #fff;
        stroke-width: 0px;
      }
    </style>
  </defs>
  <path class="cls-1" d="M43.99,21.05h0c-2.01-2.01-5.28-2.01-7.29,0l-1.55,1.55-1.55-1.55c-2.01-2.01-5.28-2.01-7.29,0h0c-2.01,2.01-2.01,5.28,0,7.29l1.55,1.55,7.29,7.29,7.29-7.29,1.55-1.55c2.01-2.01,2.01-5.28,0-7.29Z"/>
  <rect class="cls-1" x="5.21" y="68.41" width="75.58" height="5.59"/>
  <path class="cls-1" d="M73.34,1h0c4.11,0,7.45,3.34,7.45,7.45v31.22h-7.45V1h0Z"/>
  <path class="cls-1" d="M74.8,43.93c-3.45,0-6.25-2.8-6.25-6.25V1H14.03c-4.87,0-8.82,3.95-8.82,8.82v54.25h75.58v-20.15h-5.99ZM57.37,43.53c0,2.57-2.09,4.66-4.66,4.66H17.58c-2.57,0-4.66-2.09-4.66-4.66V13.19c0-2.57,2.09-4.66,4.66-4.66h35.13c2.57,0,4.66,2.09,4.66,4.66v30.34Z"/>
</svg>