<?xml version="1.0" encoding="UTF-8"?><svg id="Layer_4" xmlns="http://www.w3.org/2000/svg" viewBox="0 0 86 75"><defs><style>.cls-1{fill:#fff;}</style></defs><g><path class="cls-1" d="M68.467,14.442c1.773,0,3.217-1.443,3.217-3.217s-1.443-3.217-3.217-3.217-3.217,1.443-3.217,3.217,1.443,3.217,3.217,3.217Z"/><path class="cls-1" d="M17.667,14.442c1.773,0,3.217-1.443,3.217-3.217s-1.443-3.217-3.217-3.217-3.217,1.443-3.217,3.217,1.443,3.217,3.217,3.217Z"/><path class="cls-1" d="M63.723,63.62c-5.697,4.53-12.896,7.247-20.723,7.247-8.115,0-15.561-2.915-21.351-7.749l3.865-3.481c4.849,3.712,10.908,5.922,17.487,5.922,6.415,0,12.339-2.1,17.126-5.646l3.567,3.213c.055-2.59,2.17-4.683,4.773-4.683,1.313,0,2.502,.533,3.367,1.392,4.797-6.178,7.666-13.924,7.666-22.333,0-8.561-2.971-16.437-7.925-22.669-.838,.724-1.916,1.177-3.108,1.177-2.638,0-4.783-2.145-4.783-4.783,0-1.136,.415-2.168,1.079-2.989-6.082-4.536-13.609-7.236-21.763-7.236s-15.613,2.676-21.681,7.174c.695,.831,1.13,1.886,1.13,3.051,0,.007-.002,.013-.002,.02,5.67-4.448,12.803-7.112,20.552-7.112,7.805,0,14.987,2.701,20.676,7.208l-2.992,2.695c-4.882-3.805-11.016-6.077-17.684-6.077s-12.743,2.25-17.613,6.021l-2.947-2.655c-.055,2.591-2.169,4.683-4.773,4.683-1.229,0-2.34-.479-3.188-1.243-4.986,6.242-7.98,14.143-7.98,22.735,0,8.257,2.769,15.872,7.411,21.994,.816-.649,1.835-1.052,2.956-1.052,2.638,0,4.783,2.146,4.783,4.783,0,1.15-.425,2.192-1.103,3.018,6.198,4.852,13.99,7.757,22.453,7.757,8.279,0,15.912-2.784,22.043-7.447-.75-.772-1.224-1.798-1.319-2.933Zm-20.723-3.594c-4.941,0-9.519-1.545-13.287-4.172l3.972-3.578c2.724,1.639,5.904,2.599,9.315,2.599,3.244,0,6.282-.864,8.917-2.357l3.994,3.597c-3.694,2.469-8.133,3.911-12.91,3.911Zm-11.002-23.267c0-6.067,4.935-11.002,11.001-11.002s11.002,4.935,11.002,11.002-4.935,11.001-11.002,11.001-11.001-4.935-11.001-11.001Zm36.927-20.232c4.648,5.735,7.441,13.032,7.441,20.973,0,7.808-2.703,14.991-7.212,20.682l-3.375-3.811c3.771-4.87,6.02-10.976,6.02-17.612,0-6.409-2.096-12.328-5.637-17.112l2.762-3.119Zm-10.106,11.413l3.573-4.035c2.446,3.683,3.874,8.101,3.874,12.854,0,4.981-1.57,9.593-4.236,13.377l-3.548-4.006c1.66-2.737,2.634-5.937,2.634-9.371,0-3.203-.839-6.207-2.297-8.818Zm-15.819-14.448c5.032,0,9.687,1.603,13.493,4.318l-3.958,3.565c-2.772-1.722-6.032-2.733-9.535-2.733-3.47,0-6.701,.993-9.456,2.685l-3.963-3.569c3.793-2.683,8.42-4.265,13.419-4.265ZM16.532,57.783c-4.321-5.626-6.899-12.657-6.899-20.283,0-7.977,2.817-15.306,7.504-21.053l2.759,3.116c-3.577,4.799-5.696,10.75-5.696,17.196s2.123,12.41,5.708,17.212l-3.376,3.813Zm3.201-21.024c0-4.79,1.449-9.241,3.93-12.941l3.571,4.034c-1.49,2.632-2.352,5.667-2.352,8.907s.866,6.289,2.362,8.925l-3.571,4.033c-2.488-3.704-3.941-8.161-3.941-12.958Z"/><path class="cls-1" d="M68.467,60.008c-1.774,0-3.217,1.443-3.217,3.217s1.443,3.217,3.217,3.217,3.217-1.443,3.217-3.217-1.443-3.217-3.217-3.217Z"/><path class="cls-1" d="M16.867,60.008c-1.773,0-3.217,1.443-3.217,3.217s1.443,3.217,3.217,3.217,3.217-1.443,3.217-3.217-1.443-3.217-3.217-3.217Z"/></g><circle class="cls-1" cx="43" cy="36.759" r="8.643"/></svg>