<?xml version="1.0" encoding="UTF-8"?><svg id="Layer_4" xmlns="http://www.w3.org/2000/svg" viewBox="0 0 86 75"><defs><style>.cls-1{fill:#fff;}</style></defs><path class="cls-1" d="M82.021,42.109c-1.905,0-3.45,1.545-3.45,3.45,0,.063,.015,.122,.019,.185-1.464,2.374-4.925,1.579-4.925,1.579,0-3.833-5.52-2.76-5.52-2.76v11.346H17.855v-11.346s-5.52-1.073-5.52,2.76c0,0-3.461,.796-4.925-1.579,.003-.062,.019-.121,.019-.185,0-1.905-1.545-3.45-3.45-3.45s-3.45,1.545-3.45,3.45,1.544,3.45,3.45,3.45c.792,0,1.512-.277,2.094-.726,.258,.428,4.625,7.626,6.262,7.626v8.126h61.33v-8.126c1.637,0,6.004-7.198,6.262-7.626,.582,.449,1.303,.726,2.094,.726,1.905,0,3.45-1.545,3.45-3.45s-1.544-3.45-3.45-3.45Z"/><polygon class="cls-1" points="62.804 44.766 62.804 50.235 60.045 50.235 60.045 44.766 57.54 44.766 57.54 50.235 54.78 50.235 54.78 44.766 52.276 44.766 52.276 50.235 49.516 50.235 49.516 44.766 47.012 44.766 47.012 50.235 44.252 50.235 44.252 44.766 41.748 44.766 41.748 50.235 38.988 50.235 38.988 44.766 36.484 44.766 36.484 50.235 33.724 50.235 33.724 44.766 31.22 44.766 31.22 50.235 28.46 50.235 28.46 44.766 25.955 44.766 25.955 50.235 23.196 50.235 23.196 44.766 20.691 44.766 20.691 50.235 20.691 53.071 65.309 53.071 65.309 50.235 65.309 44.766 62.804 44.766"/><g><polygon class="cls-1" points="15.945 69.017 15.945 70.55 15.945 74 18.245 74 18.245 70.55 25.438 70.55 25.438 69.017 15.945 69.017"/><polygon class="cls-1" points="70.055 69.017 70.055 70.55 70.055 74 67.755 74 67.755 70.55 60.562 70.55 60.562 69.017 70.055 69.017"/></g><g><path class="cls-1" d="M14.414,14.157c3.526-4.387,7.981-7.676,12.9-9.869s10.303-3.289,15.686-3.288,10.767,1.098,15.686,3.291,9.374,5.482,12.9,9.867c.89,1.1-.598,2.6-1.699,1.698-7.685-6.173-17.089-9.72-26.887-9.755,0,0-3.595,.148-3.595,.148-3.488,.371-7.25,1.186-10.54,2.364-4.547,1.664-8.813,4.14-12.751,7.243-1.101,.89-2.598-.585-1.699-1.699h0Z"/><path class="cls-1" d="M31.591,17.142c3.573-1.591,7.491-2.386,11.409-2.385s7.835,.796,11.409,2.387,6.781,3.994,9.343,7.158c.646,.798-.436,1.887-1.233,1.233-5.476-4.497-12.219-6.877-19.149-7.06-.123-.003-.665,.01-1.222,.028-.596,.019-1.209,.039-1.341,.047-2.513,.161-5.154,.742-7.539,1.553-3.26,1.109-6.349,2.788-9.175,4.965-.762,.587-1.671,.032-1.461-.383,.084-.167,.037-.893,.582-1.484h0c2.36-2.641,5.233-4.66,8.377-6.059Z"/><path class="cls-1" d="M30.083,34.445c1.555-1.978,3.558-3.461,5.785-4.45s4.679-1.483,7.131-1.483,4.904,.495,7.131,1.484,4.231,2.472,5.786,4.449c.413,.487-.283,1.184-.768,.767-3.523-2.92-7.836-4.379-12.149-4.378s-8.626,1.46-12.15,4.379c-.482,.418-1.188-.287-.768-.768h0Z"/></g></svg>