<svg id="Layer_1" data-name="Layer 1" xmlns="http://www.w3.org/2000/svg" viewBox="0 0 198.76 124.52"><defs><style>.cls-1{fill:#fff;}.cls-2{fill:none;stroke:#fff;stroke-miterlimit:10;stroke-width:2.32px;}</style></defs><path class="cls-1" d="M937.67,256H785.05A23.07,23.07,0,0,0,762,279.09v78.38a23.07,23.07,0,0,0,23.07,23.07H937.67a23.07,23.07,0,0,0,23.07-23.07V279.09A23.07,23.07,0,0,0,937.67,256Zm-4.73,103.52H789.78V277H932.94Z" transform="translate(-761.98 -256.02)"/><line class="cls-2" x1="100.59" y1="82.35" x2="100.59" y2="63.49"/><path class="cls-1" d="M865.62,319.68a3.05,3.05,0,1,0-3,3.05A3,3,0,0,0,865.62,319.68Z" transform="translate(-761.98 -256.02)"/><path class="cls-1" d="M866,319.68a3.46,3.46,0,1,1-3.45-3.46,3.46,3.46,0,0,1,3.45,3.46Zm-6.1,0a2.65,2.65,0,1,0,2.65-2.65,2.65,2.65,0,0,0-2.65,2.65Z" transform="translate(-761.98 -256.02)"/><polyline class="cls-2" points="95.09 82.88 95.09 70.41 87.25 70.41 87.25 64.08"/><circle class="cls-1" cx="87.25" cy="64.25" r="3.05"/><path class="cls-1" d="M852.69,320.27a3.46,3.46,0,1,1-3.46-3.46,3.46,3.46,0,0,1,3.46,3.46Zm-6.1,0a2.65,2.65,0,1,0,2.64-2.64,2.64,2.64,0,0,0-2.64,2.64Z" transform="translate(-761.98 -256.02)"/><line class="cls-2" x1="100.59" y1="74.31" x2="110.3" y2="69.06"/><path class="cls-1" d="M873.57,327.84a3,3,0,1,0-4.13-1.23A3,3,0,0,0,873.57,327.84Z" transform="translate(-761.98 -256.02)"/><path class="cls-1" d="M873.77,328.2a3.46,3.46,0,1,1,1.39-4.68,3.46,3.46,0,0,1-1.39,4.68C872.09,329.1,875.44,327.29,873.77,328.2Zm-2.9-5.37a2.65,2.65,0,1,0,3.58,1.07,2.66,2.66,0,0,0-3.58-1.07Z" transform="translate(-761.98 -256.02)"/><path class="cls-1" d="M801.37,318.28a84.8,84.8,0,0,0,120,0A84.78,84.78,0,0,0,801.37,318.28Zm60,20.13a20.13,20.13,0,1,1,20.13-20.13A20.13,20.13,0,0,1,861.36,338.41Z" transform="translate(-761.98 -256.02)"/></svg>