<?xml version="1.0" encoding="UTF-8"?><svg id="Layer_1" xmlns="http://www.w3.org/2000/svg" viewBox="0 0 198.762 124.522"><defs><style>.cls-1{fill:#fff;}.cls-2{fill:none;stroke:#fff;stroke-miterlimit:10;stroke-width:2.317px;}</style></defs><path class="cls-1" d="M175.692,0H23.071C10.329,0,0,10.329,0,23.071V101.451c0,12.742,10.329,23.071,23.071,23.071H175.692c12.742,0,23.071-10.329,23.071-23.071V23.071c0-12.742-10.329-23.071-23.071-23.071Zm-4.732,103.522H27.803V21H170.959V103.522Z"/><g><line class="cls-2" x1="100.587" y1="82.346" x2="100.587" y2="63.489"/><g><path class="cls-1" d="M103.636,63.661c0-1.684-1.366-3.049-3.049-3.049s-3.049,1.365-3.049,3.049,1.365,3.049,3.049,3.049,3.049-1.365,3.049-3.049Z"/><path class="cls-1" d="M104.042,63.661c0,1.905-1.55,3.454-3.455,3.454s-3.454-1.55-3.454-3.454,1.55-3.454,3.454-3.454,3.455,1.55,3.455,3.454,0-1.905,0,0Zm-6.098,0c0,1.458,1.186,2.644,2.643,2.644s2.644-1.186,2.644-2.644-1.186-2.643-2.644-2.643-2.643,1.186-2.643,2.643,0-1.458,0,0Z"/></g></g><g><polyline class="cls-2" points="95.093 82.883 95.093 70.411 87.254 70.411 87.254 64.08"/><g><circle class="cls-1" cx="87.254" cy="64.253" r="3.049"/><path class="cls-1" d="M90.709,64.253c0,1.905-1.55,3.454-3.455,3.454s-3.454-1.55-3.454-3.454,1.55-3.454,3.454-3.454,3.455,1.55,3.455,3.454,0-1.905,0,0Zm-6.098,0c0,1.458,1.186,2.644,2.644,2.644s2.644-1.186,2.644-2.644-1.186-2.643-2.644-2.643-2.644,1.186-2.644,2.643,0-1.458,0,0Z"/></g></g><g><line class="cls-2" x1="100.587" y1="74.306" x2="110.297" y2="69.062"/><g><path class="cls-1" d="M111.594,71.827c1.481-.8,2.034-2.65,1.234-4.131-.8-1.481-2.65-2.034-4.132-1.234-1.481,.8-2.034,2.65-1.233,4.131,.8,1.481,2.65,2.034,4.131,1.234Z"/><path class="cls-1" d="M111.786,72.184c-1.676,.905-3.776,.278-4.681-1.398-.905-1.676-.278-3.776,1.398-4.681,1.676-.905,3.776-.278,4.681,1.398,.905,1.676,.278,3.776-1.398,4.681-1.676,.905,1.676-.905,0,0Zm-2.897-5.365c-1.283,.693-1.763,2.299-1.07,3.582s2.299,1.763,3.582,1.07,1.763-2.299,1.07-3.582-2.299-1.763-3.582-1.07,1.283-.693,0,0Z"/></g></g><path class="cls-1" d="M39.385,62.261c33.162,33.162,86.83,33.162,119.992,0-33.162-33.162-86.83-33.162-119.992,0Zm59.996,20.129c-11.117,0-20.129-9.012-20.129-20.129s9.012-20.129,20.129-20.129,20.129,9.013,20.129,20.129-9.012,20.129-20.129,20.129Z"/></svg>