<?xml version="1.0" encoding="UTF-8"?><svg id="Layer_1" xmlns="http://www.w3.org/2000/svg" viewBox="0 0 193.95 193.949"><defs><style>.cls-1{fill:#fff;}</style></defs><path class="cls-1" d="M114.327,121.82c0-9.583-7.769-17.353-17.352-17.353s-17.352,7.769-17.352,17.353,7.769,17.352,17.352,17.352,17.352-7.769,17.352-17.352Zm-17.352,12.226c-6.752,0-12.226-5.473-12.226-12.226s5.474-12.225,12.226-12.225,12.226,5.473,12.226,12.225-5.474,12.226-12.226,12.226Z"/><path class="cls-1" d="M183.715,134.187c-11.39-11.086-28.573-12.496-41.479-4.44l-5.353-5.21c5.417-7.828,8.598-17.322,8.598-27.562,0-10.711-3.479-20.606-9.358-28.631l5.21-5.353c13.119,7.704,30.258,5.83,41.343-5.56,13.033-13.39,12.743-34.81-.647-47.843-13.39-13.033-34.81-12.743-47.843,.646-11.086,11.39-12.496,28.573-4.44,41.478l-5.21,5.352c-7.829-5.417-17.322-8.598-27.562-8.598-10.711,0-20.605,3.479-28.631,9.358l-5.353-5.21c7.704-13.119,5.83-30.257-5.56-41.343C44.042-1.76,22.621-1.471,9.588,11.919c-13.033,13.39-12.743,34.81,.646,47.843,11.39,11.086,28.573,12.496,41.479,4.44l5.353,5.21c-5.417,7.829-8.598,17.322-8.598,27.563,0,10.711,3.479,20.605,9.358,28.631l-5.21,5.353c-13.119-7.704-30.258-5.83-41.343,5.56-13.033,13.39-12.743,34.81,.647,47.843,13.39,13.033,34.81,12.743,47.843-.646,11.086-11.39,12.496-28.573,4.44-41.478l5.21-5.353c7.828,5.417,17.322,8.598,27.562,8.598,10.711,0,20.606-3.479,28.631-9.358l5.353,5.21c-7.704,13.119-5.83,30.258,5.56,41.343,13.39,13.033,34.81,12.743,47.843-.647,13.033-13.39,12.743-34.81-.646-47.843ZM145.571,15.852l26.617,3.848,4.566,26.503-23.796,12.532-3.843-3.74,4.382-4.502-11.587-11.278-4.382,4.502-3.843-3.74,11.885-24.125ZM50.494,40.452l-11.278,11.587,4.502,4.382-3.74,3.843-24.125-11.885,3.848-26.617,26.503-4.566,12.532,23.796-3.74,3.843-4.502-4.382Zm-2.115,137.645l-26.617-3.848-4.566-26.503,23.796-12.532,3.843,3.74-4.382,4.502,11.587,11.278,4.382-4.502,3.843,3.74-11.885,24.125Zm48.596-38.925c-16.335,0-29.578-13.243-29.578-29.578s13.242-29.578,29.578-29.578,29.578,13.243,29.578,29.578-13.242,29.578-29.578,29.578Zm77.275,33.016l-26.503,4.566-12.532-23.796,3.74-3.843,4.502,4.382,11.278-11.587-4.502-4.382,3.74-3.843,24.125,11.885-3.848,26.617Z"/></svg>