<?xml version="1.0" encoding="UTF-8"?><svg id="Layer_1" xmlns="http://www.w3.org/2000/svg" viewBox="0 0 180.761 77.69"><defs><style>.cls-1{fill:#fff;}</style></defs><polygon class="cls-1" points="41.705 17.648 41.705 0 24.057 0 0 0 0 77.69 24.057 77.69 41.705 77.69 41.705 60.043 24.057 60.043 24.057 17.648 41.705 17.648"/><rect class="cls-1" x="47.276" width="5.916" height="77.69"/><path class="cls-1" d="M93.321,45.648c3.757,0,6.803-3.046,6.803-6.803s-3.045-6.803-6.803-6.803c-2.848,0-5.28,1.754-6.294,4.237H53.192v5.028h33.804c.988,2.536,3.44,4.34,6.326,4.34Z"/><path class="cls-1" d="M104.625,38.845c0,.689-.321,1.341-.782,1.968h76.918v-3.936H103.843c.461,.627,.782,1.279,.782,1.968Z"/></svg>