<svg id="Layer_1" data-name="Layer 1" xmlns="http://www.w3.org/2000/svg" viewBox="0 0 113.68 58.13"><defs><style>.cls-1{fill:#fff;}</style></defs><path class="cls-1" d="M53.92,50.36H46.14c-1.36,0,.8,1.7.8,1.7h6.17S55.27,50.36,53.92,50.36Z"/><path class="cls-1" d="M54.93,47.06H45.12c-1.68,0,1,2.11,1,2.11h7.81S56.62,47.06,54.93,47.06Z"/><path class="cls-1" d="M55.52,44h-11c-1.78,0,1.06,2.23,1.06,2.23h8.88S57.3,44,55.52,44Z"/><path class="cls-1" d="M50,8.32h0c-19.85,0-9.77,21.77-8.61,23.51s3.27,10.6,3.27,10.6h10.7s2-8.73,3.26-10.6S70.78,8.32,50,8.32Z"/></svg>