<?xml version="1.0" encoding="UTF-8"?>
<svg id="Layer_2" data-name="Layer 2" xmlns="http://www.w3.org/2000/svg" xmlns:xlink="http://www.w3.org/1999/xlink" viewBox="0 0 509.6170212766 259.4042553191">
  <defs>
    <style>
      .cls-1 {
        fill: #fff;
      }

      .cls-2 {
        fill: #0b1416;
      }

      .cls-3 {
        fill: #69846b;
      }

      .cls-4 {
        fill: #465741;
      }

      .cls-5 {
        fill: #000020;
      }

      .cls-6 {
        fill: #333;
      }

      .cls-7 {
        fill: #8d807c;
      }

      .cls-8 {
        clip-path: url(#clippath);
      }

      .cls-9 {
        fill: #806258;
      }

      .cls-10, .cls-11 {
        fill: none;
      }

      .cls-12 {
        fill: #334845;
      }

      .cls-13 {
        fill: #ed1c24;
      }

      .cls-14 {
        fill: #1a1a1a;
      }

      .cls-11 {
        stroke: #fff;
        stroke-miterlimit: 10;
        stroke-width: 2.5347465418px;
      }
    </style>
    <clipPath id="clippath">
      <path class="cls-10" d="M275.1846873861,41.6403197006v-6.9465399445c0-14.6376332092-11.6219714686-26.5590194905-26.1414605241-27.0444194136l.0000628594-.0172548924h-.0000471445c-.1538325514,0-.3068793609,.0032529715-.4600990335,.0058144901-.1532196727-.0025615186-.306282197-.0058144901-.4601147484-.0058144901h-.0000628594l.0000628594,.0172548924c-14.5194890554,.4853999231-26.141460524,12.4067862044-26.141460524,27.0444194136v6.9465399445c-1.9283049392,3.2430397348,1.6653485512,9.1155962053,1.6653485512,9.1155962053-.5258970612,1.6653485512,10.2550476953,15.777006125,10.2550476953,15.777006125,0,0,10.3427050629,8.8526398173,11.9204119614,10.4303467157,.5290714585,.5290714585,4.9924469557,.5290714585,5.5215184142,0,1.5776911836-1.5777068984,11.9203962465-10.4303467157,11.9203962465-10.4303467157,0,0,10.7809447565-14.1116575738,10.2550476953-15.777006125,0,0,3.5936534905-5.8725564705,1.6653485512-9.1155962053Z"/>
    </clipPath>
  </defs>
  <g>
    <path class="cls-4" d="M287.5559533752,69.1624230518c-2.3994200744-2.1036039596-10.8795553664,0-10.8795553664,0,.3944267246-6.5737525521-7.2760643872-10.5494494746-7.2760643872-10.5494494746l-20.6411885711,15.5454951283-20.6411885711-15.5454951283s-7.670475397,3.9756969225-7.2760643872,10.5494494746c0,0-8.480135292-2.1036039596-10.8795553664,0-2.3994200744,2.1035882448-15.3497039588,58.2872464371,0,63.0641801014h77.5936166494c15.3497196737-4.7769336643,2.3994200744-60.9605918566,0-63.0641801014Z"/>
    <g>
      <path class="cls-3" d="M275.1846873861,41.6403197006v-6.9465399445c0-14.6376332092-11.6219714686-26.5590194905-26.1414605241-27.0444194136l.0000628594-.0172548924h-.0000471445c-.1538325514,0-.3068793609,.0032529715-.4600990335,.0058144901-.1532196727-.0025615186-.306282197-.0058144901-.4601147484-.0058144901h-.0000628594l.0000628594,.0172548924c-14.5194890554,.4853999231-26.141460524,12.4067862044-26.141460524,27.0444194136v6.9465399445c-1.9283049392,3.2430397348,1.6653485512,9.1155962053,1.6653485512,9.1155962053-.5258970612,1.6653485512,10.2550476953,15.777006125,10.2550476953,15.777006125,0,0,10.3427050629,8.8526398173,11.9204119614,10.4303467157,.5290714585,.5290714585,4.9924469557,.5290714585,5.5215184142,0,1.5776911836-1.5777068984,11.9203962465-10.4303467157,11.9203962465-10.4303467157,0,0,10.7809447565-14.1116575738,10.2550476953-15.777006125,0,0,3.5936534905-5.8725564705,1.6653485512-9.1155962053Z"/>
      <path d="M266.6673012371,44.8606033466l-1.4587455731-5.9675683824c-.5490764476-2.246263261-2.5620843648-3.8264688188-4.8745070948-3.8264688188h-23.1498110563c-2.3124070151,0-4.3254149324,1.5802055577-4.8745070948,3.8264688188l-1.4587298582,5.9675683824c-.2893887459,1.183845908,.3010491559,2.4066960445,1.4080966495,2.9162811036l9.6336672771,4.4345544839c1.361030709,.6265034555,2.9682343588,.339016205,4.0276973222-.7204467584l1.1474031982-1.1473874833c1.0829095021-1.0829095021,1.6912780343-2.5516654271,1.6912780343-4.0831392715,0,1.5314738444,.608384247,3.0002297694,1.6912937491,4.0831392715l1.1474031982,1.1473874833c1.0594472486,1.0594629635,2.6666666132,1.3469502139,4.0276816074,.7204467584l9.6336672771-4.4345544839c1.1070474936-.5095850591,1.6975011102-1.7324351956,1.4081123643-2.9162811036Z"/>
      <path class="cls-4" d="M254.0838875013,59.8934249485c-.7705413448-.1622131075-2.6168963847-1.1250409355-3.9184255799-1.838918015-.8768453379-.4809417963-1.9357779223-.4809417963-2.8126232602,0-1.3015291952,.7138770795-3.1478842351,1.6767049075-3.9184255799,1.838918015-1.2294994774,.2588476945,.5348663051,11.5376558522,5.1049921654,11.1376047038,.1465249181-.0128262248,.2929651712-.0128262248,.4394900892,0,4.5701258602,.4000511484,6.3344916428-10.8787570093,5.1049921654-11.1376047038Z"/>
      <g class="cls-8">
        <g>
          <path class="cls-2" d="M252.3842301817,15.6145999607V7.6321054502h-2.1603973006v7.9092544725h-2.9293651796V7.6321054502h-2.1603973006v7.9824945105s-3.8447737442,9.9964248651-14.6101533582,9.9231848271v7.1403128538s7.2501466505-.8788148059,7.4698536346-.8788148059c.2196938539,0,4.979902423-.5858677838,4.979902423-.5858677838,0,0,5.0531424611-.146466946,5.7854771909,0,.7323347298-.146466946,5.7854771909,0,5.7854771909,0,0,0,4.7602085692,.5858677838,4.9799024231,.5858677838,.219706984,0,7.4698536346,.8788148059,7.4698536346,.8788148059v-7.1403128538c-10.765379614,.0732400381-14.6101533582-9.9231848271-14.6101533582-9.9231848271Z"/>
          <path class="cls-2" d="M240.5569546635,11.4036520072h4.5771157375v8.2754297993h-5.1629876793c-.4449051342,0-.805572008-.360666868-.8055720067-.8055720067v-6.078413844c0-.768473273,.6229706755-1.3914439485,1.3914439485-1.3914439485Z"/>
        </g>
      </g>
    </g>
  </g>
  <g>
    <path d="M113.5285134956,53.1157797968s-5.8702622472-2.3307185664-10.7188516189,1.7370449693c-4.8485893717,4.0677635357-11.4449626729,24.2526658371-34.4003417608,6.8382403222,0,0-3.6721840095-3.2981866506-4.3427138592,2.9024042525-.6705298496,6.2005909031,4.3427138592,12.6650367382,4.3427138592,12.6650367382l-18.8986095077,7.6517930293s-12.0480567172,7.990985145-11.3884193871,16.4343429704c.6596373301,8.4433578254-2.8818756435,31.9940310153,2.054551166,31.9940310153h103.5626974302s2.9687313829-42.7335050361-.4613827337-49.5937332692c0,0-7.0581194322-6.2225788137-13.9183476654-7.2779985419,0,0-7.2560106312-7.9156479613-13.7204564663-6.8602282332,0,0,1.3192746602-14.3800937964-2.1108394564-16.4909332528Z"/>
    <g>
      <path class="cls-7" d="M105.1917762176,52.2802391787c8.3148692047-.5734392555,7.516441869-11.9689181527,6.9364110676-16.165794708-.1217427199-.8808828181-.8771780277-1.53447365-1.7664338004-1.53447365h-.0000032982c-.9851852392,0-1.7838356745-.7986504353-1.7838356745-1.7838356745v-3.0755136338c.0000000007-11.5849712982-9.3914748217-20.9764461212-20.9764461199-20.9764461214h-.0000419529c-11.5849712986-.0000000002-20.9764461217,9.3914748225-20.9764461222,20.976446121v1.8909813232s0,8.2674545374,0,8.2674545374c0,0-2.0668636344-2.1108394564-2.5066218544-.175903288-.4397582201,1.9349361683,2.0228878123,13.2806982463,3.6060174046,13.1927466022l.3518065761,5.804808505s3.0783075405,8.5313094694,8.6192611135,9.8505841297,11.4673839049,.9973447339,14.1602146864,0c7.1240831652-2.6385493205,14.3361179744-16.2710541428,14.3361179744-16.2710541428Z"/>
      <path d="M109.501231557,34.7857828077l-5.10345146,2.551725734c-.2123016207,.1061508105-.3915924162,.2673717171-.5178444071,.4683702433-.6210319108,.9887091512-2.1905588657,3.4216642402-4.6970989832,3.4216642402l-9.8302348083,.9327888615c-1.1651071821,.1105567693-2.2959748154-.4240578506-2.9503886465-1.3943362038-1.2733024322-1.8878845897-3.3495154702-4.8139334949-4.0621981109-4.9327139351-.6666728069-.1111121345-2.0702961218,2.5150204755-3.0138529381,4.4646826623-.613241921,1.2671357613-1.8602701567,2.105744198-3.2647863098,2.2007866445l-8.0558149292,.5451303336c-.7258507729,.0491177215-1.3510237792-.506302557-1.3877199747-1.2328872282l-.3080336619-6.0990665058c-.0359800603-.7124051934,.5081773609-1.3210329714,1.2201519617-1.3647123948l13.0510229718-.8006762559,19.1827190009-1.5766618357c.0524125132-.0043078778,.1050379465-.0054350918,.1575868494-.003375442l9.0488656002,.3546695184c.6984339794,.0273750605,1.2505325771,.60153703,1.2505325787,1.3005072851v.0000020636c.0000000011,.4929740467-.278525341,.9436375186-.7194547328,1.1641022148Z"/>
    </g>
  </g>
  <g>
    <g>
      <path class="cls-5" d="M203.2983569082,39.8499225804c-.1934030897,.0386833919-.4719785962-3.0005506821-.7231997663-9.7565710616-.3808288469-10.2415232331-8.7903591536-18.3496485221-19.0389604861-18.3496485287h-.0000498345c-10.2486087637,.0000000065-18.6581422674,8.1081366347-19.0389611985,18.3496677033-.2512141478,6.7560126058-.529783202,9.7952352423-.7231861087,9.7565518869,0,0-1.3174953771,5.7969072209,0,7.2900497513,0,0,1.6687896837,5.7969072209,3.2497715383,6.8509003731,0,0,2.8984457367,8.0805406786,3.688936664,8.3440271561,0,0,11.4181672885,2.3714727818,12.8234704948,.5269887024,1.4053032063,1.8444840795,12.8234704948-.5269887024,12.8234704948-.5269887024,.7904594323-.2634864775,3.688936664-8.3440271561,3.688936664-8.3440271561,1.5809818545-1.0539931522,3.2497715383-6.8509003731,3.2497715383-6.8509003731,1.3174953771-1.4931425304,0-7.2900497513,0-7.2900497513Z"/>
      <g>
        <path class="cls-9" d="M197.2679616004,34.0632054935c-1.2627119164-3.7091543514-13.7317833892-4.3404961603-13.7317833892-4.3404961603,0,0-12.4690714727,.6313418089-13.7317550906,4.3404961603-1.2627119165,3.7091543514-1.4205332194,6.3134605371-1.4205332194,6.3134605371,0,0,1.4205332194,2.0518750283,2.8410381401,2.0518750283,1.4205332194,0,8.4442462169-1.5783686716,8.4442462169-1.5783686716l3.8670039529-1.2626977671,3.8670039529,1.2626977671s7.0237129975,1.5783686716,8.4442462169,1.5783686716,2.8410381402-2.0518750283,2.8410381402-2.0518750283c0,0-.1578213029-2.6043061858-1.4205049208-6.3134605371Z"/>
        <path class="cls-9" d="M183.3388803586,47.9529325855s-6.2739698382,.5129687571-5.8004776308,4.7745542659c0,0,.9864892631,1.9334878271,5.8004776308,1.9334878271,4.8140166663,0,5.8004776307-1.9334878271,5.8004776307-1.9334878271,.473520506-4.2615855088-5.8004776307-4.7745542659-5.8004776307-4.7745542659Z"/>
      </g>
      <g>
        <path class="cls-13" d="M184.9172354643,49.6238804729l-1.3810849683,.473520506-1.3810566697-.473520506s-3.3540351958,.9864892631-3.4723799491,1.7756665242c-.1184013504,.7891772612,4.0642735069,3.0778125424,4.8534366188,2.1702480801,.7891914104,.9075644623,4.9718662678-1.381070819,4.853493216-2.1702480801-.1184013504-.7891772612-3.4724082477-1.7756665242-3.4724082477-1.7756665242Z"/>
        <ellipse cx="183.5361782112" cy="51.4420255877" rx="4.8559293203" ry=".259514116"/>
      </g>
    </g>
    <path class="cls-5" d="M244.8556192846,120.0518196725c-6.1556250849-37.9990796774-17.9933547487-40.4921502996-17.9933547487-40.4921502996-1.7756523749-3.6697061003-15.9809279715-9.5885709322-15.9809279715-9.5885709322,.9470127134-2.3675459328-2.1307998291-8.4047838165-2.1307998291-9.4701695817,0-1.0653999145-2.9594394906-1.3021601675-2.9594394906-1.3021601675l-22.2549261082-1.6572793231-22.2549261082,1.6572793231s-2.959411192,.236760253-2.959411192,1.3021601675c0,1.0653857652-3.0778125424,7.102623649-2.1307998291,9.4701695817,0,0-14.2052755966,5.9188648319-15.9809279715,9.5885709322,0,0-11.8377296638,2.4930706222-17.9933547487,40.4921502996l-.4735063567,1.1837871157,2.3675459328,6.2739981367v5.1148874019h118.8507746961v-5.1148874019l2.3675459328-6.2739981367-.4734922074-1.1837871157Z"/>
  </g>
  <path d="M384.0643393461,104.2931821223c-.1744787729-.6883896194-.1554278283-1.4034389448,.0055758862-2.0951102055,1.1242380588-4.8299081492-5.3915334804-17.4278099098-5.9931483705-21.6392012638-.6479063622-4.5353735762-1.8931295355-2.5916544897-3.5635140329-5.6692242305-1.3026083357-2.3999253188-5.3225899706-6.9646884619-7.931407735-6.6472695225-.6504619767,.0791369268-10.8085650237,.0207353269-11.4249908616-.2015160129-3.4782494395-1.2540516598-16.3751000164-2.2286991462-23.3697007846-2.6785453833-2.2367435237-.1438694809-4.15531304,1.4432832984-4.5158870155,3.5777151182-.3606901398-2.1344318198-2.2792596561-3.721584599-4.5159450976-3.5777151182-6.9946588503,.4498462371-19.8914513451,1.4244937235-23.3697588667,2.6785453833-.6163677557,.2222513397-10.7744708028,.2806529397-11.4248746973,.2015160129-2.6089339288-.3174189394-6.6289155637,4.2473442037-7.9314658172,6.6472695225-1.6704425796,3.0775697408-2.9156076708,1.1338506543-3.5635140329,5.6692242305-.6016729723,4.211391354-7.1173864293,16.8092931146-5.9932064526,21.6392012638,.1610037146,.6916712608-1.0723207926,9.1904050242-1.2467995656,9.8787946436-1.1994544406,4.7318654832-.2694668708,19.7925948985-.2409417431,20.5476257665h112.1923156045c1.7607022378,0,3.3928105996-1.0522742773,4.000001376-2.7049437196,.3421038524-.9310277931,.9382009384-1.9012900773,1.9748511179-2.5491964394,2.227856955-1.3924033366-1.8881925529-18.3453045624-3.0875889113-23.0771700456Z"/>
  <g>
    <g>
      <path d="M327.3373012342,6.212471138h-.0000222314c-12.2481588043-.0000000038-22.0976978603,10.0739852256-21.8263291283,22.3191374638,.242069096,10.9230452235,.5718947336,13.4737653007,.9312404953,14.6117364993,0,0,7.774934428,23.8106882583,9.7794074414,23.8106882583s1.640007534,3.4015229219,11.115703423,0c9.475695889,3.4015229219,9.1112304096,0,11.115703423,0s9.7794074414-23.8106882583,9.7794074414-23.8106882583c.3593457617-1.1379711985,.6891713994-3.6886912757,.9312404953-14.6117364993,.271368732-12.2451522382-9.578170324-22.3191374605-21.8263291283-22.3191374638h-.0000222314Z"/>
      <path class="cls-14" d="M306.4421903698,43.143345101l-6.8119015512,2.2970384715c-2.2032199619,.7429468814-3.6227112074,2.8833077128-3.4456520589,5.2016688424,.5704049913,7.4687174947,6.0056524293,22.7510050901,11.9583261931,22.7505940572l10.1331928775-5.4572170028s-12.3199066632-24.9135675063-11.8339654605-24.7920843683Z"/>
      <path class="cls-14" d="M347.9681425822,43.143345101l6.8119015512,2.2970384715c2.2032199619,.7429468814,3.6227112074,2.8833077128,3.4456520589,5.2016688424-.5704049913,7.4687174947-6.0056524293,22.7510050901-11.9583261931,22.7505940572l-10.1331928775-5.4572170028s12.3199066632-24.9135675063,11.8339654605-24.7920843683Z"/>
    </g>
    <path class="cls-6" d="M349.0139859218,26.1900396786c-.0845383919-3.1030147739-2.3459132449-6.1284908045-5.4500674964-6.1284908045h-32.4532468432c-3.1041542516,0-5.3655291045,3.0254760306-5.4500674964,6.1284908045-.194796423,7.1498968951-2.383298965,19.1794984455,8.2848166673,17.9314990786,3.1156575501-.364470076,13.3919013812-12.0300085067,13.3919013812-12.0300085067,0,0,10.2761353094,11.6655384307,13.3919013812,12.0300085067,10.6681156323,1.247999367,8.4795588294-10.7816021835,8.2847624064-17.9314990786Z"/>
  </g>
  <g>
    <path class="cls-12" d="M481.4974243907,112.0768665604c1.1703784942-2.0615782754-4.3786158152-23.9529337313-3.9204852814-25.3273253326s-5.4975481521-7.5591264276-7.024643847-9.8497608434c-1.5270956949-2.2906526688-24.1281046778-9.6694765579-24.1281046778-9.6694765579l-7.788182568-6.4134989197c-3.6650260171,4.7618634172-16.263570063,2.5681703641-16.263570063,2.5681703641,0,0-12.598525793,2.193693053-16.2635518101-2.5681703641l-6.4331253497,6.4134989197s-22.6010089829,7.3788238891-24.1281046778,9.6694765579c-1.5270956949,2.2906344158-7.4827561278,8.4753692421-7.0246255941,9.8497608434s-4.6927586408,19.0766003686-4.8104215488,21.4443094397c-.427571283,8.6039383475,0,25.1448224264,0,25.1448224264h116.9758537733s-.3614168498-19.2002282581,.8089616444-21.2618065335Z"/>
    <path d="M445.3071448649,29.0277672047l-21.9838433586-6.0271231624-21.983821947,6.0271231624c-6.3356211518,1.736971293-10.1716763139,8.1640412866-8.6931855683,14.5649249225l.9399896051,4.0695698118c.4701982125,2.0357270152,1.4534820246,3.9172478589,2.8562614369,5.4656045775l13.2038980837,14.5741319002c2.3212075602,2.562087792,5.6173270062,4.023534923,9.0745257397,4.023534923h9.2046652996c3.4572201451,0,6.7533181795-1.461447131,9.0745257397-4.023534923l13.2039194953-14.5741319002c1.4027794123-1.5483567186,2.3860418128-3.4298775623,2.8562614369-5.4656045775l.9399896051-4.0695698118c1.478469334-6.4008836359-2.3575858281-12.8279536294-8.6931855683-14.5649249225Z"/>
    <path class="cls-14" d="M449.9965663235,35.2596152905s-6.1083645265-11.8095424741-26.673258085-11.8095424741-26.6732580849,11.8095424741-26.6732580849,11.8095424741c-2.6469683048,4.9885101695,3.4614144746,13.9474727963,3.4614144746,13.9474727963,8.144498204,7.3300520342,23.2118436103-7.6354784744,23.2118436103-7.6354784744,0,0,15.0673454063,14.9655305086,23.2118436103,7.6354784744,0,0,6.1083827795-8.9589626268,3.4614144747-13.9474727963Z"/>
    <g>
      <path class="cls-6" d="M455.0868913907,37.2125297385c.0515376316-8.7101677574-3.5497832816-15.1938308233-8.3441536801-19.9617373183-12.8960996836-12.8249159599-33.9427592605-12.8249159599-46.8388589441,0-4.7943703986,4.7679064951-8.3956913117,11.251569561-8.3441536801,19.9617373183l3.0541913898,7.4827743808s3.0541913897-1.6798180414,2.9014872961-2.1379303222c-.1527223465-.4581305338-2.1064228992-1.8862690375-2.1064228992-1.8862690375,0,0,7.3300520342-14.5073999748,27.1822960676-14.5073999748s27.1822960676,14.5073999748,27.1822960676,14.5073999748c0,0-.4896379568,1.4281385037-.6423603034,1.8862690375-.1527040936,.4581122808,2.9014872961,2.1379303222,2.9014872961,2.1379303222l3.0541913897-7.4827743808Z"/>
      <path class="cls-6" d="M384.1912829353,58.2376684756c4.4370436334,9.5709020716,15.7927275061,13.7327167087,25.3636295777,9.2956730753l-16.0679565025-34.659302653c-9.5709020716,4.4370436334-13.7327167087,15.7927275061-9.2956730753,25.3636295777Z"/>
      <path class="cls-6" d="M462.4553335419,58.2376684756c-4.4370436334,9.5709020716-15.7927275061,13.7327167087-25.3636295777,9.2956730753l16.0679565025-34.659302653c9.5709020716,4.4370436334,13.7327167087,15.7927275061,9.2956730753,25.3636295777Z"/>
    </g>
  </g>
  <line class="cls-11" x1="7.2841084716" y1="132.6244923269" x2="502.332912805" y2="132.6244923269"/>
  <g>
    <path class="cls-1" d="M37.2829745678,189.3185463763v-36.3642578125h15.6958007812c2.69921875,0,5.060546875,.4921875,7.0849609375,1.4736328125,2.0239257812,.9833984375,3.5981445312,2.3974609375,4.72265625,4.244140625s1.6870117188,4.060546875,1.6870117188,6.640625c0,2.6044921875-.5771484375,4.7998046875-1.7314453125,6.5869140625-1.1538085938,1.7880859375-2.76953125,3.1376953125-4.8471679688,4.048828125-2.0771484375,.9111328125-4.5009765625,1.3671875-7.2709960938,1.3671875h-9.375v-7.6708984375h7.3862304688c1.16015625,0,2.1513671875-.14453125,2.9741210938-.4345703125s1.4560546875-.7548828125,1.8999023438-1.3935546875c.4438476562-.6396484375,.666015625-1.474609375,.666015625-2.50390625,0-1.0419921875-.2221679688-1.890625-.666015625-2.5478515625s-1.0771484375-1.142578125-1.8999023438-1.4560546875-1.8139648438-.470703125-2.9741210938-.470703125h-3.4799804688v28.48046875h-9.8720703125Zm21.306640625-16.6904296875l9.0913085938,16.6904296875h-10.724609375l-8.8779296875-16.6904296875h10.5112304688Z"/>
    <path class="cls-1" d="M77.4548495678,189.7443276263c-1.740234375,0-3.2763671875-.287109375-4.6079101562-.861328125-1.3315429688-.5732421875-2.3764648438-1.447265625-3.1337890625-2.619140625-.7578125-1.171875-1.1362304688-2.6630859375-1.1362304688-4.4736328125,0-1.4921875,.2543945312-2.767578125,.7631835938-3.8271484375,.5087890625-1.05859375,1.2192382812-1.92578125,2.130859375-2.6005859375,.9111328125-.6748046875,1.9736328125-1.189453125,3.1870117188-1.544921875s2.5244140625-.5859375,3.9331054688-.6923828125c1.5268554688-.1181640625,2.7548828125-.263671875,3.6840820312-.435546875,.9291992188-.1708984375,1.6010742188-.4140625,2.015625-.7275390625,.4140625-.3134765625,.62109375-.73046875,.62109375-1.251953125v-.0712890625c0-.7099609375-.2724609375-1.25390625-.81640625-1.6328125-.544921875-.37890625-1.2431640625-.568359375-2.0952148438-.568359375-.935546875,0-1.6958007812,.2041015625-2.2817382812,.6123046875s-.9384765625,1.033203125-1.056640625,1.873046875h-9.01953125c.1181640625-1.65625,.6479492188-3.1865234375,1.5888671875-4.58984375,.9409179688-1.40234375,2.3173828125-2.5263671875,4.1284179688-3.373046875s4.0717773438-1.26953125,6.7827148438-1.26953125c1.953125,0,3.7045898438,.2275390625,5.2553710938,.68359375s2.8706054688,1.0888671875,3.9594726562,1.8994140625c1.0888671875,.8115234375,1.9204101562,1.7578125,2.4946289062,2.8408203125s.861328125,2.2587890625,.861328125,3.5244140625v18.6796875h-9.162109375v-3.8359375h-.212890625c-.5444335938,1.0185546875-1.2045898438,1.8408203125-1.9799804688,2.46875-.775390625,.626953125-1.6572265625,1.0830078125-2.6455078125,1.3671875s-2.0747070312,.42578125-3.2578125,.42578125Zm3.1958007812-6.1787109375c.7456054688,0,1.447265625-.154296875,2.1040039062-.4619140625,.6572265625-.3076171875,1.1923828125-.7509765625,1.6069335938-1.33203125,.4140625-.5791015625,.6215820312-1.2841796875,.6215820312-2.1123046875v-2.2724609375c-.2607421875,.1064453125-.5356445312,.20703125-.8256835938,.3017578125s-.5981445312,.18359375-.9233398438,.265625c-.3256835938,.0830078125-.6689453125,.16015625-1.0297851562,.2314453125-.361328125,.0703125-.7368164062,.1357421875-1.1274414062,.1953125-.7578125,.1181640625-1.3759765625,.310546875-1.85546875,.5771484375-.4794921875,.265625-.8344726562,.591796875-1.0654296875,.9765625s-.3461914062,.8134765625-.3461914062,1.287109375c0,.7578125,.2661132812,1.337890625,.798828125,1.740234375s1.2133789062,.603515625,2.0419921875,.603515625Z"/>
    <path class="cls-1" d="M98.4499667553,189.3185463763v-27.2734375h9.8012695312v27.2734375h-9.8012695312Zm4.900390625-30.1142578125c-1.3256835938,0-2.4619140625-.4375-3.4091796875-1.3134765625-.9467773438-.8759765625-1.4204101562-1.9296875-1.4204101562-3.16015625,0-1.2314453125,.4736328125-2.28515625,1.4204101562-3.1611328125,.947265625-.8759765625,2.0834960938-1.3134765625,3.4091796875-1.3134765625,1.3374023438,0,2.4770507812,.4375,3.41796875,1.3134765625,.94140625,.8759765625,1.4116210938,1.9296875,1.4116210938,3.1611328125,0,1.23046875-.4702148438,2.2841796875-1.4116210938,3.16015625-.9409179688,.8759765625-2.0805664062,1.3134765625-3.41796875,1.3134765625Z"/>
    <path class="cls-1" d="M122.0735019116,173.9777260638v15.3408203125h-9.8012695312v-27.2734375h9.3037109375v5.185546875h.2841796875c.591796875-1.728515625,1.6362304688-3.083984375,3.1337890625-4.06640625s3.2465820312-1.4736328125,5.2470703125-1.4736328125c1.9291992188,0,3.6069335938,.44140625,5.0336914062,1.322265625,1.4262695312,.8828125,2.533203125,2.0927734375,3.3203125,3.6318359375,.787109375,1.5380859375,1.1748046875,3.2958984375,1.1630859375,5.2734375v17.400390625h-9.8012695312v-15.3408203125c.01171875-1.349609375-.3286132812-2.4091796875-1.0209960938-3.1787109375s-1.654296875-1.154296875-2.8852539062-1.154296875c-.8051757812,0-1.5063476562,.1748046875-2.1040039062,.5244140625-.59765625,.3486328125-1.056640625,.845703125-1.3759765625,1.4912109375-.3198242188,.6455078125-.4853515625,1.41796875-.4970703125,2.3173828125Z"/>
    <path class="cls-1" d="M143.4948886303,189.3185463763v-36.3642578125h9.8012695312v13.849609375h.1420898438c.3549804688-.9228515625,.8754882812-1.7724609375,1.5625-2.5478515625,.6860351562-.775390625,1.5385742188-1.396484375,2.556640625-1.8642578125s2.2016601562-.701171875,3.5512695312-.701171875c1.798828125,0,3.5122070312,.4794921875,5.1401367188,1.4384765625,1.6274414062,.9580078125,2.953125,2.4677734375,3.9770507812,4.52734375s1.5361328125,4.7353515625,1.5361328125,8.025390625c0,3.1494140625-.48828125,5.7587890625-1.46484375,7.830078125-.9765625,2.072265625-2.2788085938,3.6162109375-3.90625,4.634765625-1.6279296875,1.017578125-3.412109375,1.5263671875-5.353515625,1.5263671875-1.2783203125,0-2.4174804688-.2099609375-3.41796875-.6298828125s-1.8525390625-.994140625-2.556640625-1.72265625c-.7045898438-.7275390625-1.24609375-1.5537109375-1.6245117188-2.4765625h-.2133789062v4.474609375h-9.7299804688Zm9.587890625-13.63671875c0,1.326171875,.1748046875,2.4716796875,.5239257812,3.435546875,.3491210938,.96484375,.8461914062,1.7109375,1.4916992188,2.2373046875,.6450195312,.52734375,1.4169921875,.7900390625,2.3168945312,.7900390625,.8994140625,0,1.666015625-.2568359375,2.2993164062-.7724609375,.6333007812-.5146484375,1.1186523438-1.25390625,1.4560546875-2.21875s.505859375-2.1220703125,.505859375-3.4716796875-.1684570312-2.505859375-.505859375-3.470703125-.8227539062-1.705078125-1.4560546875-2.2197265625-1.3999023438-.7724609375-2.2993164062-.7724609375c-.8999023438,0-1.671875,.2578125-2.3168945312,.7724609375-.6455078125,.5146484375-1.142578125,1.2548828125-1.4916992188,2.2197265625s-.5239257812,2.12109375-.5239257812,3.470703125Z"/>
    <path class="cls-1" d="M188.0705722241,189.8156166888c-2.9594726562,0-5.4926757812-.5888671875-7.599609375-1.7666015625s-3.72265625-2.8232421875-4.8471679688-4.9365234375c-1.1245117188-2.1123046875-1.6865234375-4.5654296875-1.6865234375-7.359375s.5620117188-5.2470703125,1.6865234375-7.3603515625c1.1245117188-2.1123046875,2.740234375-3.7578125,4.8471679688-4.935546875s4.6401367188-1.7666015625,7.599609375-1.7666015625c2.958984375,0,5.4921875,.5888671875,7.599609375,1.7666015625,2.1064453125,1.177734375,3.72265625,2.8232421875,4.8471679688,4.935546875,1.1245117188,2.11328125,1.6865234375,4.56640625,1.6865234375,7.3603515625s-.5620117188,5.2470703125-1.6865234375,7.359375c-1.1245117188,2.11328125-2.7407226562,3.7587890625-4.8471679688,4.9365234375-2.107421875,1.177734375-4.640625,1.7666015625-7.599609375,1.7666015625Zm.0708007812-7.244140625c.8286132812,0,1.544921875-.2783203125,2.1484375-.8349609375,.6040039062-.5556640625,1.0712890625-1.349609375,1.4028320312-2.37890625,.3315429688-1.0302734375,.4970703125-2.2548828125,.4970703125-3.67578125,0-1.431640625-.1655273438-2.66015625-.4970703125-3.6845703125-.3315429688-1.0234375-.798828125-1.8134765625-1.4028320312-2.3701171875-.603515625-.5556640625-1.3198242188-.833984375-2.1484375-.833984375-.8759765625,0-1.6274414062,.2783203125-2.2548828125,.833984375-.6274414062,.556640625-1.1069335938,1.3466796875-1.4379882812,2.3701171875-.3315429688,1.0244140625-.4970703125,2.2529296875-.4970703125,3.6845703125,0,1.4208984375,.1655273438,2.6455078125,.4970703125,3.67578125,.3310546875,1.029296875,.810546875,1.8232421875,1.4379882812,2.37890625,.6274414062,.556640625,1.37890625,.8349609375,2.2548828125,.8349609375Z"/>
    <path class="cls-1" d="M209.5642245678,189.3185463763l-6.818359375-27.2734375h9.8012695312l3.125,16.6201171875h.212890625l3.48046875-16.6201171875h9.5166015625l3.6225585938,16.4775390625h.212890625l2.9829101562-16.4775390625h9.8012695312l-6.818359375,27.2734375h-10.5825195312l-3.8349609375-14.630859375h-.2841796875l-3.8349609375,14.630859375h-10.5825195312Z"/>
    <path class="cls-1" d="M275.9870761303,164.3185463763c-.0947265625-1.18359375-.5356445312-2.107421875-1.3227539062-2.7705078125-.787109375-.662109375-1.9794921875-.994140625-3.5776367188-.994140625-1.0180664062,0-1.849609375,.1220703125-2.4946289062,.3642578125-.6455078125,.2431640625-1.1215820312,.5712890625-1.4291992188,.9853515625-.3081054688,.4140625-.4677734375,.8876953125-.4794921875,1.4208984375-.0239257812,.4375,.0561523438,.8310546875,.2397460938,1.1806640625,.1831054688,.3486328125,.4760742188,.6630859375,.87890625,.9404296875,.40234375,.2783203125,.9169921875,.5302734375,1.5444335938,.7548828125s1.373046875,.42578125,2.2373046875,.603515625l2.9829101562,.6396484375c2.0122070312,.42578125,3.7348632812,.98828125,5.1669921875,1.6865234375s2.6040039062,1.5185546875,3.515625,2.458984375c.9116210938,.94140625,1.5830078125,1.998046875,2.0151367188,3.169921875s.654296875,2.4501953125,.666015625,3.8349609375c-.01171875,2.3916015625-.6098632812,4.4150390625-1.7934570312,6.072265625s-2.8735351562,2.91796875-5.0688476562,3.7822265625c-2.1962890625,.8642578125-4.8330078125,1.2958984375-7.91015625,1.2958984375-3.1606445312,0-5.916015625-.4677734375-8.265625-1.40234375-2.349609375-.935546875-4.1723632812-2.3759765625-5.46875-4.32421875-1.2958984375-1.9462890625-1.9501953125-4.44140625-1.9619140625-7.4833984375h9.375c.0590820312,1.1123046875,.3374023438,2.0478515625,.8344726562,2.8056640625,.4970703125,.7568359375,1.1987304688,1.3310546875,2.1040039062,1.7216796875,.9057617188,.390625,1.9858398438,.5859375,3.2407226562,.5859375,1.0532226562,0,1.9350585938-.1298828125,2.6455078125-.390625,.7099609375-.259765625,1.2485351562-.62109375,1.6157226562-1.0830078125,.3666992188-.4619140625,.5561523438-.98828125,.568359375-1.580078125-.0122070312-.556640625-.1928710938-1.044921875-.5419921875-1.46484375s-.9204101562-.798828125-1.7133789062-1.13671875c-.79296875-.3369140625-1.8642578125-.6533203125-3.2133789062-.94921875l-3.6225585938-.78125c-3.2197265625-.6982421875-5.755859375-1.8671875-7.6079101562-3.5068359375-1.8530273438-1.6396484375-2.7729492188-3.8798828125-2.7612304688-6.720703125-.01171875-2.30859375,.6064453125-4.3291015625,1.85546875-6.0634765625,1.2485351562-1.734375,2.9829101562-3.0869140625,5.2026367188-4.0576171875,2.2192382812-.970703125,4.7670898438-1.4560546875,7.6435546875-1.4560546875,2.935546875,0,5.474609375,.4912109375,7.6171875,1.4736328125,2.142578125,.9833984375,3.796875,2.365234375,4.962890625,4.146484375,1.1655273438,1.78125,1.7543945312,3.861328125,1.7666015625,6.2412109375h-9.4462890625Z"/>
    <path class="cls-1" d="M288.8864901928,189.3185463763v-27.2734375h9.8012695312v27.2734375h-9.8012695312Zm4.900390625-30.1142578125c-1.3256835938,0-2.4619140625-.4375-3.4091796875-1.3134765625-.9467773438-.8759765625-1.4204101562-1.9296875-1.4204101562-3.16015625,0-1.2314453125,.4736328125-2.28515625,1.4204101562-3.1611328125,.947265625-.8759765625,2.0834960938-1.3134765625,3.4091796875-1.3134765625,1.3374023438,0,2.4770507812,.4375,3.41796875,1.3134765625,.94140625,.8759765625,1.4116210938,1.9296875,1.4116210938,3.1611328125,0,1.23046875-.4702148438,2.2841796875-1.4116210938,3.16015625-.9409179688,.8759765625-2.0805664062,1.3134765625-3.41796875,1.3134765625Z"/>
    <path class="cls-1" d="M311.1599276928,162.0451088763l3.9770507812,8.4521484375,4.1904296875-8.4521484375h9.73046875l-7.3154296875,13.63671875,7.6704101562,13.63671875h-9.6591796875l-4.6166992188-8.6650390625-4.4741210938,8.6650390625h-9.8012695312l7.7416992188-13.63671875-7.2446289062-13.63671875h9.8012695312Z"/>
    <path class="cls-1" d="M360.0402987866,164.3185463763c-.0947265625-1.18359375-.5356445312-2.107421875-1.3227539062-2.7705078125-.787109375-.662109375-1.9794921875-.994140625-3.5776367188-.994140625-1.0180664062,0-1.849609375,.1220703125-2.4946289062,.3642578125-.6455078125,.2431640625-1.1215820312,.5712890625-1.4291992188,.9853515625-.3081054688,.4140625-.4677734375,.8876953125-.4794921875,1.4208984375-.0239257812,.4375,.0561523438,.8310546875,.2397460938,1.1806640625,.1831054688,.3486328125,.4760742188,.6630859375,.87890625,.9404296875,.40234375,.2783203125,.9169921875,.5302734375,1.5444335938,.7548828125s1.373046875,.42578125,2.2373046875,.603515625l2.9829101562,.6396484375c2.0122070312,.42578125,3.7348632812,.98828125,5.1669921875,1.6865234375s2.6040039062,1.5185546875,3.515625,2.458984375c.9116210938,.94140625,1.5830078125,1.998046875,2.0151367188,3.169921875s.654296875,2.4501953125,.666015625,3.8349609375c-.01171875,2.3916015625-.6098632812,4.4150390625-1.7934570312,6.072265625s-2.8735351562,2.91796875-5.0688476562,3.7822265625c-2.1962890625,.8642578125-4.8330078125,1.2958984375-7.91015625,1.2958984375-3.1606445312,0-5.916015625-.4677734375-8.265625-1.40234375-2.349609375-.935546875-4.1723632812-2.3759765625-5.46875-4.32421875-1.2958984375-1.9462890625-1.9501953125-4.44140625-1.9619140625-7.4833984375h9.375c.0590820312,1.1123046875,.3374023438,2.0478515625,.8344726562,2.8056640625,.4970703125,.7568359375,1.1987304688,1.3310546875,2.1040039062,1.7216796875,.9057617188,.390625,1.9858398438,.5859375,3.2407226562,.5859375,1.0532226562,0,1.9350585938-.1298828125,2.6455078125-.390625,.7099609375-.259765625,1.2485351562-.62109375,1.6157226562-1.0830078125,.3666992188-.4619140625,.5561523438-.98828125,.568359375-1.580078125-.0122070312-.556640625-.1928710938-1.044921875-.5419921875-1.46484375s-.9204101562-.798828125-1.7133789062-1.13671875c-.79296875-.3369140625-1.8642578125-.6533203125-3.2133789062-.94921875l-3.6225585938-.78125c-3.2197265625-.6982421875-5.755859375-1.8671875-7.6079101562-3.5068359375-1.8530273438-1.6396484375-2.7729492188-3.8798828125-2.7612304688-6.720703125-.01171875-2.30859375,.6064453125-4.3291015625,1.85546875-6.0634765625,1.2485351562-1.734375,2.9829101562-3.0869140625,5.2026367188-4.0576171875,2.2192382812-.970703125,4.7670898438-1.4560546875,7.6435546875-1.4560546875,2.935546875,0,5.474609375,.4912109375,7.6171875,1.4736328125,2.142578125,.9833984375,3.796875,2.365234375,4.962890625,4.146484375,1.1655273438,1.78125,1.7543945312,3.861328125,1.7666015625,6.2412109375h-9.4462890625Z"/>
    <path class="cls-1" d="M372.9397128491,189.3185463763v-27.2734375h9.8012695312v27.2734375h-9.8012695312Zm4.900390625-30.1142578125c-1.3256835938,0-2.4619140625-.4375-3.4091796875-1.3134765625-.9467773438-.8759765625-1.4204101562-1.9296875-1.4204101562-3.16015625,0-1.2314453125,.4736328125-2.28515625,1.4204101562-3.1611328125,.947265625-.8759765625,2.0834960938-1.3134765625,3.4091796875-1.3134765625,1.3374023438,0,2.4770507812,.4375,3.41796875,1.3134765625,.94140625,.8759765625,1.4116210938,1.9296875,1.4116210938,3.1611328125,0,1.23046875-.4702148438,2.2841796875-1.4116210938,3.16015625-.9409179688,.8759765625-2.0805664062,1.3134765625-3.41796875,1.3134765625Z"/>
    <path class="cls-1" d="M399.8298495678,189.8156166888c-2.912109375,0-5.4189453125-.5595703125-7.51953125-1.677734375-2.1015625-1.119140625-3.7172851562-2.728515625-4.84765625-4.830078125-1.1303710938-2.1005859375-1.6953125-4.619140625-1.6953125-7.5546875,0-2.8173828125,.5678710938-5.279296875,1.7041015625-7.38671875,1.13671875-2.1064453125,2.740234375-3.74609375,4.8120117188-4.91796875,2.0712890625-1.171875,4.515625-1.7578125,7.3330078125-1.7578125,2.0595703125,0,3.9243164062,.3193359375,5.5932617188,.958984375,1.6689453125,.638671875,3.0952148438,1.5654296875,4.2788085938,2.7783203125,1.18359375,1.2138671875,2.0952148438,2.6845703125,2.734375,4.412109375,.6391601562,1.728515625,.958984375,3.67578125,.958984375,5.841796875v2.2724609375h-24.3608398438v-5.3974609375h15.3408203125c-.01171875-.78125-.2099609375-1.470703125-.5947265625-2.068359375s-.8999023438-1.0654296875-1.544921875-1.40234375c-.6450195312-.337890625-1.3759765625-.5068359375-2.1923828125-.5068359375-.7934570312,0-1.521484375,.1689453125-2.1840820312,.5068359375-.6630859375,.3369140625-1.1928710938,.8017578125-1.5893554688,1.3935546875s-.6064453125,1.2841796875-.6303710938,2.0771484375v5.82421875c0,.8759765625,.18359375,1.6572265625,.55078125,2.34375,.3666992188,.6865234375,.8935546875,1.224609375,1.580078125,1.615234375s1.5151367188,.5859375,2.4858398438,.5859375c.6748046875,0,1.29296875-.0947265625,1.85546875-.2841796875,.5620117188-.1884765625,1.0444335938-.4638671875,1.447265625-.8251953125,.4018554688-.361328125,.6982421875-.7958984375,.8876953125-1.3046875h8.9487304688c-.3081054688,1.8935546875-1.0361328125,3.5361328125-2.1840820312,4.9267578125s-2.6665039062,2.4677734375-4.5541992188,3.2314453125c-1.8881835938,.763671875-4.0927734375,1.1455078125-6.6137695312,1.1455078125Z"/>
    <path class="cls-1" d="M429.3479159741,200.1134682513c-2.734375,0-5.0751953125-.3876953125-7.0224609375-1.1630859375s-3.4565429688-1.8408203125-4.5278320312-3.1953125c-1.0712890625-1.35546875-1.671875-2.9091796875-1.8017578125-4.6611328125h9.4458007812c.0947265625,.580078125,.3310546875,1.0478515625,.7104492188,1.40234375,.3784179688,.35546875,.8666992188,.61328125,1.46484375,.7724609375,.5971679688,.16015625,1.26953125,.240234375,2.0151367188,.240234375,1.2666015625,0,2.3168945312-.30859375,3.1513671875-.923828125s1.251953125-1.728515625,1.251953125-3.337890625v-4.6162109375h-.2841796875c-.3549804688,.9228515625-.8994140625,1.70703125-1.6333007812,2.3525390625-.734375,.6455078125-1.6157226562,1.1357421875-2.6455078125,1.4736328125-1.0302734375,.3369140625-2.1606445312,.505859375-3.3916015625,.505859375-1.94140625,0-3.7260742188-.44921875-5.353515625-1.349609375-1.6274414062-.8994140625-2.9296875-2.326171875-3.90625-4.279296875s-1.46484375-4.5029296875-1.46484375-7.65234375c0-3.2900390625,.5122070312-5.9658203125,1.5361328125-8.025390625s2.349609375-3.5693359375,3.9770507812-4.52734375c1.6274414062-.958984375,3.3408203125-1.4384765625,5.140625-1.4384765625,1.3491210938,0,2.5327148438,.2333984375,3.55078125,.701171875s1.8701171875,1.0888671875,2.5571289062,1.8642578125c.6860351562,.775390625,1.20703125,1.625,1.5625,2.5478515625h.212890625v-4.7587890625h9.8012695312v27.2021484375c0,2.30859375-.5947265625,4.2705078125-1.7846679688,5.8857421875-1.189453125,1.6162109375-2.8618164062,2.849609375-5.015625,3.7021484375-2.1547851562,.8525390625-4.669921875,1.2783203125-7.5463867188,1.2783203125Zm.3549804688-18.1103515625c.8994140625,0,1.671875-.251953125,2.3173828125-.7548828125,.6450195312-.5029296875,1.1420898438-1.224609375,1.4912109375-2.166015625s.5239257812-2.07421875,.5239257812-3.400390625c0-1.349609375-.1748046875-2.505859375-.5239257812-3.470703125s-.8461914062-1.705078125-1.4912109375-2.2197265625c-.6455078125-.5146484375-1.41796875-.7724609375-2.3173828125-.7724609375s-1.666015625,.2578125-2.2993164062,.7724609375-1.1186523438,1.2548828125-1.4560546875,2.2197265625-.505859375,2.12109375-.505859375,3.470703125,.1684570312,2.4951171875,.505859375,3.435546875c.3374023438,.94140625,.8227539062,1.6572265625,1.4560546875,2.1484375s1.3999023438,.7373046875,2.2993164062,.7373046875Z"/>
    <path class="cls-1" d="M460.7839511303,189.8156166888c-2.912109375,0-5.4189453125-.5595703125-7.51953125-1.677734375-2.1015625-1.119140625-3.7172851562-2.728515625-4.84765625-4.830078125-1.1303710938-2.1005859375-1.6953125-4.619140625-1.6953125-7.5546875,0-2.8173828125,.5678710938-5.279296875,1.7041015625-7.38671875,1.13671875-2.1064453125,2.740234375-3.74609375,4.8120117188-4.91796875,2.0712890625-1.171875,4.515625-1.7578125,7.3330078125-1.7578125,2.0595703125,0,3.9243164062,.3193359375,5.5932617188,.958984375,1.6689453125,.638671875,3.0952148438,1.5654296875,4.2788085938,2.7783203125,1.18359375,1.2138671875,2.0952148438,2.6845703125,2.734375,4.412109375,.6391601562,1.728515625,.958984375,3.67578125,.958984375,5.841796875v2.2724609375h-24.3608398438v-5.3974609375h15.3408203125c-.01171875-.78125-.2099609375-1.470703125-.5947265625-2.068359375s-.8999023438-1.0654296875-1.544921875-1.40234375c-.6450195312-.337890625-1.3759765625-.5068359375-2.1923828125-.5068359375-.7934570312,0-1.521484375,.1689453125-2.1840820312,.5068359375-.6630859375,.3369140625-1.1928710938,.8017578125-1.5893554688,1.3935546875s-.6064453125,1.2841796875-.6303710938,2.0771484375v5.82421875c0,.8759765625,.18359375,1.6572265625,.55078125,2.34375,.3666992188,.6865234375,.8935546875,1.224609375,1.580078125,1.615234375s1.5151367188,.5859375,2.4858398438,.5859375c.6748046875,0,1.29296875-.0947265625,1.85546875-.2841796875,.5620117188-.1884765625,1.0444335938-.4638671875,1.447265625-.8251953125,.4018554688-.361328125,.6982421875-.7958984375,.8876953125-1.3046875h8.9487304688c-.3081054688,1.8935546875-1.0361328125,3.5361328125-2.1840820312,4.9267578125s-2.6665039062,2.4677734375-4.5541992188,3.2314453125c-1.8881835938,.763671875-4.0927734375,1.1455078125-6.6137695312,1.1455078125Z"/>
    <path class="cls-1" d="M109.8718417553,217.9572182513c-.154296875-.626953125-.3969726562-1.1806640625-.7280273438-1.66015625-.3315429688-.4794921875-.7431640625-.8876953125-1.234375-1.224609375-.4912109375-.337890625-1.0590820312-.591796875-1.7041015625-.763671875-.6455078125-.171875-1.3525390625-.2578125-2.1220703125-.2578125-1.6572265625,0-3.0688476562,.3974609375-4.2348632812,1.189453125-1.166015625,.7939453125-2.0537109375,1.935546875-2.6630859375,3.427734375-.6098632812,1.4912109375-.9145507812,3.2900390625-.9145507812,5.3974609375,0,2.130859375,.2900390625,3.953125,.8701171875,5.46875,.5795898438,1.515625,1.4438476562,2.6748046875,2.5922851562,3.4794921875,1.1479492188,.8056640625,2.5747070312,1.2080078125,4.279296875,1.2080078125,1.5029296875,0,2.7548828125-.21875,3.7553710938-.6572265625,1-.4375,1.7485351562-1.0595703125,2.24609375-1.8642578125,.4970703125-.8046875,.7456054688-1.751953125,.7456054688-2.8408203125l1.7045898438,.177734375h-8.3095703125v-7.03125h16.1220703125v5.0419921875c0,3.314453125-.7016601562,6.146484375-2.1040039062,8.49609375-1.4028320312,2.3505859375-3.3325195312,4.1494140625-5.7885742188,5.3984375-2.4565429688,1.2490234375-5.2705078125,1.873046875-8.4428710938,1.873046875-3.5395507812,0-6.646484375-.751953125-9.3217773438-2.2548828125s-4.7612304688-3.6455078125-6.2587890625-6.427734375c-1.4975585938-2.78125-2.24609375-6.08984375-2.24609375-9.92578125,0-3.005859375,.4584960938-5.669921875,1.3759765625-7.990234375,.9174804688-2.3193359375,2.1928710938-4.28125,3.8266601562-5.8857421875,1.6333007812-1.603515625,3.521484375-2.81640625,5.6640625-3.6396484375,2.1420898438-.822265625,4.4389648438-1.234375,6.8891601562-1.234375,2.154296875,0,4.1577148438,.3056640625,6.0102539062,.9150390625s3.4916992188,1.4736328125,4.9184570312,2.591796875c1.4262695312,1.119140625,2.5771484375,2.44140625,3.453125,3.96875,.8759765625,1.5263671875,1.4086914062,3.2021484375,1.5981445312,5.0244140625h-9.978515625Z"/>
    <path class="cls-1" d="M131.6843417553,242.7443276263c-1.740234375,0-3.2763671875-.287109375-4.6079101562-.861328125-1.3315429688-.5732421875-2.3764648438-1.447265625-3.1337890625-2.619140625-.7578125-1.171875-1.1362304688-2.6630859375-1.1362304688-4.4736328125,0-1.4921875,.2543945312-2.767578125,.7631835938-3.8271484375,.5087890625-1.05859375,1.2192382812-1.92578125,2.130859375-2.6005859375,.9111328125-.6748046875,1.9736328125-1.189453125,3.1870117188-1.544921875s2.5244140625-.5859375,3.9331054688-.6923828125c1.5268554688-.1181640625,2.7548828125-.263671875,3.6840820312-.435546875,.9291992188-.1708984375,1.6010742188-.4140625,2.015625-.7275390625,.4140625-.3134765625,.62109375-.73046875,.62109375-1.251953125v-.0712890625c0-.7099609375-.2724609375-1.25390625-.81640625-1.6328125-.544921875-.37890625-1.2431640625-.568359375-2.0952148438-.568359375-.935546875,0-1.6958007812,.2041015625-2.2817382812,.6123046875s-.9384765625,1.033203125-1.056640625,1.873046875h-9.01953125c.1181640625-1.65625,.6479492188-3.1865234375,1.5888671875-4.58984375,.9409179688-1.40234375,2.3173828125-2.5263671875,4.1284179688-3.373046875s4.0717773438-1.26953125,6.7827148438-1.26953125c1.953125,0,3.7045898438,.2275390625,5.2553710938,.68359375s2.8706054688,1.0888671875,3.9594726562,1.8994140625c1.0888671875,.8115234375,1.9204101562,1.7578125,2.4946289062,2.8408203125s.861328125,2.2587890625,.861328125,3.5244140625v18.6796875h-9.162109375v-3.8359375h-.212890625c-.5444335938,1.0185546875-1.2045898438,1.8408203125-1.9799804688,2.46875-.775390625,.626953125-1.6572265625,1.0830078125-2.6455078125,1.3671875s-2.0747070312,.42578125-3.2578125,.42578125Zm3.1958007812-6.1787109375c.7456054688,0,1.447265625-.154296875,2.1040039062-.4619140625,.6572265625-.3076171875,1.1923828125-.7509765625,1.6069335938-1.33203125,.4140625-.5791015625,.6215820312-1.2841796875,.6215820312-2.1123046875v-2.2724609375c-.2607421875,.1064453125-.5356445312,.20703125-.8256835938,.3017578125s-.5981445312,.18359375-.9233398438,.265625c-.3256835938,.0830078125-.6689453125,.16015625-1.0297851562,.2314453125-.361328125,.0703125-.7368164062,.1357421875-1.1274414062,.1953125-.7578125,.1181640625-1.3759765625,.310546875-1.85546875,.5771484375-.4794921875,.265625-.8344726562,.591796875-1.0654296875,.9765625s-.3461914062,.8134765625-.3461914062,1.287109375c0,.7578125,.2661132812,1.337890625,.798828125,1.740234375s1.2133789062,.603515625,2.0419921875,.603515625Z"/>
    <path class="cls-1" d="M152.6794589428,242.3185463763v-27.2734375h9.3037109375v5.185546875h.2841796875c.568359375-1.705078125,1.5385742188-3.0546875,2.912109375-4.048828125,1.373046875-.994140625,3.0063476562-1.4912109375,4.900390625-1.4912109375,1.91796875,0,3.5688476562,.505859375,4.9541015625,1.517578125,1.384765625,1.0126953125,2.2192382812,2.3525390625,2.5034179688,4.0224609375h.2841796875c.4614257812-1.669921875,1.4438476562-3.009765625,2.947265625-4.0224609375,1.5034179688-1.01171875,3.2670898438-1.517578125,5.2915039062-1.517578125,2.6157226562,0,4.7373046875,.8408203125,6.365234375,2.521484375,1.6274414062,1.6806640625,2.44140625,3.91796875,2.44140625,6.7109375v18.3955078125h-9.8012695312v-15.9091796875c0-1.1953125-.3017578125-2.1337890625-.9052734375-2.814453125-.6040039062-.6806640625-1.4150390625-1.0205078125-2.4326171875-1.0205078125-1.0063476562,0-1.8022460938,.33984375-2.3881835938,1.0205078125s-.87890625,1.619140625-.87890625,2.814453125v15.9091796875h-9.375v-15.9091796875c0-1.1953125-.3017578125-2.1337890625-.9057617188-2.814453125-.603515625-.6806640625-1.4145507812-1.0205078125-2.4321289062-1.0205078125-.6748046875,0-1.2548828125,.1533203125-1.740234375,.4609375-.4853515625,.30859375-.861328125,.7490234375-1.1274414062,1.3232421875-.2666015625,.57421875-.3994140625,1.2578125-.3994140625,2.05078125v15.9091796875h-9.8012695312Z"/>
    <path class="cls-1" d="M198.7463534741,242.3185463763v-27.2734375h9.8012695312v27.2734375h-9.8012695312Zm4.900390625-30.1142578125c-1.3256835938,0-2.4619140625-.4375-3.4091796875-1.3134765625-.9467773438-.8759765625-1.4204101562-1.9296875-1.4204101562-3.16015625,0-1.2314453125,.4736328125-2.28515625,1.4204101562-3.1611328125,.947265625-.8759765625,2.0834960938-1.3134765625,3.4091796875-1.3134765625,1.3374023438,0,2.4770507812,.4375,3.41796875,1.3134765625,.94140625,.8759765625,1.4116210938,1.9296875,1.4116210938,3.1611328125,0,1.23046875-.4702148438,2.2841796875-1.4116210938,3.16015625-.9409179688,.8759765625-2.0805664062,1.3134765625-3.41796875,1.3134765625Z"/>
    <path class="cls-1" d="M222.3698886303,226.9777260638v15.3408203125h-9.8012695312v-27.2734375h9.3037109375v5.185546875h.2841796875c.591796875-1.728515625,1.6362304688-3.083984375,3.1337890625-4.06640625s3.2465820312-1.4736328125,5.2470703125-1.4736328125c1.9291992188,0,3.6069335938,.44140625,5.0336914062,1.322265625,1.4262695312,.8828125,2.533203125,2.0927734375,3.3203125,3.6318359375,.787109375,1.5380859375,1.1748046875,3.2958984375,1.1630859375,5.2734375v17.400390625h-9.8012695312v-15.3408203125c.01171875-1.349609375-.3286132812-2.4091796875-1.0209960938-3.1787109375s-1.654296875-1.154296875-2.8852539062-1.154296875c-.8051757812,0-1.5063476562,.1748046875-2.1040039062,.5244140625-.59765625,.3486328125-1.056640625,.845703125-1.3759765625,1.4912109375-.3198242188,.6455078125-.4853515625,1.41796875-.4970703125,2.3173828125Z"/>
    <path class="cls-1" d="M257.0725253491,253.1134682513c-2.734375,0-5.0751953125-.3876953125-7.0224609375-1.1630859375s-3.4565429688-1.8408203125-4.5278320312-3.1953125c-1.0712890625-1.35546875-1.671875-2.9091796875-1.8017578125-4.6611328125h9.4458007812c.0947265625,.580078125,.3310546875,1.0478515625,.7104492188,1.40234375,.3784179688,.35546875,.8666992188,.61328125,1.46484375,.7724609375,.5971679688,.16015625,1.26953125,.240234375,2.0151367188,.240234375,1.2666015625,0,2.3168945312-.30859375,3.1513671875-.923828125s1.251953125-1.728515625,1.251953125-3.337890625v-4.6162109375h-.2841796875c-.3549804688,.9228515625-.8994140625,1.70703125-1.6333007812,2.3525390625-.734375,.6455078125-1.6157226562,1.1357421875-2.6455078125,1.4736328125-1.0302734375,.3369140625-2.1606445312,.505859375-3.3916015625,.505859375-1.94140625,0-3.7260742188-.44921875-5.353515625-1.349609375-1.6274414062-.8994140625-2.9296875-2.326171875-3.90625-4.279296875s-1.46484375-4.5029296875-1.46484375-7.65234375c0-3.2900390625,.5122070312-5.9658203125,1.5361328125-8.025390625s2.349609375-3.5693359375,3.9770507812-4.52734375c1.6274414062-.958984375,3.3408203125-1.4384765625,5.140625-1.4384765625,1.3491210938,0,2.5327148438,.2333984375,3.55078125,.701171875s1.8701171875,1.0888671875,2.5571289062,1.8642578125c.6860351562,.775390625,1.20703125,1.625,1.5625,2.5478515625h.212890625v-4.7587890625h9.8012695312v27.2021484375c0,2.30859375-.5947265625,4.2705078125-1.7846679688,5.8857421875-1.189453125,1.6162109375-2.8618164062,2.849609375-5.015625,3.7021484375-2.1547851562,.8525390625-4.669921875,1.2783203125-7.5463867188,1.2783203125Zm.3549804688-18.1103515625c.8994140625,0,1.671875-.251953125,2.3173828125-.7548828125,.6450195312-.5029296875,1.1420898438-1.224609375,1.4912109375-2.166015625s.5239257812-2.07421875,.5239257812-3.400390625c0-1.349609375-.1748046875-2.505859375-.5239257812-3.470703125s-.8461914062-1.705078125-1.4912109375-2.2197265625c-.6455078125-.5146484375-1.41796875-.7724609375-2.3173828125-.7724609375s-1.666015625,.2578125-2.2993164062,.7724609375-1.1186523438,1.2548828125-1.4560546875,2.2197265625-.505859375,2.12109375-.505859375,3.470703125,.1684570312,2.4951171875,.505859375,3.435546875c.3374023438,.94140625,.8227539062,1.6572265625,1.4560546875,2.1484375s1.3999023438,.7373046875,2.2993164062,.7373046875Z"/>
    <path class="cls-1" d="M307.9065097241,217.9572182513c-.154296875-.626953125-.3969726562-1.1806640625-.7280273438-1.66015625-.3315429688-.4794921875-.7431640625-.8876953125-1.234375-1.224609375-.4912109375-.337890625-1.0590820312-.591796875-1.7041015625-.763671875-.6455078125-.171875-1.3525390625-.2578125-2.1220703125-.2578125-1.6572265625,0-3.0688476562,.3974609375-4.2348632812,1.189453125-1.166015625,.7939453125-2.0537109375,1.935546875-2.6630859375,3.427734375-.6098632812,1.4912109375-.9145507812,3.2900390625-.9145507812,5.3974609375,0,2.130859375,.2900390625,3.953125,.8701171875,5.46875,.5795898438,1.515625,1.4438476562,2.6748046875,2.5922851562,3.4794921875,1.1479492188,.8056640625,2.5747070312,1.2080078125,4.279296875,1.2080078125,1.5029296875,0,2.7548828125-.21875,3.7553710938-.6572265625,1-.4375,1.7485351562-1.0595703125,2.24609375-1.8642578125,.4970703125-.8046875,.7456054688-1.751953125,.7456054688-2.8408203125l1.7045898438,.177734375h-8.3095703125v-7.03125h16.1220703125v5.0419921875c0,3.314453125-.7016601562,6.146484375-2.1040039062,8.49609375-1.4028320312,2.3505859375-3.3325195312,4.1494140625-5.7885742188,5.3984375-2.4565429688,1.2490234375-5.2705078125,1.873046875-8.4428710938,1.873046875-3.5395507812,0-6.646484375-.751953125-9.3217773438-2.2548828125s-4.7612304688-3.6455078125-6.2587890625-6.427734375c-1.4975585938-2.78125-2.24609375-6.08984375-2.24609375-9.92578125,0-3.005859375,.4584960938-5.669921875,1.3759765625-7.990234375,.9174804688-2.3193359375,2.1928710938-4.28125,3.8266601562-5.8857421875,1.6333007812-1.603515625,3.521484375-2.81640625,5.6640625-3.6396484375,2.1420898438-.822265625,4.4389648438-1.234375,6.8891601562-1.234375,2.154296875,0,4.1577148438,.3056640625,6.0102539062,.9150390625s3.4916992188,1.4736328125,4.9184570312,2.591796875c1.4262695312,1.119140625,2.5771484375,2.44140625,3.453125,3.96875,.8759765625,1.5263671875,1.4086914062,3.2021484375,1.5981445312,5.0244140625h-9.978515625Z"/>
    <path class="cls-1" d="M339.8039706616,230.3869057513v-15.341796875h9.8012695312v27.2734375h-9.3041992188v-5.1845703125h-.2841796875c-.591796875,1.7392578125-1.6274414062,3.09765625-3.1069335938,4.07421875-1.4799804688,.9765625-3.2377929688,1.46484375-5.2734375,1.46484375-1.90625,0-3.572265625-.4375-4.9985351562-1.3134765625s-2.533203125-2.0830078125-3.3203125-3.6220703125-1.1865234375-3.302734375-1.1982421875-5.291015625v-17.4013671875h9.8012695312v15.341796875c.01171875,1.3486328125,.3579101562,2.408203125,1.0385742188,3.177734375s1.6362304688,1.154296875,2.8676757812,1.154296875c.81640625,0,1.5239257812-.1748046875,2.1215820312-.5234375,.59765625-.349609375,1.0590820312-.8466796875,1.384765625-1.4921875,.3256835938-.64453125,.482421875-1.4169921875,.470703125-2.31640625Z"/>
    <path class="cls-1" d="M353.6262362866,242.3185463763v-27.2734375h9.8012695312v27.2734375h-9.8012695312Zm4.900390625-30.1142578125c-1.3256835938,0-2.4619140625-.4375-3.4091796875-1.3134765625-.9467773438-.8759765625-1.4204101562-1.9296875-1.4204101562-3.16015625,0-1.2314453125,.4736328125-2.28515625,1.4204101562-3.1611328125,.947265625-.8759765625,2.0834960938-1.3134765625,3.4091796875-1.3134765625,1.3374023438,0,2.4770507812,.4375,3.41796875,1.3134765625,.94140625,.8759765625,1.4116210938,1.9296875,1.4116210938,3.1611328125,0,1.23046875-.4702148438,2.2841796875-1.4116210938,3.16015625-.9409179688,.8759765625-2.0805664062,1.3134765625-3.41796875,1.3134765625Z"/>
    <path class="cls-1" d="M377.3200839428,242.6730385638c-1.94140625,0-3.7260742188-.5087890625-5.353515625-1.5263671875-1.6274414062-1.0185546875-2.9296875-2.5625-3.90625-4.634765625-.9765625-2.0712890625-1.46484375-4.6806640625-1.46484375-7.830078125,0-3.2900390625,.5122070312-5.9658203125,1.5361328125-8.025390625s2.349609375-3.5693359375,3.9770507812-4.52734375c1.6274414062-.958984375,3.3408203125-1.4384765625,5.140625-1.4384765625,1.3491210938,0,2.5327148438,.2333984375,3.55078125,.701171875s1.8701171875,1.0888671875,2.5571289062,1.8642578125c.6860351562,.775390625,1.20703125,1.625,1.5625,2.5478515625h.1420898438v-13.849609375h9.80078125v36.3642578125h-9.7299804688v-4.474609375h-.212890625c-.37890625,.9228515625-.9204101562,1.7490234375-1.625,2.4765625-.7041015625,.728515625-1.556640625,1.302734375-2.556640625,1.72265625-1.0004882812,.419921875-2.1396484375,.6298828125-3.41796875,.6298828125Zm3.6220703125-7.5283203125c.8994140625,0,1.671875-.2626953125,2.3173828125-.7900390625,.6450195312-.5263671875,1.1420898438-1.2724609375,1.4912109375-2.2373046875,.3491210938-.9638671875,.5239257812-2.109375,.5239257812-3.435546875,0-1.349609375-.1748046875-2.505859375-.5239257812-3.470703125s-.8461914062-1.705078125-1.4912109375-2.2197265625c-.6455078125-.5146484375-1.41796875-.7724609375-2.3173828125-.7724609375s-1.666015625,.2578125-2.2993164062,.7724609375-1.1186523438,1.2548828125-1.4560546875,2.2197265625-.505859375,2.12109375-.505859375,3.470703125,.1684570312,2.5068359375,.505859375,3.4716796875,.8227539062,1.7041015625,1.4560546875,2.21875c.6333007812,.515625,1.3999023438,.7724609375,2.2993164062,.7724609375Z"/>
    <path class="cls-1" d="M411.8108065991,242.8156166888c-2.912109375,0-5.4189453125-.5595703125-7.51953125-1.677734375-2.1015625-1.119140625-3.7172851562-2.728515625-4.84765625-4.830078125-1.1303710938-2.1005859375-1.6953125-4.619140625-1.6953125-7.5546875,0-2.8173828125,.5678710938-5.279296875,1.7041015625-7.38671875,1.13671875-2.1064453125,2.740234375-3.74609375,4.8120117188-4.91796875,2.0712890625-1.171875,4.515625-1.7578125,7.3330078125-1.7578125,2.0595703125,0,3.9243164062,.3193359375,5.5932617188,.958984375,1.6689453125,.638671875,3.0952148438,1.5654296875,4.2788085938,2.7783203125,1.18359375,1.2138671875,2.0952148438,2.6845703125,2.734375,4.412109375,.6391601562,1.728515625,.958984375,3.67578125,.958984375,5.841796875v2.2724609375h-24.3608398438v-5.3974609375h15.3408203125c-.01171875-.78125-.2099609375-1.470703125-.5947265625-2.068359375s-.8999023438-1.0654296875-1.544921875-1.40234375c-.6450195312-.337890625-1.3759765625-.5068359375-2.1923828125-.5068359375-.7934570312,0-1.521484375,.1689453125-2.1840820312,.5068359375-.6630859375,.3369140625-1.1928710938,.8017578125-1.5893554688,1.3935546875s-.6064453125,1.2841796875-.6303710938,2.0771484375v5.82421875c0,.8759765625,.18359375,1.6572265625,.55078125,2.34375,.3666992188,.6865234375,.8935546875,1.224609375,1.580078125,1.615234375s1.5151367188,.5859375,2.4858398438,.5859375c.6748046875,0,1.29296875-.0947265625,1.85546875-.2841796875,.5620117188-.1884765625,1.0444335938-.4638671875,1.447265625-.8251953125,.4018554688-.361328125,.6982421875-.7958984375,.8876953125-1.3046875h8.9487304688c-.3081054688,1.8935546875-1.0361328125,3.5361328125-2.1840820312,4.9267578125s-2.6665039062,2.4677734375-4.5541992188,3.2314453125c-1.8881835938,.763671875-4.0927734375,1.1455078125-6.6137695312,1.1455078125Z"/>
  </g>
</svg>