<svg id="Layer_1" data-name="Layer 1" xmlns="http://www.w3.org/2000/svg" viewBox="0 0 113.68 58.13"><defs><style>.cls-1{fill:#fff;}</style></defs><path id="Icon_awesome-map" data-name="Icon awesome-map" class="cls-1" d="M28.72,17.4V42.13a1.17,1.17,0,0,0,1.18,1.15,1.22,1.22,0,0,0,.42-.09L40.38,38.7V11.28l-10.19,4A2.29,2.29,0,0,0,28.72,17.4Zm14,21.3,14,4.58V15.85l-14-4.57Zm26.4-27.34L59.05,15.85V43.28l10.21-4a2.27,2.27,0,0,0,1.46-2.12V12.42a1.16,1.16,0,0,0-1.18-1.15A1.5,1.5,0,0,0,69.12,11.36Z"/></svg>