<?xml version="1.0" encoding="UTF-8"?><svg id="Layer_1" xmlns="http://www.w3.org/2000/svg" viewBox="0 0 101.747 153.41"><defs><style>.cls-1{fill:#fff;}</style></defs><path class="cls-1" d="M50.874,51.071H0V118.595c0,5.063,1.642,9.99,4.68,14.041,2.736,3.647,6.477,6.416,10.765,7.966l35.428,12.807,35.428-12.807c4.288-1.55,8.03-4.319,10.765-7.966,3.038-4.051,4.68-8.978,4.68-14.041V51.071H50.874Z"/><path class="cls-1" d="M81.35,3.794c-2.43-2.429-5.725-3.794-9.16-3.794H30.32c-3.436,0-6.731,1.365-9.16,3.794s-3.794,5.725-3.794,9.16V46.26H85.144V12.955c0-3.436-1.365-6.731-3.794-9.16Zm-12.201,26.286H33.36v-13.902h35.789v13.902Z"/></svg>