<?xml version="1.0" encoding="UTF-8"?><svg id="Layer_1" xmlns="http://www.w3.org/2000/svg" viewBox="0 0 163.86 140.824"><defs><style>.cls-1{fill:#fff;}</style></defs><path class="cls-1" d="M157.206,79.302c-3.675,0-6.655,2.98-6.655,6.655,0,.122,.029,.236,.036,.356-2.824,4.58-9.501,3.045-9.501,3.045,0-7.395-10.648-5.324-10.648-5.324v21.887H33.423v-21.887s-10.648-2.071-10.648,5.324c0,0-6.677,1.535-9.501-3.045,.007-.12,.036-.234,.036-.356,0-3.676-2.98-6.655-6.655-6.655s-6.655,2.98-6.655,6.655,2.979,6.655,6.655,6.655c1.527,0,2.917-.535,4.04-1.401,.497,.825,8.922,14.71,12.079,14.71v15.676h118.311v-15.676c3.157,0,11.582-13.886,12.079-14.71,1.123,.865,2.513,1.401,4.04,1.401,3.675,0,6.655-2.98,6.655-6.655s-2.979-6.655-6.655-6.655Z"/><polygon class="cls-1" points="120.135 84.429 120.135 94.979 114.811 94.979 114.811 84.429 109.98 84.429 109.98 94.979 104.656 94.979 104.656 84.429 99.825 84.429 99.825 94.979 94.501 94.979 94.501 84.429 89.67 84.429 89.67 94.979 84.346 94.979 84.346 84.429 79.515 84.429 79.515 94.979 74.191 94.979 74.191 84.429 69.36 84.429 69.36 94.979 64.036 94.979 64.036 84.429 59.205 84.429 59.205 94.979 53.881 94.979 53.881 84.429 49.05 84.429 49.05 94.979 43.726 94.979 43.726 84.429 38.895 84.429 38.895 94.979 38.895 100.45 124.966 100.45 124.966 94.979 124.966 84.429 120.135 84.429"/><g><polygon class="cls-1" points="29.738 131.211 29.738 134.169 29.738 140.824 34.175 140.824 34.175 134.169 48.052 134.169 48.052 131.211 29.738 131.211"/><polygon class="cls-1" points="134.123 131.211 134.123 134.169 134.123 140.824 129.686 140.824 129.686 134.169 115.809 134.169 115.809 131.211 134.123 131.211"/></g><g><path class="cls-1" d="M26.786,25.381c6.802-8.463,15.395-14.808,24.885-19.038C61.16,2.113,71.545-.001,81.93,0s20.77,2.117,30.26,6.348c9.489,4.23,18.083,10.575,24.885,19.033,1.717,2.122-1.154,5.015-3.277,3.276-14.825-11.909-32.966-18.75-51.868-18.819,0,0-6.936,.285-6.936,.285-6.729,.716-13.986,2.288-20.334,4.56-8.772,3.21-17.002,7.987-24.599,13.973-2.123,1.716-5.012-1.129-3.277-3.277h0Z"/><path class="cls-1" d="M59.922,31.139c6.893-3.069,14.451-4.602,22.008-4.601,7.558,0,15.115,1.536,22.008,4.605,6.893,3.069,13.081,7.705,18.023,13.808,1.247,1.539-.842,3.64-2.379,2.378-10.564-8.675-23.572-13.267-36.939-13.619-.238-.006-1.283,.019-2.357,.054-1.15,.037-2.333,.075-2.587,.091-4.849,.31-9.943,1.431-14.543,2.996-6.289,2.139-12.247,5.379-17.7,9.578-1.47,1.132-3.224,.062-2.818-.738,.163-.321,.071-1.723,1.123-2.863h0c4.553-5.094,10.096-8.99,16.159-11.689Z"/><path class="cls-1" d="M57.012,64.52c2.999-3.815,6.864-6.676,11.161-8.584s9.027-2.86,13.757-2.86,9.46,.954,13.757,2.862,8.162,4.768,11.162,8.582c.797,.94-.545,2.284-1.481,1.48-6.797-5.632-15.117-8.447-23.437-8.446-8.32,0-16.641,2.817-23.438,8.447-.93,.807-2.291-.553-1.481-1.481h0Z"/></g></svg>