<?xml version="1.0" encoding="UTF-8"?><svg id="Layer_4" xmlns="http://www.w3.org/2000/svg" viewBox="0 0 90.89 85.12"><defs><style>.cls-1{fill:#fff;}</style></defs><path class="cls-1" d="M85.3,45.99c-1.95,0-3.52,1.58-3.52,3.52,0,.06,.02,.12,.02,.19-1.5,2.43-5.03,1.61-5.03,1.61,0-3.92-5.64-2.82-5.64-2.82v11.59H19.76v-11.59s-5.64-1.1-5.64,2.82c0,0-3.54,.81-5.03-1.61,0-.06,.02-.12,.02-.19,0-1.95-1.58-3.52-3.52-3.52s-3.52,1.58-3.52,3.52,1.58,3.52,3.52,3.52c.81,0,1.54-.28,2.14-.74,.26,.44,4.72,7.79,6.4,7.79v8.3h62.64v-8.3c1.67,0,6.13-7.35,6.4-7.79,.59,.46,1.33,.74,2.14,.74,1.95,0,3.52-1.58,3.52-3.52s-1.58-3.52-3.52-3.52Z"/><polygon class="cls-1" points="65.67 48.7 65.67 54.29 62.86 54.29 62.86 48.7 60.3 48.7 60.3 54.29 57.48 54.29 57.48 48.7 54.92 48.7 54.92 54.29 52.1 54.29 52.1 48.7 49.54 48.7 49.54 54.29 46.73 54.29 46.73 48.7 44.17 48.7 44.17 54.29 41.35 54.29 41.35 48.7 38.79 48.7 38.79 54.29 35.97 54.29 35.97 48.7 33.41 48.7 33.41 54.29 30.6 54.29 30.6 48.7 28.04 48.7 28.04 54.29 25.22 54.29 25.22 48.7 22.66 48.7 22.66 54.29 22.66 57.18 68.23 57.18 68.23 54.29 68.23 48.7 65.67 48.7"/><g><polygon class="cls-1" points="17.81 73.47 17.81 75.04 17.81 78.56 20.16 78.56 20.16 75.04 27.51 75.04 27.51 73.47 17.81 73.47"/><polygon class="cls-1" points="73.08 73.47 73.08 75.04 73.08 78.56 70.73 78.56 70.73 75.04 63.38 75.04 63.38 73.47 73.08 73.47"/></g><g><path class="cls-1" d="M16.25,17.44c14.41-17.92,43.99-17.91,58.39,0,.91,1.12-.61,2.66-1.73,1.73-7.85-6.31-17.45-9.93-27.46-9.96,0,0-3.67,.15-3.67,.15-3.56,.38-7.4,1.21-10.77,2.41-4.64,1.7-9,4.23-13.02,7.4-1.12,.91-2.65-.6-1.73-1.73h0Z"/><path class="cls-1" d="M24.25,27.8c10.38-13.02,32.01-13.01,42.39,0,.31,.38,.25,.95-.14,1.26-.33,.27-.8,.26-1.12,0-2.92-2.3-6.08-4.14-9.45-5.37-6.74-2.48-14.22-2.48-20.96,0-3.37,1.23-6.53,3.07-9.45,5.37-.81,.67-1.93-.45-1.26-1.26h0Z"/><path class="cls-1" d="M32.25,38.16c6.35-8.08,20.03-8.08,26.39,0,.42,.5-.29,1.21-.78,.78-7.2-5.96-17.62-5.96-24.82,0-.49,.43-1.21-.29-.78-.78h0Z"/></g></svg>