<?xml version="1.0" encoding="UTF-8"?><svg id="Layer_1" xmlns="http://www.w3.org/2000/svg" xmlns:xlink="http://www.w3.org/1999/xlink" viewBox="0 0 495.049 252.084"><defs><style>.cls-1{fill:#fff;}.cls-2{fill:#0b1416;}.cls-3{fill:#69846b;}.cls-4{fill:#465741;}.cls-5{fill:#000020;}.cls-6{fill:#333;}.cls-7{fill:#8d807c;}.cls-8{clip-path:url(#clippath);}.cls-9{fill:#806258;}.cls-10,.cls-11{fill:none;}.cls-12{fill:#334845;}.cls-13{fill:#ed1c24;}.cls-14{fill:#1a1a1a;}.cls-11{stroke:#fff;stroke-miterlimit:10;stroke-width:2.535px;}</style><clipPath id="clippath"><path class="cls-10" d="M267.901,35.428v-6.947c0-14.638-11.622-26.559-26.141-27.044v-.017s0,0,0,0c-.154,0-.307,.003-.46,.006-.153-.003-.306-.006-.46-.006h0v.017c-14.519,.485-26.141,12.407-26.141,27.044v6.947c-1.928,3.243,1.665,9.116,1.665,9.116-.526,1.665,10.255,15.777,10.255,15.777,0,0,10.343,8.853,11.92,10.43,.529,.529,4.992,.529,5.522,0,1.578-1.578,11.92-10.43,11.92-10.43,0,0,10.781-14.112,10.255-15.777,0,0,3.594-5.873,1.665-9.116Z"/></clipPath></defs><g><path class="cls-4" d="M280.272,62.95c-2.399-2.104-10.88,0-10.88,0,.394-6.574-7.276-10.549-7.276-10.549l-20.641,15.545-20.641-15.545s-7.67,3.976-7.276,10.549c0,0-8.48-2.104-10.88,0-2.399,2.104-15.35,58.287,0,63.064h77.594c15.35-4.777,2.399-60.961,0-63.064Z"/><g><path class="cls-3" d="M267.901,35.428v-6.947c0-14.638-11.622-26.559-26.141-27.044v-.017s0,0,0,0c-.154,0-.307,.003-.46,.006-.153-.003-.306-.006-.46-.006h0v.017c-14.519,.485-26.141,12.407-26.141,27.044v6.947c-1.928,3.243,1.665,9.116,1.665,9.116-.526,1.665,10.255,15.777,10.255,15.777,0,0,10.343,8.853,11.92,10.43,.529,.529,4.992,.529,5.522,0,1.578-1.578,11.92-10.43,11.92-10.43,0,0,10.781-14.112,10.255-15.777,0,0,3.594-5.873,1.665-9.116Z"/><path d="M259.383,38.648l-1.459-5.968c-.549-2.246-2.562-3.826-4.875-3.826h-23.15c-2.312,0-4.325,1.58-4.875,3.826l-1.459,5.968c-.289,1.184,.301,2.407,1.408,2.916l9.634,4.435c1.361,.627,2.968,.339,4.028-.72l1.147-1.147c1.083-1.083,1.691-2.552,1.691-4.083,0,1.531,.608,3,1.691,4.083l1.147,1.147c1.059,1.059,2.667,1.347,4.028,.72l9.634-4.435c1.107-.51,1.698-1.732,1.408-2.916Z"/><path class="cls-4" d="M246.8,53.681c-.771-.162-2.617-1.125-3.918-1.839-.877-.481-1.936-.481-2.813,0-1.302,.714-3.148,1.677-3.918,1.839-1.229,.259,.535,11.538,5.105,11.138,.147-.013,.293-.013,.439,0,4.57,.4,6.334-10.879,5.105-11.138Z"/><g class="cls-8"><g><path class="cls-2" d="M245.1,9.402V1.42h-2.16v7.909h-2.929V1.42h-2.16v7.982s-3.845,9.996-14.61,9.923v7.14s7.25-.879,7.47-.879,4.98-.586,4.98-.586c0,0,5.053-.146,5.785,0,.732-.146,5.785,0,5.785,0,0,0,4.76,.586,4.98,.586s7.47,.879,7.47,.879v-7.14c-10.765,.073-14.61-9.923-14.61-9.923Z"/><path class="cls-2" d="M233.273,5.191h4.577V13.467h-5.163c-.445,0-.806-.361-.806-.806h0V6.583c0-.768,.623-1.391,1.391-1.391Z"/></g></g></g></g><g><path d="M106.244,46.903s-5.87-2.331-10.719,1.737c-4.849,4.068-11.445,24.253-34.4,6.838,0,0-3.672-3.298-4.343,2.902-.671,6.201,4.343,12.665,4.343,12.665l-18.899,7.652s-12.048,7.991-11.388,16.434c.66,8.443-2.882,31.994,2.055,31.994h103.563s2.969-42.734-.461-49.594c0,0-7.058-6.223-13.918-7.278,0,0-7.256-7.916-13.72-6.86,0,0,1.319-14.38-2.111-16.491Z"/><g><path class="cls-7" d="M97.908,46.068c8.315-.573,7.516-11.969,6.936-16.166-.122-.881-.877-1.534-1.766-1.534h0c-.985,0-1.784-.799-1.784-1.784v-3.076c0-11.585-9.391-20.976-20.976-20.976h0c-11.585,0-20.976,9.391-20.976,20.976v1.891s0,8.267,0,8.267c0,0-2.067-2.111-2.507-.176-.44,1.935,2.023,13.281,3.606,13.193l.352,5.805s3.078,8.531,8.619,9.851,11.467,.997,14.16,0c7.124-2.639,14.336-16.271,14.336-16.271Z"/><path d="M102.217,28.573l-5.103,2.552c-.212,.106-.392,.267-.518,.468-.621,.989-2.191,3.422-4.697,3.422l-9.83,.933c-1.165,.111-2.296-.424-2.95-1.394-1.273-1.888-3.35-4.814-4.062-4.933-.667-.111-2.07,2.515-3.014,4.465-.613,1.267-1.86,2.106-3.265,2.201l-8.056,.545c-.726,.049-1.351-.506-1.388-1.233l-.308-6.099c-.036-.712,.508-1.321,1.22-1.365l13.051-.801,19.183-1.577c.052-.004,.105-.005,.158-.003l9.049,.355c.698,.027,1.251,.602,1.251,1.301h0c0,.493-.279,.944-.719,1.164Z"/></g></g><g><g><path class="cls-5" d="M196.014,33.637c-.193,.039-.472-3.001-.723-9.757-.381-10.242-8.79-18.35-19.039-18.35h0c-10.249,0-18.658,8.108-19.039,18.35-.251,6.756-.53,9.795-.723,9.757,0,0-1.317,5.797,0,7.29,0,0,1.669,5.797,3.25,6.851,0,0,2.898,8.081,3.689,8.344,0,0,11.418,2.371,12.823,.527,1.405,1.844,12.823-.527,12.823-.527,.79-.263,3.689-8.344,3.689-8.344,1.581-1.054,3.25-6.851,3.25-6.851,1.317-1.493,0-7.29,0-7.29Z"/><g><path class="cls-9" d="M189.984,27.851c-1.263-3.709-13.732-4.34-13.732-4.34,0,0-12.469,.631-13.732,4.34-1.263,3.709-1.421,6.313-1.421,6.313,0,0,1.421,2.052,2.841,2.052s8.444-1.578,8.444-1.578l3.867-1.263,3.867,1.263s7.024,1.578,8.444,1.578,2.841-2.052,2.841-2.052c0,0-.158-2.604-1.421-6.313Z"/><path class="cls-9" d="M176.055,41.74s-6.274,.513-5.8,4.775c0,0,.986,1.933,5.8,1.933s5.8-1.933,5.8-1.933c.474-4.262-5.8-4.775-5.8-4.775Z"/></g><g><path class="cls-13" d="M177.633,43.411l-1.381,.474-1.381-.474s-3.354,.986-3.472,1.776c-.118,.789,4.064,3.078,4.853,2.17,.789,.908,4.972-1.381,4.853-2.17-.118-.789-3.472-1.776-3.472-1.776Z"/><ellipse cx="176.252" cy="45.23" rx="4.856" ry=".26"/></g></g><path class="cls-5" d="M237.572,113.839c-6.156-37.999-17.993-40.492-17.993-40.492-1.776-3.67-15.981-9.589-15.981-9.589,.947-2.368-2.131-8.405-2.131-9.47s-2.959-1.302-2.959-1.302l-22.255-1.657-22.255,1.657s-2.959,.237-2.959,1.302-3.078,7.103-2.131,9.47c0,0-14.205,5.919-15.981,9.589,0,0-11.838,2.493-17.993,40.492l-.474,1.184,2.368,6.274v5.115h118.851v-5.115l2.368-6.274-.473-1.184Z"/></g><path d="M376.78,98.081c-.174-.688-.155-1.403,.006-2.095,1.124-4.83-5.392-17.428-5.993-21.639-.648-4.535-1.893-2.592-3.564-5.669-1.303-2.4-5.323-6.965-7.931-6.647-.65,.079-10.809,.021-11.425-.202-3.478-1.254-16.375-2.229-23.37-2.679-2.237-.144-4.155,1.443-4.516,3.578-.361-2.134-2.279-3.722-4.516-3.578-6.995,.45-19.891,1.424-23.37,2.679-.616,.222-10.774,.281-11.425,.202-2.609-.317-6.629,4.247-7.931,6.647-1.67,3.078-2.916,1.134-3.564,5.669-.602,4.211-7.117,16.809-5.993,21.639,.161,.692-1.072,9.19-1.247,9.879-1.199,4.732-.269,19.793-.241,20.548h112.192c1.761,0,3.393-1.052,4-2.705,.342-.931,.938-1.901,1.975-2.549,2.228-1.392-1.888-18.345-3.088-23.077Z"/><g><g><path d="M320.053,0h0c-12.248,0-22.098,10.074-21.826,22.319,.242,10.923,.572,13.474,.931,14.612,0,0,7.775,23.811,9.779,23.811s1.64,3.402,11.116,0c9.476,3.402,9.111,0,11.116,0s9.779-23.811,9.779-23.811c.359-1.138,.689-3.689,.931-14.612C342.151,10.074,332.301,0,320.053,0h0Z"/><path class="cls-14" d="M299.158,36.931l-6.812,2.297c-2.203,.743-3.623,2.883-3.446,5.202,.57,7.469,6.006,22.751,11.958,22.751l10.133-5.457s-12.32-24.914-11.834-24.792Z"/><path class="cls-14" d="M340.684,36.931l6.812,2.297c2.203,.743,3.623,2.883,3.446,5.202-.57,7.469-6.006,22.751-11.958,22.751l-10.133-5.457s12.32-24.914,11.834-24.792Z"/></g><path class="cls-6" d="M341.73,19.978c-.085-3.103-2.346-6.128-5.45-6.128h-32.453c-3.104,0-5.366,3.025-5.45,6.128-.195,7.15-2.383,19.179,8.285,17.931,3.116-.364,13.392-12.03,13.392-12.03,0,0,10.276,11.666,13.392,12.03,10.668,1.248,8.48-10.782,8.285-17.931Z"/></g><g><path class="cls-12" d="M474.213,105.864c1.17-2.062-4.379-23.953-3.92-25.327s-5.498-7.559-7.025-9.85c-1.527-2.291-24.128-9.669-24.128-9.669l-7.788-6.413c-3.665,4.762-16.264,2.568-16.264,2.568,0,0-12.599,2.194-16.264-2.568l-6.433,6.413s-22.601,7.379-24.128,9.669c-1.527,2.291-7.483,8.475-7.025,9.85s-4.693,19.077-4.81,21.444c-.428,8.604,0,25.145,0,25.145h116.976s-.361-19.2,.809-21.262Z"/><path d="M438.023,22.815l-21.984-6.027-21.984,6.027c-6.336,1.737-10.172,8.164-8.693,14.565l.94,4.07c.47,2.036,1.453,3.917,2.856,5.466l13.204,14.574c2.321,2.562,5.617,4.024,9.075,4.024h9.205c3.457,0,6.753-1.461,9.075-4.024l13.204-14.574c1.403-1.548,2.386-3.43,2.856-5.466l.94-4.07c1.478-6.401-2.358-12.828-8.693-14.565Z"/><path class="cls-14" d="M442.712,29.047s-6.108-11.81-26.673-11.81-26.673,11.81-26.673,11.81c-2.647,4.989,3.461,13.947,3.461,13.947,8.144,7.33,23.212-7.635,23.212-7.635,0,0,15.067,14.966,23.212,7.635,0,0,6.108-8.959,3.461-13.947Z"/><g><path class="cls-6" d="M447.803,31c.052-8.71-3.55-15.194-8.344-19.962-12.896-12.825-33.943-12.825-46.839,0-4.794,4.768-8.396,11.252-8.344,19.962l3.054,7.483s3.054-1.68,2.901-2.138c-.153-.458-2.106-1.886-2.106-1.886,0,0,7.33-14.507,27.182-14.507s27.182,14.507,27.182,14.507c0,0-.49,1.428-.642,1.886-.153,.458,2.901,2.138,2.901,2.138l3.054-7.483Z"/><path class="cls-6" d="M376.907,52.025c4.437,9.571,15.793,13.733,25.364,9.296l-16.068-34.659c-9.571,4.437-13.733,15.793-9.296,25.364Z"/><path class="cls-6" d="M455.171,52.025c-4.437,9.571-15.793,13.733-25.364,9.296l16.068-34.659c9.571,4.437,13.733,15.793,9.296,25.364Z"/></g></g><line class="cls-11" y1="126.412" x2="495.049" y2="126.412"/><g><path class="cls-1" d="M29.998,183.104v-36.363h15.696c2.699,0,5.061,.491,7.085,1.474,2.024,.982,3.598,2.397,4.723,4.243,1.125,1.847,1.687,4.061,1.687,6.641,0,2.604-.577,4.801-1.731,6.588-1.154,1.787-2.77,3.137-4.847,4.048-2.077,.912-4.501,1.367-7.271,1.367h-9.375v-7.67h7.386c1.16,0,2.151-.146,2.974-.436s1.456-.754,1.9-1.394c.444-.639,.666-1.474,.666-2.504,0-1.041-.222-1.891-.666-2.548-.444-.656-1.077-1.142-1.9-1.456-.823-.313-1.814-.47-2.974-.47h-3.48v28.479h-9.872Zm21.307-16.69l9.091,16.69h-10.725l-8.878-16.69h10.511Z"/><path class="cls-1" d="M70.17,183.531c-1.74,0-3.276-.287-4.608-.861s-2.376-1.447-3.134-2.619c-.758-1.172-1.136-2.663-1.136-4.475,0-1.491,.254-2.767,.763-3.826s1.219-1.927,2.131-2.602c.911-.675,1.974-1.189,3.187-1.544,1.213-.355,2.524-.586,3.933-.693,1.527-.118,2.755-.263,3.684-.435s1.601-.414,2.016-.728c.414-.314,.621-.731,.621-1.252v-.071c0-.71-.272-1.255-.816-1.634-.545-.379-1.243-.568-2.095-.568-.936,0-1.696,.205-2.282,.613s-.938,1.032-1.057,1.873h-9.02c.118-1.657,.648-3.188,1.589-4.59s2.317-2.527,4.128-3.374c1.811-.846,4.072-1.27,6.783-1.27,1.953,0,3.705,.229,5.255,.684,1.551,.456,2.871,1.09,3.959,1.9s1.92,1.758,2.495,2.841,.861,2.258,.861,3.524v18.679h-9.162v-3.835h-.213c-.544,1.019-1.205,1.841-1.98,2.468-.775,.628-1.657,1.083-2.646,1.367s-2.075,.427-3.258,.427Zm3.196-6.18c.746,0,1.447-.153,2.104-.461,.657-.308,1.192-.752,1.607-1.332,.414-.58,.622-1.284,.622-2.113v-2.272c-.261,.106-.536,.207-.826,.302s-.598,.184-.923,.267c-.326,.083-.669,.16-1.03,.23-.361,.071-.737,.137-1.127,.195-.758,.119-1.376,.311-1.855,.577s-.834,.592-1.065,.977-.346,.814-.346,1.287c0,.758,.266,1.338,.799,1.74s1.213,.604,2.042,.604Z"/><path class="cls-1" d="M91.165,183.104v-27.272h9.801v27.272h-9.801Zm4.9-30.113c-1.326,0-2.462-.438-3.409-1.314-.947-.875-1.42-1.929-1.42-3.16s.474-2.284,1.42-3.16c.947-.876,2.083-1.314,3.409-1.314,1.337,0,2.477,.438,3.418,1.314,.941,.876,1.412,1.93,1.412,3.16s-.47,2.285-1.412,3.16c-.941,.877-2.081,1.314-3.418,1.314Z"/><path class="cls-1" d="M114.789,167.763v15.341h-9.801v-27.272h9.304v5.185h.284c.592-1.729,1.636-3.083,3.134-4.066,1.498-.982,3.247-1.474,5.247-1.474,1.929,0,3.607,.441,5.034,1.323,1.426,.882,2.533,2.092,3.32,3.631s1.175,3.297,1.163,5.273v17.4h-9.801v-15.341c.012-1.35-.329-2.408-1.021-3.178s-1.654-1.154-2.885-1.154c-.805,0-1.506,.175-2.104,.523-.598,.35-1.057,.847-1.376,1.491-.32,.646-.485,1.418-.497,2.317Z"/><path class="cls-1" d="M136.21,183.104v-36.363h9.801v13.85h.142c.355-.924,.875-1.772,1.562-2.548,.686-.775,1.539-1.397,2.557-1.864,1.018-.468,2.202-.702,3.551-.702,1.799,0,3.512,.479,5.14,1.438,1.627,.959,2.953,2.468,3.977,4.527,1.024,2.061,1.536,4.735,1.536,8.026,0,3.148-.488,5.759-1.465,7.83s-2.279,3.616-3.906,4.634c-1.628,1.019-3.412,1.527-5.354,1.527-1.278,0-2.417-.21-3.418-.631-1-.42-1.853-.994-2.557-1.722-.705-.729-1.246-1.554-1.625-2.478h-.213v4.475h-9.73Zm9.588-13.636c0,1.325,.175,2.471,.524,3.436s.846,1.71,1.492,2.237c.645,.526,1.417,.79,2.317,.79s1.666-.258,2.299-.772,1.119-1.255,1.456-2.22,.506-2.122,.506-3.471-.168-2.507-.506-3.472-.823-1.704-1.456-2.22c-.633-.515-1.4-.772-2.299-.772s-1.672,.258-2.317,.772c-.646,.516-1.143,1.255-1.492,2.22s-.524,2.122-.524,3.472Z"/><path class="cls-1" d="M180.786,183.601c-2.959,0-5.493-.589-7.6-1.767s-3.723-2.823-4.847-4.936c-1.125-2.113-1.687-4.566-1.687-7.36s.562-5.246,1.687-7.359,2.74-3.758,4.847-4.937c2.107-1.178,4.64-1.767,7.6-1.767s5.492,.589,7.6,1.767c2.106,1.179,3.723,2.823,4.847,4.937s1.687,4.566,1.687,7.359-.562,5.247-1.687,7.36c-1.125,2.112-2.741,3.758-4.847,4.936-2.107,1.178-4.641,1.767-7.6,1.767Zm.071-7.244c.829,0,1.545-.278,2.148-.834,.604-.557,1.071-1.35,1.403-2.38,.332-1.029,.497-2.255,.497-3.675,0-1.433-.166-2.661-.497-3.685s-.799-1.814-1.403-2.37c-.604-.557-1.32-.835-2.148-.835-.876,0-1.627,.278-2.255,.835-.627,.556-1.107,1.347-1.438,2.37-.332,1.023-.497,2.252-.497,3.685,0,1.42,.166,2.646,.497,3.675,.331,1.03,.811,1.823,1.438,2.38,.627,.556,1.379,.834,2.255,.834Z"/><path class="cls-1" d="M202.279,183.104l-6.818-27.272h9.801l3.125,16.619h.213l3.48-16.619h9.517l3.623,16.478h.213l2.983-16.478h9.801l-6.818,27.272h-10.583l-3.835-14.631h-.284l-3.835,14.631h-10.583Z"/><path class="cls-1" d="M268.702,158.104c-.095-1.184-.536-2.106-1.323-2.77s-1.979-.994-3.578-.994c-1.018,0-1.85,.121-2.495,.363-.646,.243-1.122,.571-1.429,.986-.308,.414-.468,.888-.479,1.42-.024,.438,.056,.832,.24,1.181,.183,.35,.476,.663,.879,.941,.402,.278,.917,.529,1.544,.755,.627,.225,1.373,.426,2.237,.604l2.983,.639c2.012,.427,3.735,.988,5.167,1.688,1.432,.698,2.604,1.518,3.516,2.459,.912,.94,1.583,1.997,2.015,3.169s.654,2.45,.666,3.835c-.012,2.392-.61,4.416-1.793,6.073s-2.874,2.918-5.069,3.781c-2.196,.864-4.833,1.297-7.91,1.297-3.161,0-5.916-.468-8.266-1.403-2.35-.935-4.172-2.376-5.469-4.323-1.296-1.947-1.95-4.441-1.962-7.484h9.375c.059,1.113,.337,2.048,.834,2.806s1.199,1.332,2.104,1.723c.906,.391,1.986,.586,3.241,.586,1.053,0,1.935-.131,2.646-.391,.71-.261,1.249-.622,1.616-1.083,.367-.462,.556-.988,.568-1.581-.012-.556-.193-1.044-.542-1.465-.349-.42-.92-.799-1.713-1.136-.793-.338-1.864-.654-3.213-.95l-3.623-.781c-3.22-.698-5.756-1.867-7.608-3.507-1.853-1.64-2.773-3.88-2.761-6.721-.012-2.308,.606-4.329,1.855-6.063,1.249-1.733,2.983-3.086,5.203-4.057,2.219-.971,4.767-1.456,7.644-1.456,2.936,0,5.475,.491,7.617,1.474s3.797,2.364,4.963,4.146c1.166,1.782,1.754,3.862,1.767,6.241h-9.446Z"/><path class="cls-1" d="M281.602,183.104v-27.272h9.801v27.272h-9.801Zm4.9-30.113c-1.326,0-2.462-.438-3.409-1.314-.947-.875-1.42-1.929-1.42-3.16s.474-2.284,1.42-3.16c.947-.876,2.083-1.314,3.409-1.314,1.337,0,2.477,.438,3.418,1.314,.941,.876,1.412,1.93,1.412,3.16s-.47,2.285-1.412,3.16c-.941,.877-2.081,1.314-3.418,1.314Z"/><path class="cls-1" d="M303.875,155.832l3.977,8.452,4.19-8.452h9.73l-7.315,13.637,7.67,13.636h-9.659l-4.617-8.664-4.474,8.664h-9.801l7.742-13.636-7.245-13.637h9.801Z"/><path class="cls-1" d="M352.755,158.104c-.095-1.184-.536-2.106-1.323-2.77s-1.979-.994-3.578-.994c-1.018,0-1.85,.121-2.495,.363-.646,.243-1.122,.571-1.429,.986-.308,.414-.468,.888-.479,1.42-.024,.438,.056,.832,.24,1.181,.183,.35,.476,.663,.879,.941,.402,.278,.917,.529,1.544,.755,.627,.225,1.373,.426,2.237,.604l2.983,.639c2.012,.427,3.735,.988,5.167,1.688,1.432,.698,2.604,1.518,3.516,2.459,.912,.94,1.583,1.997,2.015,3.169s.654,2.45,.666,3.835c-.012,2.392-.61,4.416-1.793,6.073s-2.874,2.918-5.069,3.781c-2.196,.864-4.833,1.297-7.91,1.297-3.161,0-5.916-.468-8.266-1.403-2.35-.935-4.172-2.376-5.469-4.323-1.296-1.947-1.95-4.441-1.962-7.484h9.375c.059,1.113,.337,2.048,.834,2.806s1.199,1.332,2.104,1.723c.906,.391,1.986,.586,3.241,.586,1.053,0,1.935-.131,2.646-.391,.71-.261,1.249-.622,1.616-1.083,.367-.462,.556-.988,.568-1.581-.012-.556-.193-1.044-.542-1.465-.349-.42-.92-.799-1.713-1.136-.793-.338-1.864-.654-3.213-.95l-3.623-.781c-3.22-.698-5.756-1.867-7.608-3.507-1.853-1.64-2.773-3.88-2.761-6.721-.012-2.308,.606-4.329,1.855-6.063,1.249-1.733,2.983-3.086,5.203-4.057,2.219-.971,4.767-1.456,7.644-1.456,2.936,0,5.475,.491,7.617,1.474s3.797,2.364,4.963,4.146c1.166,1.782,1.754,3.862,1.767,6.241h-9.446Z"/><path class="cls-1" d="M365.655,183.104v-27.272h9.801v27.272h-9.801Zm4.9-30.113c-1.326,0-2.462-.438-3.409-1.314-.947-.875-1.42-1.929-1.42-3.16s.474-2.284,1.42-3.16c.947-.876,2.083-1.314,3.409-1.314,1.337,0,2.477,.438,3.418,1.314,.941,.876,1.412,1.93,1.412,3.16s-.47,2.285-1.412,3.16c-.941,.877-2.081,1.314-3.418,1.314Z"/><path class="cls-1" d="M392.545,183.601c-2.912,0-5.419-.559-7.52-1.678-2.102-1.118-3.717-2.729-4.848-4.829-1.13-2.102-1.695-4.619-1.695-7.556,0-2.816,.568-5.279,1.704-7.386,1.137-2.107,2.74-3.747,4.812-4.919,2.071-1.172,4.516-1.758,7.333-1.758,2.06,0,3.924,.32,5.593,.959,1.669,.64,3.095,1.565,4.279,2.779,1.184,1.213,2.095,2.684,2.734,4.412s.959,3.675,.959,5.842v2.272h-24.361v-5.397h15.341c-.012-.781-.21-1.471-.595-2.069-.385-.598-.9-1.064-1.545-1.402-.645-.337-1.376-.506-2.192-.506-.793,0-1.521,.169-2.184,.506-.663,.338-1.193,.802-1.589,1.394-.396,.593-.606,1.285-.63,2.078v5.823c0,.876,.184,1.657,.551,2.344,.367,.687,.894,1.226,1.58,1.616s1.515,.586,2.486,.586c.675,0,1.293-.095,1.855-.284,.562-.189,1.044-.465,1.447-.826,.402-.36,.698-.796,.888-1.305h8.949c-.308,1.895-1.036,3.536-2.184,4.928-1.148,1.391-2.667,2.468-4.554,3.231-1.888,.763-4.093,1.145-6.614,1.145Z"/><path class="cls-1" d="M422.063,193.9c-2.734,0-5.075-.388-7.022-1.163s-3.457-1.841-4.528-3.196-1.672-2.909-1.802-4.661h9.446c.095,.58,.331,1.048,.71,1.403,.378,.354,.867,.612,1.465,.772,.597,.159,1.27,.239,2.015,.239,1.267,0,2.317-.308,3.151-.923,.834-.616,1.252-1.729,1.252-3.338v-4.617h-.284c-.355,.924-.899,1.708-1.633,2.353-.734,.646-1.616,1.137-2.646,1.474-1.03,.338-2.161,.507-3.392,.507-1.941,0-3.726-.45-5.354-1.35s-2.93-2.326-3.906-4.279-1.465-4.504-1.465-7.652c0-3.291,.512-5.966,1.536-8.026,1.024-2.06,2.35-3.568,3.977-4.527s3.341-1.438,5.141-1.438c1.349,0,2.533,.234,3.551,.702,1.018,.467,1.87,1.089,2.557,1.864,.686,.775,1.207,1.624,1.562,2.548h.213v-4.759h9.801v27.202c0,2.308-.595,4.27-1.785,5.886-1.189,1.615-2.862,2.85-5.016,3.702-2.155,.852-4.67,1.278-7.546,1.278Zm.355-18.111c.899,0,1.672-.251,2.317-.754,.645-.503,1.142-1.226,1.491-2.167,.349-.94,.524-2.074,.524-3.399,0-1.35-.175-2.507-.524-3.472s-.846-1.704-1.491-2.22c-.646-.515-1.418-.772-2.317-.772s-1.666,.258-2.299,.772c-.633,.516-1.119,1.255-1.456,2.22s-.506,2.122-.506,3.472,.168,2.494,.506,3.436c.337,.94,.823,1.657,1.456,2.148s1.4,.736,2.299,.736Z"/><path class="cls-1" d="M453.499,183.601c-2.912,0-5.419-.559-7.52-1.678-2.102-1.118-3.717-2.729-4.848-4.829-1.13-2.102-1.695-4.619-1.695-7.556,0-2.816,.568-5.279,1.704-7.386,1.137-2.107,2.74-3.747,4.812-4.919,2.071-1.172,4.516-1.758,7.333-1.758,2.06,0,3.924,.32,5.593,.959,1.669,.64,3.095,1.565,4.279,2.779,1.184,1.213,2.095,2.684,2.734,4.412s.959,3.675,.959,5.842v2.272h-24.361v-5.397h15.341c-.012-.781-.21-1.471-.595-2.069-.385-.598-.9-1.064-1.545-1.402-.645-.337-1.376-.506-2.192-.506-.793,0-1.521,.169-2.184,.506-.663,.338-1.193,.802-1.589,1.394-.396,.593-.606,1.285-.63,2.078v5.823c0,.876,.184,1.657,.551,2.344,.367,.687,.894,1.226,1.58,1.616s1.515,.586,2.486,.586c.675,0,1.293-.095,1.855-.284,.562-.189,1.044-.465,1.447-.826,.402-.36,.698-.796,.888-1.305h8.949c-.308,1.895-1.036,3.536-2.184,4.928-1.148,1.391-2.667,2.468-4.554,3.231-1.888,.763-4.093,1.145-6.614,1.145Z"/><path class="cls-1" d="M102.587,211.744c-.154-.628-.397-1.181-.728-1.66-.332-.479-.743-.888-1.234-1.226-.491-.337-1.059-.592-1.704-.764-.646-.171-1.353-.257-2.122-.257-1.657,0-3.069,.396-4.235,1.189s-2.054,1.936-2.663,3.427c-.61,1.491-.915,3.291-.915,5.397,0,2.131,.29,3.954,.87,5.469,.58,1.516,1.444,2.676,2.592,3.48,1.148,.805,2.575,1.207,4.279,1.207,1.503,0,2.755-.219,3.755-.656,1-.438,1.749-1.06,2.246-1.864,.497-.806,.746-1.752,.746-2.842l1.705,.178h-8.31v-7.031h16.122v5.043c0,3.314-.702,6.146-2.104,8.496-1.403,2.35-3.333,4.148-5.789,5.397-2.457,1.249-5.271,1.873-8.443,1.873-3.54,0-6.646-.751-9.322-2.255-2.675-1.503-4.761-3.646-6.259-6.428-1.498-2.781-2.246-6.09-2.246-9.925,0-3.007,.458-5.67,1.376-7.99s2.193-4.282,3.827-5.886c1.633-1.604,3.521-2.817,5.664-3.641,2.142-.822,4.439-1.233,6.889-1.233,2.154,0,4.158,.305,6.01,.914,1.853,.61,3.492,1.474,4.918,2.593,1.426,1.118,2.577,2.441,3.453,3.968,.876,1.527,1.409,3.202,1.598,5.025h-9.979Z"/><path class="cls-1" d="M124.399,236.531c-1.74,0-3.276-.287-4.608-.861s-2.376-1.447-3.134-2.619c-.758-1.172-1.136-2.663-1.136-4.475,0-1.491,.254-2.767,.763-3.826s1.219-1.927,2.131-2.602c.911-.675,1.974-1.189,3.187-1.544,1.213-.355,2.524-.586,3.933-.693,1.527-.118,2.755-.263,3.684-.435s1.601-.414,2.016-.728c.414-.314,.621-.731,.621-1.252v-.071c0-.71-.272-1.255-.816-1.634-.545-.379-1.243-.568-2.095-.568-.936,0-1.696,.205-2.282,.613s-.938,1.032-1.057,1.873h-9.02c.118-1.657,.648-3.188,1.589-4.59s2.317-2.527,4.128-3.374c1.811-.846,4.072-1.27,6.783-1.27,1.953,0,3.705,.229,5.255,.684,1.551,.456,2.871,1.09,3.959,1.9s1.92,1.758,2.495,2.841,.861,2.258,.861,3.524v18.679h-9.162v-3.835h-.213c-.544,1.019-1.205,1.841-1.98,2.468-.775,.628-1.657,1.083-2.646,1.367s-2.075,.427-3.258,.427Zm3.196-6.18c.746,0,1.447-.153,2.104-.461,.657-.308,1.192-.752,1.607-1.332,.414-.58,.622-1.284,.622-2.113v-2.272c-.261,.106-.536,.207-.826,.302s-.598,.184-.923,.267c-.326,.083-.669,.16-1.03,.23-.361,.071-.737,.137-1.127,.195-.758,.119-1.376,.311-1.855,.577s-.834,.592-1.065,.977-.346,.814-.346,1.287c0,.758,.266,1.338,.799,1.74s1.213,.604,2.042,.604Z"/><path class="cls-1" d="M145.394,236.104v-27.272h9.304v5.185h.284c.568-1.704,1.539-3.054,2.912-4.048,1.373-.995,3.006-1.492,4.9-1.492,1.918,0,3.569,.507,4.954,1.519,1.385,1.012,2.219,2.353,2.503,4.021h.284c.461-1.669,1.444-3.01,2.947-4.021s3.267-1.519,5.292-1.519c2.616,0,4.737,.841,6.365,2.521,1.627,1.681,2.441,3.918,2.441,6.712v18.395h-9.801v-15.909c0-1.195-.302-2.133-.905-2.813-.604-.681-1.415-1.021-2.433-1.021-1.006,0-1.802,.341-2.388,1.021s-.879,1.618-.879,2.813v15.909h-9.375v-15.909c0-1.195-.302-2.133-.906-2.813-.604-.681-1.415-1.021-2.432-1.021-.675,0-1.255,.154-1.74,.462s-.861,.749-1.127,1.322c-.267,.574-.399,1.258-.399,2.051v15.909h-9.801Z"/><path class="cls-1" d="M191.461,236.104v-27.272h9.801v27.272h-9.801Zm4.9-30.113c-1.326,0-2.462-.438-3.409-1.314-.947-.875-1.42-1.929-1.42-3.16s.474-2.284,1.42-3.16c.947-.876,2.083-1.314,3.409-1.314,1.337,0,2.477,.438,3.418,1.314,.941,.876,1.412,1.93,1.412,3.16s-.47,2.285-1.412,3.16c-.941,.877-2.081,1.314-3.418,1.314Z"/><path class="cls-1" d="M215.085,220.763v15.341h-9.801v-27.272h9.304v5.185h.284c.592-1.729,1.636-3.083,3.134-4.066,1.498-.982,3.247-1.474,5.247-1.474,1.929,0,3.607,.441,5.034,1.323,1.426,.882,2.533,2.092,3.32,3.631s1.175,3.297,1.163,5.273v17.4h-9.801v-15.341c.012-1.35-.329-2.408-1.021-3.178s-1.654-1.154-2.885-1.154c-.805,0-1.506,.175-2.104,.523-.598,.35-1.057,.847-1.376,1.491-.32,.646-.485,1.418-.497,2.317Z"/><path class="cls-1" d="M249.788,246.9c-2.734,0-5.075-.388-7.022-1.163s-3.457-1.841-4.528-3.196-1.672-2.909-1.802-4.661h9.446c.095,.58,.331,1.048,.71,1.403,.378,.354,.867,.612,1.465,.772,.597,.159,1.27,.239,2.015,.239,1.267,0,2.317-.308,3.151-.923,.834-.616,1.252-1.729,1.252-3.338v-4.617h-.284c-.355,.924-.899,1.708-1.633,2.353-.734,.646-1.616,1.137-2.646,1.474-1.03,.338-2.161,.507-3.392,.507-1.941,0-3.726-.45-5.354-1.35s-2.93-2.326-3.906-4.279-1.465-4.504-1.465-7.652c0-3.291,.512-5.966,1.536-8.026,1.024-2.06,2.35-3.568,3.977-4.527s3.341-1.438,5.141-1.438c1.349,0,2.533,.234,3.551,.702,1.018,.467,1.87,1.089,2.557,1.864,.686,.775,1.207,1.624,1.562,2.548h.213v-4.759h9.801v27.202c0,2.308-.595,4.27-1.785,5.886-1.189,1.615-2.862,2.85-5.016,3.702-2.155,.852-4.67,1.278-7.546,1.278Zm.355-18.111c.899,0,1.672-.251,2.317-.754,.645-.503,1.142-1.226,1.491-2.167,.349-.94,.524-2.074,.524-3.399,0-1.35-.175-2.507-.524-3.472s-.846-1.704-1.491-2.22c-.646-.515-1.418-.772-2.317-.772s-1.666,.258-2.299,.772c-.633,.516-1.119,1.255-1.456,2.22s-.506,2.122-.506,3.472,.168,2.494,.506,3.436c.337,.94,.823,1.657,1.456,2.148s1.4,.736,2.299,.736Z"/><path class="cls-1" d="M300.622,211.744c-.154-.628-.397-1.181-.728-1.66-.332-.479-.743-.888-1.234-1.226-.491-.337-1.059-.592-1.704-.764-.646-.171-1.353-.257-2.122-.257-1.657,0-3.069,.396-4.235,1.189s-2.054,1.936-2.663,3.427c-.61,1.491-.915,3.291-.915,5.397,0,2.131,.29,3.954,.87,5.469,.58,1.516,1.444,2.676,2.592,3.48,1.148,.805,2.575,1.207,4.279,1.207,1.503,0,2.755-.219,3.755-.656,1-.438,1.749-1.06,2.246-1.864,.497-.806,.746-1.752,.746-2.842l1.705,.178h-8.31v-7.031h16.122v5.043c0,3.314-.702,6.146-2.104,8.496-1.403,2.35-3.333,4.148-5.789,5.397-2.457,1.249-5.271,1.873-8.443,1.873-3.54,0-6.646-.751-9.322-2.255-2.675-1.503-4.761-3.646-6.259-6.428-1.498-2.781-2.246-6.09-2.246-9.925,0-3.007,.458-5.67,1.376-7.99s2.193-4.282,3.827-5.886c1.633-1.604,3.521-2.817,5.664-3.641,2.142-.822,4.439-1.233,6.889-1.233,2.154,0,4.158,.305,6.01,.914,1.853,.61,3.492,1.474,4.918,2.593,1.426,1.118,2.577,2.441,3.453,3.968,.876,1.527,1.409,3.202,1.598,5.025h-9.979Z"/><path class="cls-1" d="M332.519,224.172v-15.341h9.801v27.272h-9.304v-5.185h-.284c-.592,1.74-1.627,3.099-3.107,4.075-1.48,.977-3.238,1.465-5.273,1.465-1.906,0-3.572-.438-4.999-1.314-1.426-.875-2.533-2.083-3.32-3.622-.787-1.538-1.187-3.302-1.198-5.291v-17.4h9.801v15.341c.012,1.35,.358,2.409,1.039,3.179s1.636,1.153,2.868,1.153c.816,0,1.524-.174,2.122-.523,.598-.349,1.059-.846,1.385-1.491s.482-1.418,.471-2.317Z"/><path class="cls-1" d="M346.341,236.104v-27.272h9.801v27.272h-9.801Zm4.9-30.113c-1.326,0-2.462-.438-3.409-1.314-.947-.875-1.42-1.929-1.42-3.16s.474-2.284,1.42-3.16c.947-.876,2.083-1.314,3.409-1.314,1.337,0,2.477,.438,3.418,1.314,.941,.876,1.412,1.93,1.412,3.16s-.47,2.285-1.412,3.16c-.941,.877-2.081,1.314-3.418,1.314Z"/><path class="cls-1" d="M370.035,236.459c-1.941,0-3.726-.509-5.354-1.527-1.627-1.018-2.93-2.562-3.906-4.634s-1.465-4.682-1.465-7.83c0-3.291,.512-5.966,1.536-8.026,1.024-2.06,2.35-3.568,3.977-4.527s3.341-1.438,5.141-1.438c1.349,0,2.533,.234,3.551,.702,1.018,.467,1.87,1.089,2.557,1.864,.686,.775,1.207,1.624,1.562,2.548h.142v-13.85h9.801v36.363h-9.73v-4.475h-.213c-.379,.924-.92,1.749-1.625,2.478-.704,.728-1.557,1.302-2.557,1.722-1,.421-2.14,.631-3.418,.631Zm3.622-7.528c.899,0,1.672-.264,2.317-.79,.645-.527,1.142-1.272,1.491-2.237s.524-2.11,.524-3.436c0-1.35-.175-2.507-.524-3.472s-.846-1.704-1.491-2.22c-.646-.515-1.418-.772-2.317-.772s-1.666,.258-2.299,.772c-.633,.516-1.119,1.255-1.456,2.22s-.506,2.122-.506,3.472,.168,2.506,.506,3.471,.823,1.705,1.456,2.22,1.4,.772,2.299,.772Z"/><path class="cls-1" d="M404.526,236.601c-2.912,0-5.419-.559-7.52-1.678-2.102-1.118-3.717-2.729-4.848-4.829-1.13-2.102-1.695-4.619-1.695-7.556,0-2.816,.568-5.279,1.704-7.386,1.137-2.107,2.74-3.747,4.812-4.919,2.071-1.172,4.516-1.758,7.333-1.758,2.06,0,3.924,.32,5.593,.959,1.669,.64,3.095,1.565,4.279,2.779,1.184,1.213,2.095,2.684,2.734,4.412s.959,3.675,.959,5.842v2.272h-24.361v-5.397h15.341c-.012-.781-.21-1.471-.595-2.069-.385-.598-.9-1.064-1.545-1.402-.645-.337-1.376-.506-2.192-.506-.793,0-1.521,.169-2.184,.506-.663,.338-1.193,.802-1.589,1.394-.396,.593-.606,1.285-.63,2.078v5.823c0,.876,.184,1.657,.551,2.344,.367,.687,.894,1.226,1.58,1.616s1.515,.586,2.486,.586c.675,0,1.293-.095,1.855-.284,.562-.189,1.044-.465,1.447-.826,.402-.36,.698-.796,.888-1.305h8.949c-.308,1.895-1.036,3.536-2.184,4.928-1.148,1.391-2.667,2.468-4.554,3.231-1.888,.763-4.093,1.145-6.614,1.145Z"/></g></svg>