<svg id="Layer_1" data-name="Layer 1" xmlns="http://www.w3.org/2000/svg" viewBox="0 0 113.68 58.13"><defs><style>.cls-1{fill:#fff;}</style></defs><path class="cls-1" d="M22,34.78c.58-1.92,1.26-3.9,1.78-5.93.42-1.64.6-3.34.94-5a26.68,26.68,0,0,1,6.52-13.4,20.29,20.29,0,0,1,30.64.64,26.68,26.68,0,0,1,6,13.35,43.63,43.63,0,0,0,2.4,9.41L70.75,35c-.46-.35-.8-.65-1.17-.89a9,9,0,0,0-4.07-1.2,39,39,0,0,0-8.43.49c-2.88.39-22,0-25.49-.43A18.61,18.61,0,0,0,25,33.2,6.54,6.54,0,0,0,22,34.78Z"/><path class="cls-1" d="M28.71,39.76a37.32,37.32,0,0,1,.05,5c-.09,1.17-.28,2.33-.39,3.5a4.74,4.74,0,0,0,.26,2.51,1.87,1.87,0,0,0,2.07,1.12,2.28,2.28,0,0,0,1.15-1A8.5,8.5,0,0,0,33,45.54c-.12-1.85-.58-3.67-.82-5.5a49.41,49.41,0,0,1,0-7.79C27.56,30.13,28.6,37.63,28.71,39.76Z"/><path class="cls-1" d="M60.07,39.76a37.32,37.32,0,0,1,0,5c-.09,1.17-.28,2.33-.39,3.5A4.74,4.74,0,0,0,60,50.73a1.89,1.89,0,0,0,2.07,1.12,2.27,2.27,0,0,0,1.16-1,8.5,8.5,0,0,0,1.17-5.33c-.12-1.85-.58-3.67-.82-5.5a50.65,50.65,0,0,1,0-7.79C58.92,30.13,60,37.63,60.07,39.76Z"/></svg>