<?xml version="1.0" encoding="UTF-8"?><svg id="Layer_1" xmlns="http://www.w3.org/2000/svg" viewBox="0 0 168.001 162.259"><defs><style>.cls-1{fill:#fff;}</style></defs><path class="cls-1" d="M86.191,44.565h0c-4.474-4.474-11.727-4.474-16.2,0l-3.441,3.441-3.441-3.441c-4.474-4.474-11.727-4.474-16.2,0h0c-4.474,4.474-4.474,11.727,0,16.2l3.441,3.441,16.2,16.2,16.2-16.2,3.441-3.441c4.473-4.474,4.473-11.726,0-16.2Z"/><rect class="cls-1" y="149.836" width="168.001" height="12.423"/><path class="cls-1" d="M151.438,0h8.294c4.564,0,8.27,3.705,8.27,8.27V85.948h-16.563V0h0Z"/><path class="cls-1" d="M154.691,95.413c-7.677,0-13.902-6.224-13.902-13.902V0H19.608C8.779,0,0,8.779,0,19.608v120.591H168.001v-44.786h-13.31Zm-38.747-.888c0,5.718-4.635,10.353-10.352,10.353H27.507c-5.717,0-10.352-4.635-10.352-10.353V27.089c0-5.718,4.635-10.352,10.352-10.352H105.592c5.717,0,10.352,4.634,10.352,10.352V94.525Z"/></svg>