<?xml version="1.0" encoding="UTF-8"?><svg id="Layer_4" xmlns="http://www.w3.org/2000/svg" viewBox="0 0 75.08 70.31"><defs><style>.cls-1{fill:#fff;}</style></defs><path class="cls-1" d="M38.47,19.61h0c-1.9-1.9-4.99-1.9-6.89,0l-1.46,1.46-1.46-1.46c-1.9-1.9-4.99-1.9-6.89,0h0c-1.9,1.9-1.9,4.99,0,6.89l1.46,1.46,6.89,6.89,6.89-6.89,1.46-1.46c1.9-1.9,1.9-4.99,0-6.89Z"/><rect class="cls-1" x="1.82" y="64.37" width="71.44" height="5.28"/><path class="cls-1" d="M66.22,.65h3.53c1.94,0,3.52,1.58,3.52,3.52V37.2h-7.04V.65h0Z"/><path class="cls-1" d="M67.6,41.23c-3.26,0-5.91-2.65-5.91-5.91V.65H10.16C5.55,.65,1.82,4.39,1.82,8.99V60.27H73.26v-19.04h-5.66Zm-16.48-.38c0,2.43-1.97,4.4-4.4,4.4H13.52c-2.43,0-4.4-1.97-4.4-4.4V12.17c0-2.43,1.97-4.4,4.4-4.4H46.72c2.43,0,4.4,1.97,4.4,4.4v28.68Z"/></svg>