<?xml version="1.0" encoding="UTF-8"?><svg id="Layer_1" xmlns="http://www.w3.org/2000/svg" viewBox="0 0 180.671 166.739"><defs><style>.cls-1{fill:#fff;}</style></defs><path class="cls-1" d="M20.87,7.826V158.914c0,4.322,3.504,7.826,7.826,7.826h121.908c4.322,0,7.826-3.504,7.826-7.826V7.826c0-4.322-3.504-7.826-7.826-7.826H28.695c-4.322,0-7.826,3.504-7.826,7.826Zm113.669,139.441H44.76c-4.322,0-7.826-3.504-7.826-7.826V27.298c0-4.322,3.504-7.826,7.826-7.826h89.779c4.322,0,7.826,3.504,7.826,7.826v112.143c0,4.322-3.504,7.826-7.826,7.826Z"/><polygon class="cls-1" points="20.869 105.351 0 105.351 0 61.388 20.869 61.388 20.869 68.207 6.819 68.207 6.819 98.533 20.869 98.533 20.869 105.351"/><polygon class="cls-1" points="179.3 105.351 158.429 105.351 158.429 98.533 172.481 98.533 172.481 68.207 158.429 68.207 158.429 61.388 179.3 61.388 179.3 105.351"/><g><path class="cls-1" d="M51.544,89.474V41.161l14.466-12.241h-6.369l-15.09,12.769v47.786c0,2.137,1.732,3.869,3.869,3.869h4.992c-1.13-.919-1.869-2.303-1.869-3.869Z"/><path class="cls-1" d="M62.571,94.481h-6.021c-.332,0-.656-.036-.971-.098v47.134h4.643s.686-2.653,2.349-6.14v-40.896Z"/><path class="cls-1" d="M119.658,28.92h-50.129l-15.712,13.296v47.258c0,1.507,1.226,2.734,2.732,2.734h8.294v49.309h4.32s4.893-19.036,20.486-22.185c15.593,3.149,20.486,22.185,20.486,22.185h4.643v-9.758c3.097,5.093,4.299,9.758,4.299,9.758h4.643v-48.173h7.158c2.137,0,3.869-1.732,3.869-3.869V41.689l-15.09-12.769Zm-3.773,44.69h-43.529v-4.063h43.529v4.063Zm0-10.737h-43.529v-4.063h43.529v4.063Zm0-10.737h-43.529v-4.063h43.529v4.063Z"/></g></svg>