<?xml version="1.0" encoding="UTF-8"?><svg id="Layer_1" xmlns="http://www.w3.org/2000/svg" viewBox="0 0 135.913 186.826"><defs><style>.cls-1{fill:#fff;}</style></defs><rect class="cls-1" x="46.061" y="14.488" width="56.409" height="56.409" transform="translate(24.704 -27.176) rotate(24.757)"/><path class="cls-1" d="M29.325,0L12.617,36.232l19.188,17.939L55.427,2.946,29.325,0Zm4.98,34.786l-5.683,12.323-4.989-17.244,10.672,4.921Zm1.16-2.515l-7.83-11.083,13.513-1.24-5.683,12.323Zm-3.829-19.759l16.354-7.401-5.683,12.323-10.672-4.921Z"/><path class="cls-1" d="M135.913,49.153l-16.708,36.232-26.102-2.946,23.622-51.225,19.188,17.939Zm-29.691,18.798l-5.683,12.323,16.355-7.402-10.672-4.921Zm1.16-2.515l13.513-1.24-7.83-11.083-5.683,12.323Zm17.514-9.916l-4.989-17.244-5.683,12.323,10.672,4.921Z"/><rect class="cls-1" x="39.717" y="71.236" width="38.753" height="8.714" transform="translate(37.087 -17.799) rotate(24.757)"/><rect class="cls-1" x="41.657" y="85.396" width="21.813" height="8.714" transform="translate(42.417 -13.763) rotate(24.757)"/><rect class="cls-1" x="35.824" y="98.046" width="21.813" height="8.714" transform="translate(47.178 -10.157) rotate(24.757)"/><rect class="cls-1" x="29.99" y="110.696" width="21.813" height="8.714" transform="translate(51.939 -6.552) rotate(24.757)"/><rect class="cls-1" x="24.156" y="123.346" width="21.813" height="8.714" transform="translate(56.7 -2.946) rotate(24.757)"/><rect class="cls-1" x="18.323" y="135.996" width="21.813" height="8.714" transform="translate(61.462 .659) rotate(24.757)"/><rect class="cls-1" x="12.489" y="148.646" width="21.813" height="8.714" transform="translate(66.223 4.265) rotate(24.757)"/><rect class="cls-1" x="6.656" y="161.296" width="21.813" height="8.714" transform="translate(70.984 7.87) rotate(24.757)"/><rect class="cls-1" x=".822" y="173.946" width="21.813" height="8.714" transform="translate(75.745 11.476) rotate(24.757)"/></svg>