<svg id="Layer_1" data-name="Layer 1" xmlns="http://www.w3.org/2000/svg" viewBox="0 0 66.58 34.28"><defs><style>.cls-1{fill:#fff;}</style></defs><path class="cls-1" d="M87.71,20.31s-.35-1.35-4.17.31v.58l-1,.35-1.19-2.39a2.41,2.41,0,0,0-2.16-1.33h-3l-1.55.62v-.74a1.54,1.54,0,0,0-1.54-1.54h-.5a1.55,1.55,0,0,0-1.31.73l-.89,1.44L69.24,18H46.51l-6.74.13a.91.91,0,0,0-.91-.91h-.41a.9.9,0,0,0-.9.91v.05L29,18.55V14.73l-1-.47-1,4v3.64H22.54v1.53h4.39V24h1.73v.64L50.1,26.82l2.69,2.27S49,42.55,45.24,45.76l3.07,2.79s8.16-12.47,8.33-18l1,.28,1.37.2s-.34,6.86,9.51,3.62L72.83,43l5.68-3.45L73.17,31.4s-.72-3,1.28-3.48l6.3,0,.45.31,1.36.07a1,1,0,0,0,1-.62h0a1,1,0,0,0-.06-.87l-.72-1.26,1.2,0s1.17-.69,3.27,9.64l1.9-.51S87.5,25.89,87.71,20.31Zm-23.23,14h-1.9a1.5,1.5,0,0,1,0-3h1.9a1.5,1.5,0,0,1,0,3Z" transform="translate(-22.54 -14.26)"/><path class="cls-1" d="M65.16,31.26l0,.72a1.53,1.53,0,0,1-1.79,1.43.2.2,0,0,1,0-.4,1,1,0,0,0,1.11-1l0-.72a.37.37,0,1,1,.74,0Z" transform="translate(-22.54 -14.26)"/></svg>