<?xml version="1.0" encoding="UTF-8"?><svg id="Layer_1" xmlns="http://www.w3.org/2000/svg" viewBox="0 0 162.305 156.43"><defs><style>.cls-1{fill:#fff;}</style></defs><path class="cls-1" d="M62.478,75.526s-3.845,19.225,8.282,21.887c12.127,2.662,8.282-13.31,8.282-13.31l-16.563-8.577Z"/><path class="cls-1" d="M153.19,49.53c-2.081-7.268,1.997-10.625-1.183-15.775-1.949-3.156-3.819-2.442-7.585-5.174-5.417-.256-10.489,2.755-15.864,3.693-6.612,1.153-13.314-.913-19.708-2.954-.699-.223-1.417-.456-1.983-.924-1.568-1.294-1.357-3.712-1.005-5.715,.181-1.03,.375-2.093,.949-2.968,.574-.875,1.633-1.52,2.653-1.285,.824,.191,1.418,.882,2.035,1.461,2.722,2.56,6.692,3.361,10.427,3.246,3.735-.115,7.398-1.027,11.115-1.407,1.652-.169,3.243-.323,4.781-.379-2.05-3.279-3.057-5.912-6.716-7.313-3.289-1.26-3.774,.369-7.099-.789-7.417-2.582-6.705-11.28-12.62-13.015-4.147-1.216-5.932,2.639-13.803,3.944-6.091,1.01-9.616-.537-14.197-1.183C63.501,.191,43.45,17.151,41.583,18.769c-6.016,5.212-8.058,9.187-15.38,12.225-.088,.037-.16,.057-.246,.092,4.13-.877,7.923-3.422,11.676-5.552,8.455-4.8,17.989-7.685,27.686-8.378,1.072,2.022-1.315,4.087-3.345,5.144-4.479,2.332-8.959,4.663-13.438,6.995-3.793,1.975-7.598,3.954-11.599,5.463-8.76,3.302-18.391,4.238-27.629,2.737-3.136,2.212-7.252,5.947-8.739,11.247-2.177,7.756,2.324,15.147,6.31,21.69,7.742,12.71,16.327,16.304,14.986,22.479-.214,.987-.65,1.753-1.164,2.429,4.421,1.692,9.356,2.808,13.824,3.37-5.015,4.435-12.288,6.133-18.761,4.436,1.062,3.253,6.285,4.611,12.016,12.244,3.147,4.191,1.937,4.275,5.127,8.282,5.192,6.523,8.845,6.861,10.648,11.831,1.667,4.593-.888,5.86,.789,9.07,3.213,6.151,15.203,6.495,22.479,6.705,5.989,.172,8.192-.587,13.014,.789,6.238,1.779,6.081,4.055,9.859,4.338,8.281,.621,12.236-10.072,19.324-8.676,4.193,.826,5.371,5.072,7.887,4.338,3.737-1.091,2.222-10.772,6.31-12.225,3.191-1.134,5.648,4.218,9.465,3.549,3.74-.654,4.056-6.269,8.482-15.475-.579-.844-1.103-1.73-1.562-2.63-1.641-3.217-2.753-6.704-4.658-9.772-.618-.995-1.314-1.938-2.01-2.88-.533-.721-1.066-1.443-1.598-2.164,1.728-.895,3.737,.442,5.189,1.738,2.512,2.241,4.988,4.647,7.858,6.435,.51,.318,1.086,.585,1.686,.835,1.741-2.358,3.137-3.702,5.936-8.821,4.66-8.522,6.99-12.783,6.704-18.141-.47-8.826-7.168-11.363-5.521-17.352,1.587-5.769,8.415-5.646,9.071-10.648,.684-5.226-6.625-6.445-9.071-14.986Zm-22.772,51.24c.083-.126-4.69-3.298-7.995-5.621v15.278l-17.211,7.099v.278c-.344,.093-.688,.189-1.021,.322-1.31,.523-2.485,1.371-3.84,1.764-2.823,.82-6.016-.442-8.725,.696-.773,.325-1.51,1.371-.854,1.892,.174,.138,.402,.184,.62,.223,1.727,.313,8.139,1.064,13.82,.888v12.866h-3.721v-4.141h-7.675v4.141h-15.35v-4.141h-7.675v4.141h-3.721v-18.93l-17.211-7.099v-28.986c0-14.504,3.002-24.629,7.272-31.717-2.829-1.679-3.54-7.838-3.475-10.364,2.111,3.529,8.251,13.553,11.354,16.251,1.186,1.032,2.439,1.996,3.516,3.141,2.341,2.487,4.36,6.083,7.774,6.159,.187,.004,.376-.004,.553-.063,.685-.229,.909-1.141,.68-1.825s-.764-1.213-1.213-1.778c-2.313-2.916-5.191-5.37-7.111-8.559-1.041-1.728-1.455-3.83-2.958-5.176-.945-.847-.952-3.675-2.789-5.542,10.299-9.404,22.678-8.639,22.678-8.639,0,0,36.282-2.366,36.282,48.113v7.014c.968,.427,1.89,1.027,2.515,1.516,1.638,1.279,2.934,2.94,4.147,4.628,1.31,1.823,2.566,4.295,1.333,6.171Zm-1.637-50.083c-1.221-.735-2.391-1.57-3.703-2.125-2.288-.967-4.896-1.031-7.126-2.126-2.046-1.005-3.587-2.785-5.068-4.517-.612-.716-1.251-1.492-1.358-2.427-.107-.936,.598-2.018,1.535-1.927,.399,.039,.748,.273,1.079,.501,1.504,1.036,3.008,2.072,4.512,3.108,.46,.317,.924,.636,1.436,.86,3.553,1.555,8.136,1.048,11.621,2.751,1.537,.751,2.718,1.914,3.64,3.364,.431,.678,1.777,6.323,2.002,6.409-2.931-1.122-5.88-2.253-8.569-3.871Z"/><path class="cls-1" d="M93.239,84.103s-3.845,15.972,8.282,13.31c12.127-2.662,8.282-21.887,8.282-21.887l-16.563,8.577Z"/></svg>