<?xml version="1.0" encoding="UTF-8"?><svg id="Layer_1" xmlns="http://www.w3.org/2000/svg" viewBox="0 0 172.438 189.522"><defs><style>.cls-1{fill:#fff;}</style></defs><path class="cls-1" d="M111.078,27.465l6.786,8.064c-.953-9.556-.805-18.522-.805-18.522,0,0-3.154,3.941-5.981,10.457Z"/><path class="cls-1" d="M133.566,71.833c-.007,8.885-2.351,17.075-4.419,24.302-1.679,5.866-3.265,11.408-3.265,16.174,0,6.42,4.751,8.812,7.747,8.812,3.176,0,9.785,0,9.785-25.794v-27.221l13.05,23.889c2.411,4.414,4.478,10.572,5.921,17.186,6.18-6.356,10.053-14.807,10.053-24.468,0-7.147-2.043-15.455-4.353-19.683,0,12.247-2.312,19.676-10.056,19.676-4.347,0-8.831-3.496-8.831-9.472,0-7.291,4.617-15.306,4.617-24.345,.064-5.819-2.069-11.514-6.115-16.322,0,0-4.788,8.292-12.018,17.473-1.662,2.11-3.171,3.592-4.55,4.572,1.655,4.905,2.486,10.015,2.433,15.22Z"/><path class="cls-1" d="M16.149,75.416c-6.275-.122-9.158-4.774-9.158-17.718-4.298,6.633-6.991,15.277-6.991,25.944,0,7.087,1.599,14.171,5.219,20.408,1.912-10.589,5.563-20.173,10.93-28.634Z"/><path class="cls-1" d="M29.307,55.084v23.51c0,22.886,5.345,22.886,8.881,22.886,2.995,0,7.747-2.393,7.747-8.814,0-3.071-.929-7.795-2.004-13.265-1.623-8.252-3.638-18.517-3.649-29.334-3.643-3.576-6.276-9.444-6.276-17.884,.177-7.184,1.579-14.314,4.167-21.187-13.169,8.215-16.399,19.317-16.399,29.696,0,8.189,2.087,15.917,2.97,21.437l4.565-7.045Z"/><path class="cls-1" d="M92.268,65.779c-.737-2.685-1.099-6.226-1.099-10.804-1.69,2.608-3.132,5.527-4.266,8.752,1.728,1.024,3.54,1.703,5.365,2.052Z"/><path class="cls-1" d="M109.488,44.63v-13.065c-2.345,6.825-3.839,15.581-1.848,25.236,1.21-3.259,1.848-7.324,1.848-12.171Z"/><path class="cls-1" d="M150.364,95.327c0,20.382-3.847,32.745-16.735,32.745-7.235,0-14.697-5.818-14.697-15.763,0-12.134,7.684-25.473,7.684-40.516,.107-9.684-3.444-19.163-10.176-27.163,0,21.108-10.86,28.382-21.259,28.382-12.888,0-27.366-11.649-27.366-37.358,.298-12.09,2.658-24.088,7.013-35.654-22.162,13.824-27.598,32.508-27.598,49.975s5.656,33.715,5.656,42.691c0,9.945-7.464,15.765-14.697,15.765-10.86,0-15.832-7.759-15.832-29.836-7.232,11.162-11.766,25.708-11.766,43.66,0,26.753,13.494,53.499,48.659,64.131,6.734,2.042,13.861,3.103,21.051,3.134,.273,.001,.548,.002,.824,.002,3.289,0,6.757-.099,10.441-.311,34.828,0,66.043-25.708,66.043-61.127,0-11.895-3.4-25.721-7.245-32.757Zm-47.498,82.879h-37.534v-4.953h37.534v4.953Zm0-9.907h-37.534v-53.78h37.534v53.78Zm0-62.625h-37.534v-8.477c0-10.365,8.402-18.767,18.767-18.767h0c10.365,0,18.767,8.402,18.767,18.767v8.477Z"/></svg>