<?xml version="1.0" encoding="UTF-8"?><svg id="Layer_1" xmlns="http://www.w3.org/2000/svg" viewBox="0 0 125.622 178.723"><defs><style>.cls-1{fill:#fff;}</style></defs><g><rect class="cls-1" x="17.37" y="15.83" width="8.194" height="21.603"/><rect class="cls-1" x="31.151" y="15.83" width="8.194" height="21.603"/><rect class="cls-1" x="44.932" y="15.83" width="8.194" height="21.603"/><rect class="cls-1" x="58.714" y="15.83" width="8.194" height="21.603"/><rect class="cls-1" x="72.495" y="15.83" width="8.194" height="21.603"/><rect class="cls-1" x="86.277" y="15.83" width="8.194" height="21.603"/><rect class="cls-1" x="100.058" y="15.83" width="8.194" height="21.603"/></g><path class="cls-1" d="M31.989,0h61.644C98.464,0,102.386,3.922,102.386,8.753H23.236C23.236,3.922,27.158,0,31.989,0Z"/><rect class="cls-1" x="17.37" y="42.089" width="90.883" height="8.008"/><path class="cls-1" d="M22.547,157.99H103.075c0,4.42-3.588,8.008-8.008,8.008H30.556c-4.42,0-8.008-3.588-8.008-8.008h0Z"/><path class="cls-1" d="M62.811,178.723c-13.234,0-23.963-3.557-23.963-7.945h47.925c0,4.388-10.729,7.945-23.963,7.945Z"/><path class="cls-1" d="M120.927,77.581l-7.829-22.021H12.531l-7.454,20.085c-6.729,18.129-6.77,38.064-.117,56.221l7.571,20.662H113.098l7.15-18.67c6.924-18.079,7.165-38.037,.679-56.277Zm-35.395,40.244l-51.401,28.308,20.113-33.894-12.913-20.487,50.16-29.797-19.741,32.404,13.781,23.465Z"/></svg>