<?xml version="1.0" encoding="UTF-8"?><svg id="Layer_1" xmlns="http://www.w3.org/2000/svg" viewBox="0 0 115.241 167.213"><defs><style>.cls-1{fill:#fff;}</style></defs><path class="cls-1" d="M101.858,0H13.383C5.992,0,0,5.992,0,13.383V153.83c0,7.391,5.992,13.383,13.383,13.383H101.858c7.391,0,13.383-5.992,13.383-13.383V13.383c0-7.391-5.992-13.383-13.383-13.383Zm4.237,153.942H9.146V13.271H106.095V153.942Z"/><g><g><rect class="cls-1" x="17.395" y="105.408" width="80.451" height="11.42"/><rect class="cls-1" x="17.395" y="132.92" width="80.451" height="11.42"/><rect class="cls-1" x="17.395" y="22.874" width="80.451" height="11.42"/><rect class="cls-1" x="17.395" y="50.385" width="80.451" height="11.42"/><rect class="cls-1" x="17.395" y="77.896" width="80.451" height="11.42"/></g><path class="cls-1" d="M52.283,67.121v18.642h33.62v-18.642H52.283Zm28.282,8.741c-1.892,0-3.426-1.534-3.426-3.426s1.534-3.426,3.426-3.426,3.426,1.534,3.426,3.426-1.534,3.426-3.426,3.426Z"/></g></svg>