<?xml version="1.0" encoding="UTF-8"?><svg id="Layer_2" xmlns="http://www.w3.org/2000/svg" viewBox="0 0 200 75"><defs><style>.cls-1{fill:#fff;}</style></defs><path class="cls-1" d="M7.697,21.451h6.876l.955-.955h24.065l.645,.955h13.179v-.955l2.364-4.536h.645v-1.791h3.366v-1.003h.501v-1.934h1.146l.931,1.432,.645-.716,1.218,.501,5.73,.143,.43-.859h2.937l1.218,1.576,.43,1.074h38.605l.31-.43v-.549h1.671v.549h3.39l.489,.489h21.666v2.614h8.786l1.05-.191h1.241v-.979h6.303v1.003s.788,1.826,0,2.614l1.988,2.167h2.346l.179,.394h12.486l1.814-10.833h2.769v10.833h3.533v-.997h8.022s1.528,2.865,0,4.393h-7.449l-.812-.812h-2.531v2.626h-2.292v-1.05h-2.96v-1.241h-12.606v2.292h-2.005v-2.793h-3.504v1.253h-2.31v-.877h-11.979l-.591,.591h-1.092v3.366h-37.154l-.477,.561h-6.78s3.82,15.482,12.797,27.611l-12.701,6.78s-11.46-19.768-14.325-29.998c0,0,1.182,2.853-2.901,2.853l-.215,2.865s-.788,.573-.895-2.22c0,0-8.81,.394-9.024-.179,0,0-1.289,1.218-1.791,1.003l-.859,.36c-.702,.464-1.001,.953-1.146,1.287-.489,1.134,.185,1.919-.43,2.937-.309,.511-.564,.454-.859,1.074-.302,.634-.318,1.289-.322,1.54-.011,.718,.167,1.017-.036,1.576-.087,.239-.19,.379-.322,.573-.113,.166-.91,1.336-1.182,2.149-.366,1.098,.186,1.665-.036,2.113-.365,.737-2.649,.788-10.027-1.468,0,0,.43-8.631,4.584-14.074,0,0,.752-4.835-2.722-4.835v-1.397h-3.868l-.752-.143h-15.077s-2.113,.394-2.113,1.791h-3.151v.609h-7.95v-1.182s-5.694,8.093-5.694,10.6l-7.807,1.003-.561-21.153Z"/></svg>