<?xml version="1.0" encoding="UTF-8"?><svg id="Layer_2" xmlns="http://www.w3.org/2000/svg" viewBox="0 0 200 75"><defs><style>.cls-1{fill:#fff;}</style></defs><path class="cls-1" d="M3.057,50.754L1.804,25.274s3.028-3.655,6.683,0l18.588,1.462,24.644-1.044,5.389-4.804h7.559l3.133-5.848h2.924l3.968,4.02v.992l33.416,.418,57.225,.209v-6.892h1.671l2.437,7.449,2.437,.348v2.924h-1.81v1.671h6.544v-.801h2.889v.835h9.781v-.522h8.389s1.183,3.829,0,3.829h-8.319v-.453h-9.92v1.358h-2.854v-1.358h-6.822v.522h-3.411v.696h-21.72v.453h-6.057v2.889h-29.03v-1.914h-2.611l-.905-.905v-.661h-1.706s1.288,3.098-2.75,3.098v3.724l-.348,.244v17.752l-15.455,2.854v-15.002l-4.107,2.785-9.015,.383s-4.63-.209-7.727,11.835l1.288,1.775s-.453,1.81-1.323,1.601-11.87-3.481-11.87-3.481c0,0-.94-.209-.383-1.288,0,0,5.639-13.192,9.294-14.167l-2.611-6.996h-1.427l-2.367,.348H28.711l-18.588,11.591s-4.351,4.978-7.066,3.55Z"/></svg>