<?xml version="1.0" encoding="UTF-8"?><svg id="Layer_2" xmlns="http://www.w3.org/2000/svg" viewBox="0 0 200 75"><defs><style>.cls-1{fill:#fff;}</style></defs><path class="cls-1" d="M164.915,22.208s-1.549-2.032-1.549-3.968-3.291-2.71-3.291-2.71v-3.508c0-.628-.509-1.137-1.137-1.137s-1.137,.509-1.137,1.137v4.234l-.944,1.96h-2.952v-1.524h-4.839v1.524h-2.274v-1.524h-4.839v1.524h-2.274v-1.524h-4.839v1.524h-2.274v-1.524h-4.839v1.524h-2.274v-1.524h-4.839v1.524h-2.274v-1.524h-4.839v1.524h-2.274v-1.524h-4.839v1.524h-4.186v-.726l-1.795-1.452-.382-1.524h-.236c.132-.382,.214-.857,.214-1.379,0-1.243-.445-2.25-.994-2.25s-.994,1.007-.994,2.25c0,.522,.082,.997,.214,1.379h-.333v1.5h-.629v2.25h-1.137l-.556-.556h-9.388l-.823,2.432,.581,1.101h-19.453v-.677H32.226c0-.871-5.226-.387-4.646,1.355,.581,1.742,4.065,27.002,4.065,27.002,2.516,.774,7.259-.677,7.259-.677l1.065-2.129,20.324-14.517h6.097l.774-.774v-2.129h4.646l2.226-1.065h9.485l1.452,5.033c3.387,1.161,2.807,5.42,2.807,5.42l-8.517,13.55,3.968,2.226,3.968,1.742,1.645,.29,1.936-.677v-.871l-.29-1.742,5.129-11.42c3.291,2.323,13.937-.194,13.937-.194,.082,5.195,4.936,23.131,4.936,23.131l12.195-5.129c-2.71-4.162-3.871-20.228-3.871-20.228l1.113-.194-.197-8.128,1.504-.462h25.914l.944-.944,1.307,1.307h10.259l1.936-3.968h6.872v-4.162h-7.549Z"/></svg>