<?xml version="1.0" encoding="UTF-8"?><svg id="Layer_2" xmlns="http://www.w3.org/2000/svg" viewBox="0 0 200 75"><defs><style>.cls-1{fill:#fff;}</style></defs><path class="cls-1" d="M159.934,22.138h-5.189l.017,.307-3.814,.054h-1.338v-.325h-1.121c0-2.604-2.495-6.003-2.495-6.003h-1.157l-.796-.506h-.687l-.253-.47-1.591-1.085h-.759v-1.446h-1.266c.56-.56,0-1.121,0-1.121v-2.17c0-.419-.34-.759-.759-.759s-.759,.34-.759,.759v3.616h-3.688v1.627h-2.07v-.849h-2.337v.849h-1.275v-.849h-2.337v.849h-1.275v-.849h-2.337v.849h-1.275v-.849h-2.337v.849h-1.275v-.849h-2.337v.849h-1.275v-.849h-2.337v.849h-1.275v-.849h-2.337v.849h-1.275v-.849h-2.337v.849h-1.275v-.849h-2.337v.849h-1.275v-.849h-2.337v.849h-1.275v-.849h-2.337v.849h-2.183v-1.808l-.976-.036c0-.419-.34-.759-.759-.759h-.904c-.419,0-.759,.34-.759,.759v.145h-2.459v1.374h-.579v.723h-2.459v.976h-2.134v.615h-4.773v-.904h-1.121v3.399h1.627v-.542h4.873l-.407,1.546H44.86v-1.058h-5.289l.759,21.642h1.681l1.519-1.248,1.41-10.252v-6.617h34.769v2.712h1.248v4.502h19.042c1.196,0,1.733,2.007,1.733,2.007-3.2,9.818-.235,16.544-.235,16.544h1.374c.325,4.882,3.987,18.049,3.987,18.049l9.316-2.007-.646-1.397c-1.013,0-3.056-14.772-3.056-14.772l.434-.759c-.344,0-1.302-5.93-1.302-5.93v-7.25c0-.669,2.296-.886,2.296-.886h7.413l.994-.886,1.826-5.442h13.036v19.129l6.274,2.242V29.009c0-1.591,1.428-2.134,1.428-2.134h1.573l.506,.054h.47l1.371,1.997c.173,.252,.492,.359,.782,.262h0c.313-.104,.508-.418,.462-.745l-.211-1.515,.09-.452-.303-1.058h1.885v.244h.909l7.526-.081c1.112-1.112,0-3.444,0-3.444Z"/></svg>