<?xml version="1.0" encoding="UTF-8"?><svg id="Layer_2" xmlns="http://www.w3.org/2000/svg" viewBox="0 0 200 75"><defs><style>.cls-1{fill:#fff;}</style></defs><path class="cls-1" d="M152.636,20.671v-7.978h-3.946v-.672h-1.431v.672h-.954v-.672h-1.431v.672h-.954v-.672h-1.431v.672h-7.913v-3.577h-4.271v-1.387l-.845-1.951h-1.236v7.198h-.694v-.954h-1.431v.954h-.954v-.954h-1.431v.954h-.954v-.954h-1.431v.954h-.954v-.954h-1.431v.954h-.954v-.954h-1.431v.954h-.954v-.954h-1.431v.954h-.954v-.954h-1.431v.954h-.954v-.954h-1.431v.954h-.954v-.954h-1.431v.954h-.954v-.954h-1.431v.954h-.954v-.954h-1.431v.787c-.501-.254-.845-.773-.845-1.373v-.455c0-.85-.689-1.539-1.539-1.539h-3.404v-1.019l-1.019-2.753h-1.572v6.818h-6.536l-3.415,1.463H46.732c-.532,0-1.025,.279-1.299,.735-.157,.262-.232,.566-.213,.872l1.037,16.904c.081,1.324,1.03,2.433,2.325,2.719h0c.21,.046,.425,.07,.64,.07h6.798l4.097-4.065,.033-1.658,5.073-4.845,9.431-1.724,1.236-1.236v-1.984h5.106v.618h1.073v1.626h2.341v-2.179h.618v-.715l3.805,.13c0-.553,.65-.976,.65-.976l2.406,.033c1.561,.098,1.626,3.447,1.626,3.447-4.975,5.333-5.496,14.504-5.496,14.504l17.561,6.439h12.292l-2.276,4.293-.748-.163-4.488,9.626,.618,.618-1.496,2.927v.846l.715,.52-1.789,6.276,3.707,1.724,3.642-5.301h.911l.488-1.008,1.268-2.602,.748,.358,4.423-9.886-.52-.488,3.61-8.227,.163-.52h1.301v-.683h-.585v-.39l5.61-11.756c0-1.707,2.065-2.065,2.065-2.065h2.027v-.932h.694v.835h1.431v-.835h.954v.835h1.431v-.835h.954v.835h1.431v-.835h.954v.835h1.431v-.835h.954v.835h1.431v-.835h.954v.835h1.431v-.835h1.019v-.911h.347v-1.843h2.103v-2.406h-2.146Z"/></svg>