<?xml version="1.0" encoding="UTF-8"?><svg id="Layer_2" xmlns="http://www.w3.org/2000/svg" viewBox="0 0 280 115"><defs><style>.cls-1{fill:#fff;}</style></defs><path class="cls-1" d="M231.271,28.319V14.485h-6.842v-1.165h-2.481v1.165h-1.654v-1.165h-2.481v1.165h-1.654v-1.165h-2.481v1.165h-13.721v-6.203h-7.406v-2.406l-1.466-3.383h-2.143V14.973h-1.203v-1.654h-2.481v1.654h-1.654v-1.654h-2.481v1.654h-1.654v-1.654h-2.481v1.654h-1.654v-1.654h-2.481v1.654h-1.654v-1.654h-2.481v1.654h-1.654v-1.654h-2.481v1.654h-1.654v-1.654h-2.481v1.654h-1.654v-1.654h-2.481v1.654h-1.654v-1.654h-2.481v1.654h-1.654v-1.654h-2.481v1.654h-1.654v-1.654h-2.481v1.365c-.869-.44-1.466-1.34-1.466-2.38v-.789c0-1.474-1.195-2.669-2.669-2.669h-5.902v-1.767l-1.767-4.774h-2.725V14.128h-11.334l-5.921,2.538H47.633c-.922,0-1.777,.484-2.252,1.275-.273,.455-.402,.982-.369,1.512l1.799,29.312c.141,2.295,1.786,4.219,4.031,4.715h0c.365,.081,.737,.121,1.111,.121h11.787l7.105-7.049,.056-2.876,8.797-8.402,16.353-2.989,2.143-2.143v-3.44h8.853v1.071h1.861v2.819h4.06v-3.778h1.071v-1.241l6.598,.226c0-.959,1.128-1.692,1.128-1.692l4.173,.056c2.707,.169,2.819,5.977,2.819,5.977-8.627,9.248-9.53,25.149-9.53,25.149l30.45,11.165h21.315l-3.947,7.443-1.297-.282-7.782,16.691,1.071,1.071-2.594,5.075v1.466l1.241,.902-3.101,10.883,6.428,2.989,6.316-9.191h1.579l.846-1.748,2.199-4.511,1.297,.62,7.669-17.142-.902-.846,6.259-14.266,.282-.902h2.256v-1.184h-1.015v-.677l9.727-20.385c0-2.96,3.581-3.581,3.581-3.581h3.515v-1.616h1.203v1.447h2.481v-1.447h1.654v1.447h2.481v-1.447h1.654v1.447h2.481v-1.447h1.654v1.447h2.481v-1.447h1.654v1.447h2.481v-1.447h1.654v1.447h2.481v-1.447h1.767v-1.579h.601v-3.195h3.647v-4.173h-3.722Z"/></svg>