<?xml version="1.0" encoding="UTF-8"?><svg id="Layer_2" xmlns="http://www.w3.org/2000/svg" viewBox="0 0 200 75"><defs><style>.cls-1{fill:#fff;}</style></defs><path class="cls-1" d="M171.801,18.358l-1.115-.049h-6.998l-.164,.467h-.327l-.327-.327h-.655l-.491-2.128-.359-1.188,.031-3.56-.819-3.438s-.491-2.947-.819-3.274h-3.118s-.975,1.637-.975,3.274c0,0-.655,3.274-3.765,3.274l-18.663,.164v-1.965h-.655v-.982h-4.911v.982h-.982v-.982h-4.911v.982h-.982v-.982h-4.911v.982h-.982v-.982h-4.911v.982h-.982v-.982h-4.911v.982h-.982v-.982h-4.911v.982h-.982v-.982h-4.911v.982h-.655v-2.619h-4.584l-6.385,4.257-2.456,.491s-4.183,1.881-4.183,3.396c0,0-6.019,1.839-6.521,1.672-.502-.167-38.455,.011-38.455,.011l-1.003,20.822s25.748-5.283,45.979-13.308l4.013,.502s10.868-1.728,10.868,7.58l-6.967,11.982,8.639,5.518,.669-.947v-.836l5.239-12.261,3.065,1.338h10.422l2.174-2.508,5.35-.502,8.583,35.947,8.75-1.951-.446-1.449-.836-.056-7.301-33.774,1.839-.446-1.003-6.242,2.508-.056s.892,.111,.892-1.449h4.612v1.637h21.359s.92,.481,.92,3.01h2.863l.105-1.17s.648,.251,.648-.648c0,0,.523-4.514,.439-5.162l.272-.69h1.714l.46,.522h7.67s.637-2.132,.237-3.859Z"/></svg>