<?xml version="1.0" encoding="UTF-8"?><svg id="Layer_1" xmlns="http://www.w3.org/2000/svg" viewBox="0 0 192.052 74.488"><defs><style>.cls-1{fill:#fff;}</style></defs><g><path class="cls-1" d="M151.431,46.567v4.004l38.712,20.224c.715-.941,1.245-2.016,1.559-3.19l-40.271-21.039Z"/><path class="cls-1" d="M151.431,56.801v4.004l26.19,13.682h5.163c.703,0,1.381-.093,2.04-.242l-33.392-17.445Z"/><polygon class="cls-1" points="151.431 26.1 151.431 30.104 192.052 51.325 192.052 47.321 151.431 26.1"/><polygon class="cls-1" points="151.431 36.334 151.431 40.338 192.052 61.559 192.052 57.555 151.431 36.334"/><path class="cls-1" d="M154.131,17.276c-.84,.845-1.517,1.851-1.983,2.968l39.905,20.847v-4.004l-37.921-19.811Z"/><path class="cls-1" d="M191.338,20.251c-1.396-3.351-4.698-5.708-8.554-5.708h-2.372l10.926,5.708Z"/><path class="cls-1" d="M151.637,67.142c.886,4.195,4.604,7.346,9.063,7.346h4.998l-14.061-7.346Z"/><polygon class="cls-1" points="168.488 14.543 160.823 14.543 192.052 30.858 192.052 26.853 168.488 14.543"/></g><g><path class="cls-1" d="M40.62,46.567v4.004L1.908,70.796c-.715-.941-1.245-2.016-1.559-3.19l40.271-21.039Z"/><path class="cls-1" d="M40.62,56.801v4.004l-26.19,13.682h-5.163c-.703,0-1.381-.093-2.04-.242l33.392-17.445Z"/><polygon class="cls-1" points="40.62 26.1 40.62 30.104 0 51.325 0 47.321 40.62 26.1"/><polygon class="cls-1" points="40.62 36.334 40.62 40.338 0 61.559 0 57.555 40.62 36.334"/><path class="cls-1" d="M37.921,17.276c.84,.845,1.517,1.851,1.983,2.968L0,41.092v-4.004L37.921,17.276Z"/><path class="cls-1" d="M.713,20.251c1.396-3.351,4.698-5.708,8.554-5.708h2.372L.713,20.251Z"/><path class="cls-1" d="M40.415,67.142c-.886,4.195-4.604,7.346-9.063,7.346h-4.998l14.061-7.346Z"/><polygon class="cls-1" points="23.563 14.543 31.229 14.543 0 30.858 0 26.853 23.563 14.543"/></g><g><path class="cls-1" d="M124.815,0h-57.578c-9.692,0-17.55,7.857-17.55,17.549V63.099c0,5.445,4.414,9.859,9.859,9.859h72.958c5.445,0,9.859-4.414,9.859-9.859V17.549c0-9.692-7.857-17.549-17.549-17.549Zm-.744,45.668l-13.791,18.597,.543-17.626c-3.242,4.707-8.663,7.802-14.798,7.802-2.797,0-5.436-.661-7.799-1.807l-7.282,1.539,12.223,8.983-16.881,7.129,8.603-8.168-18.597-13.791,16.736,.515c-3.068-3.224-4.965-7.572-4.965-12.364,0-1.58,.226-3.105,.61-4.566l-3.189-12.904-8.562,12.521-7.699-16.628,8.456,8.32,13.15-19.055,.073,22.657c3.195-4.987,8.773-8.308,15.122-8.308,2.501,0,4.882,.517,7.048,1.444l11.127-2.122-12.043-9.223L119.176,1.823l-8.763,7.996,18.32,14.156-20.971-1.062c3.805,3.296,6.226,8.149,6.226,13.566,0,.768-.064,1.519-.158,2.262l2.297,10.871,8.983-12.223,7.129,16.881-8.167-8.603Z"/><path class="cls-1" d="M96.026,23.721c-7.035,0-12.758,5.723-12.758,12.758s5.723,12.758,12.758,12.758,12.758-5.723,12.758-12.758-5.723-12.758-12.758-12.758Zm0,23.406c-5.881,0-10.648-4.767-10.648-10.648s4.767-10.648,10.648-10.648,10.648,4.767,10.648,10.648-4.767,10.648-10.648,10.648Z"/></g></svg>